<?xml version="1.0" encoding="utf-8"?>
<!-- Generator: Adobe Illustrator 19.0.0, SVG Export Plug-In . SVG Version: 6.00 Build 0)  -->
<svg version="1.1" id="Capa_1" xmlns="http://www.w3.org/2000/svg" xmlns:xlink="http://www.w3.org/1999/xlink" x="0px" y="0px"
	 viewBox="841.3 -120.8 28.9 37.4" style="enable-background:new 841.3 -120.8 28.9 37.4;" xml:space="preserve">
<style type="text/css">
	.st0{opacity:0.5;fill:#78C8D7;enable-background:new    ;}
</style>
<path id="XMLID_32_" class="st0" d="M869.3-100c-1.2-1.2-3.1-1.2-4.3,0l-6.2,6.2v-24c0-1.7-1.3-3-3-3s-3,1.3-3,3v24.1l-6.3-6.3
	c-1.2-1.2-3.1-1.2-4.3,0s-1.2,3.1,0,4.3l10.9,10.9c0.1,0.2,0.3,0.4,0.4,0.5c0.6,0.6,1.4,0.9,2.1,0.9c0,0,0,0,0.1,0c0,0,0,0,0.1,0
	c0.8,0,1.5-0.3,2.1-0.9c0.2-0.2,0.3-0.3,0.4-0.5l10.9-10.9C870.5-96.9,870.5-98.8,869.3-100z"/>
</svg>
