<?xml version="1.0" encoding="utf-8"?>
<!-- Generator: Adobe Illustrator 19.0.0, SVG Export Plug-In . SVG Version: 6.00 Build 0)  -->
<svg version="1.1" id="Capa_1" xmlns="http://www.w3.org/2000/svg" xmlns:xlink="http://www.w3.org/1999/xlink" x="0px" y="0px"
	 viewBox="428.6 -110 47.2 47.2" style="enable-background:new 428.6 -110 47.2 47.2;" xml:space="preserve">
<style type="text/css">
	.st0{fill:#50858C;}
</style>
<g>
	<path class="st0" d="M452.2-110c-13,0-23.6,10.6-23.6,23.6c0,13,10.6,23.6,23.6,23.6s23.6-10.6,23.6-23.6
		C475.9-99.4,465.3-110,452.2-110z M452.2-66.1c-11.2,0-20.3-9.1-20.3-20.3c0-11.2,9.1-20.3,20.3-20.3c11.2,0,20.3,9.1,20.3,20.3
		C472.5-75.2,463.4-66.1,452.2-66.1z"/>
	<path class="st0" d="M449-93.9c0,2.8,0,3.5,0,3.5h-2.7v4.4h2.7v13h5.2v-13h3.6l0.4-4.4h-4c0,0,0-1.6,0-2.5c0-1,0.2-1.4,1.2-1.4
		c0.8,0,2.8,0,2.8,0v-4.5c0,0-3,0-3.6,0C450.7-98.9,449-97.2,449-93.9z"/>
</g>
</svg>
