<?xml version="1.0" encoding="utf-8"?>
<!-- Generator: Adobe Illustrator 19.0.0, SVG Export Plug-In . SVG Version: 6.00 Build 0)  -->
<svg version="1.1" id="Capa_1" xmlns="http://www.w3.org/2000/svg" xmlns:xlink="http://www.w3.org/1999/xlink" x="0px" y="0px"
	 viewBox="457.1 -96 47.2 47.2" style="enable-background:new 457.1 -96 47.2 47.2;" xml:space="preserve">
<style type="text/css">
	.st0{fill:#50858C;}
</style>
<g>
	<path class="st0" d="M480.7-96c-13,0-23.6,10.6-23.6,23.6s10.6,23.6,23.6,23.6s23.6-10.6,23.6-23.6C504.3-85.4,493.7-96,480.7-96z
		 M480.7-52.1c-11.2,0-20.3-9.1-20.3-20.3c0-11.2,9.1-20.3,20.3-20.3c11.2,0,20.3,9.1,20.3,20.3C501-61.2,491.9-52.1,480.7-52.1z"/>
	<path class="st0" d="M491.8-79.6c-0.3-0.8-0.7-1.4-1.3-2.1c-0.7-0.6-1.3-1-2.1-1.3c-0.7-0.3-1.6-0.5-2.8-0.5
		c-1.3-0.1-1.7-0.1-4.8-0.1c-3.2,0-3.6,0-4.8,0.1c-1.2,0.1-2.1,0.3-2.8,0.5c-0.8,0.3-1.4,0.7-2.1,1.3c-0.7,0.7-1,1.3-1.3,2.1
		c-0.3,0.7-0.5,1.6-0.5,2.8c-0.1,1.2-0.1,1.7-0.1,4.8c0,3.2,0,3.6,0.1,4.8c0.1,1.3,0.3,2.1,0.5,2.8c0.3,0.8,0.7,1.4,1.3,2.1
		c0.7,0.6,1.3,1.1,2.1,1.3c0.7,0.3,1.6,0.5,2.8,0.5c1.2,0.1,1.7,0.1,4.8,0.1c3.2,0,3.6,0,4.8-0.1c1.2-0.1,2.1-0.3,2.8-0.5
		c0.8-0.3,1.4-0.7,2.1-1.3c0.6-0.7,1-1.3,1.3-2.1c0.3-0.7,0.5-1.6,0.5-2.8c0.1-1.2,0.1-1.7,0.1-4.8c0-3.2,0-3.6-0.1-4.8
		C492.3-78,492.1-78.9,491.8-79.6z M490.2-67.2c-0.1,1.1-0.2,1.8-0.4,2.2c-0.2,0.5-0.5,0.9-0.9,1.3s-0.8,0.7-1.4,0.9
		c-0.4,0.2-1,0.4-2.2,0.4c-1.2,0.1-1.6,0.1-4.7,0.1s-3.5,0-4.7-0.1c-1.1-0.1-1.8-0.2-2.2-0.4c-0.5-0.2-0.9-0.5-1.3-0.9
		s-0.7-0.8-0.9-1.3c-0.2-0.4-0.4-1-0.4-2.2c-0.1-1.2-0.1-1.6-0.1-4.7s0-3.5,0.1-4.7c0.1-1.1,0.2-1.8,0.4-2.2
		c0.2-0.5,0.5-0.9,0.9-1.3s0.8-0.7,1.3-0.9c0.4-0.2,1-0.4,2.2-0.4c1.2-0.1,1.6-0.1,4.7-0.1s3.5,0,4.7,0.1c1.1,0.1,1.8,0.2,2.2,0.4
		c0.6,0.2,0.9,0.5,1.4,0.9c0.4,0.4,0.7,0.8,0.9,1.3c0.2,0.4,0.3,1,0.4,2.2s0.1,1.6,0.1,4.7C490.3-68.8,490.3-68.5,490.2-67.2z"/>
	<path class="st0" d="M480.7-78c-3.3,0-6,2.7-6,6s2.7,6,6,6s6-2.7,6-6S484-78,480.7-78z M480.7-68.1c-2.2,0-3.9-1.8-3.9-3.9
		c0-2.2,1.8-3.9,3.9-3.9c2.2,0,3.9,1.7,3.9,3.9C484.6-69.8,482.9-68.1,480.7-68.1z"/>
	<path class="st0" d="M487-79.6c-0.8,0-1.4,0.6-1.4,1.4s0.6,1.4,1.4,1.4s1.4-0.6,1.4-1.4S487.7-79.6,487-79.6z"/>
</g>
</svg>
