<?xml version="1.0" encoding="utf-8"?>
<!-- Generator: Adobe Illustrator 24.0.3, SVG Export Plug-In . SVG Version: 6.00 Build 0)  -->
<svg version="1.1" id="Capa_1" xmlns="http://www.w3.org/2000/svg" xmlns:xlink="http://www.w3.org/1999/xlink" x="0px" y="0px"
	 viewBox="0 0 16.87 16.86" style="enable-background:new 0 0 16.87 16.86;" xml:space="preserve">
<g>
	<path d="M8.44,1.51c2.25,0,2.52,0.01,3.41,0.05c0.82,0.04,1.27,0.18,1.56,0.3c0.4,0.15,0.68,0.33,0.97,0.63
		c0.3,0.29,0.48,0.58,0.64,0.97c0.11,0.3,0.25,0.74,0.29,1.57c0.04,0.89,0.05,1.15,0.05,3.4c0,2.25-0.01,2.52-0.05,3.41
		c-0.04,0.82-0.17,1.27-0.29,1.57c-0.16,0.39-0.34,0.67-0.64,0.97c-0.3,0.29-0.57,0.48-0.97,0.63c-0.29,0.12-0.74,0.25-1.56,0.29
		c-0.89,0.04-1.16,0.05-3.41,0.05c-2.25,0-2.52-0.01-3.41-0.05C4.2,15.26,3.76,15.12,3.46,15c-0.39-0.15-0.67-0.33-0.97-0.63
		c-0.3-0.3-0.48-0.58-0.63-0.97c-0.12-0.3-0.26-0.74-0.3-1.57c-0.04-0.89-0.05-1.16-0.05-3.41c0-2.25,0.01-2.52,0.05-3.4
		c0.04-0.83,0.18-1.27,0.3-1.57c0.15-0.39,0.33-0.67,0.63-0.97c0.3-0.29,0.58-0.48,0.97-0.63c0.3-0.12,0.74-0.25,1.57-0.3
		C5.92,1.52,6.18,1.51,8.44,1.51 M8.44,0C6.15,0,5.86,0.01,4.96,0.05c-0.9,0.04-1.51,0.18-2.05,0.39c-0.55,0.22-1.02,0.51-1.5,0.97
		C0.95,1.88,0.66,2.35,0.45,2.9C0.24,3.44,0.09,4.05,0.05,4.95C0.01,5.85,0,6.14,0,8.43c0,2.29,0.01,2.58,0.05,3.48
		c0.04,0.9,0.18,1.51,0.39,2.05c0.22,0.56,0.5,1.03,0.97,1.49c0.47,0.47,0.94,0.76,1.5,0.97c0.54,0.21,1.15,0.35,2.05,0.39
		c0.9,0.04,1.19,0.05,3.48,0.05c2.29,0,2.57-0.01,3.48-0.05c0.9-0.04,1.51-0.18,2.05-0.39c0.56-0.21,1.02-0.5,1.5-0.97
		c0.47-0.47,0.75-0.94,0.97-1.49c0.21-0.54,0.35-1.14,0.39-2.05c0.04-0.9,0.05-1.19,0.05-3.48c0-2.29-0.01-2.58-0.05-3.48
		c-0.04-0.9-0.18-1.51-0.39-2.05c-0.22-0.55-0.5-1.02-0.97-1.49c-0.47-0.47-0.94-0.75-1.5-0.97c-0.54-0.21-1.15-0.35-2.05-0.39
		C11.01,0.01,10.73,0,8.44,0"/>
	<path d="M8.44,4.1C6.04,4.1,4.1,6.04,4.1,8.43c0,2.39,1.94,4.33,4.33,4.33c2.39,0,4.33-1.94,4.33-4.33
		C12.76,6.04,10.83,4.1,8.44,4.1 M8.44,11.24c-1.55,0-2.81-1.26-2.81-2.81c0-1.55,1.26-2.81,2.81-2.81c1.55,0,2.81,1.25,2.81,2.81
		C11.25,9.98,9.99,11.24,8.44,11.24"/>
	<path d="M13.95,3.93c0,0.55-0.45,1.01-1.01,1.01c-0.56,0-1.01-0.46-1.01-1.01c0-0.56,0.45-1.02,1.01-1.02
		C13.5,2.92,13.95,3.37,13.95,3.93"/>
</g>
</svg>
