<?xml version="1.0" encoding="utf-8"?>
<!-- Generator: Adobe Illustrator 24.0.1, SVG Export Plug-In . SVG Version: 6.00 Build 0)  -->
<svg version="1.1" id="Capa_1" xmlns="http://www.w3.org/2000/svg" xmlns:xlink="http://www.w3.org/1999/xlink" x="0px" y="0px"
	 viewBox="0 0 512 512" style="enable-background:new 0 0 512 512;" xml:space="preserve">
<style type="text/css">
	.st0{fill:#FFFFFF;}
</style>
<path class="st0" d="M504,256c0-15.1-1.4-30.2-4.1-44.9l-1.1-5.7H264v104h126.4l-5.8,11.6c-12.3,24.5-31.3,44.9-54.9,58.9
	C307.4,393,282,400,256,400c-25.4,0-50.3-6.7-72.2-19.4c-21.2-12.3-39-30-51.6-51C119,307.4,112,281.9,112,256
	c0-25.9,7-51.4,20.3-73.6c12.6-21.1,30.4-38.7,51.6-51c21.8-12.7,46.8-19.4,72.2-19.4c38.5,0,74.6,15,101.8,42.2l5,4.9l73.5-73.5
	l-4.9-4.9C384.5,33.8,322.2,8,256,8C189.8,8,127.5,33.8,80.6,80.6c-7.6,7.6-14.9,15.9-21.5,24.5C25.7,148.6,8,200.7,8,256
	c0,55.3,17.7,107.4,51.2,150.9c6.6,8.6,13.8,16.8,21.5,24.5C127.5,478.2,189.8,504,256,504c55.3,0,107.4-17.7,150.9-51.2
	c8.6-6.6,16.8-13.8,24.5-21.5C478.2,384.5,504,322.2,504,256z"/>
</svg>
