<?xml version="1.0" encoding="utf-8"?>
<!-- Generator: Adobe Illustrator 19.0.0, SVG Export Plug-In . SVG Version: 6.00 Build 0)  -->
<svg version="1.1" id="Capa_1" xmlns="http://www.w3.org/2000/svg" xmlns:xlink="http://www.w3.org/1999/xlink" x="0px" y="0px"
	 viewBox="0 0 178.4 180.7" style="enable-background:new 0 0 178.4 180.7;" xml:space="preserve">
<style type="text/css">
	.st0{fill:#F9E1D9;}
	.st1{fill:#C6C6C5;}
	.st2{fill:#FFFFFF;}
	.st3{fill:#FBE1DE;}
	.st4{fill:#1D1D1B;}
	.st5{fill:#F7BAA9;}
	.st6{fill:#78C8D7;}
	.st7{fill:#F39F91;}
	.st8{fill:#FFEE65;}
	.st9{opacity:0.3;fill:#FFFFFF;}
	.st10{opacity:0.6;fill:#FFFFFF;}
	.st11{opacity:0.8;fill:#FFFFFF;}
	.st12{fill:#F3A8BA;}
	.st13{fill:#3E2913;}
</style>
<g id="XMLID_78_">
	<g id="XMLID_268_">
		<g id="XMLID_402_">
			<g id="XMLID_67_">
				<path id="XMLID_404_" class="st0" d="M94.1,11.2c40.3,0,73.1,32.8,73.1,73.1c0,40.3-32.8,73.1-73.1,73.1
					c-40.3,0-73.1-32.8-73.1-73.1C21.1,44,53.9,11.2,94.1,11.2 M94.1,0C47.6,0,9.8,37.7,9.8,84.3s37.7,84.3,84.3,84.3
					s84.3-37.7,84.3-84.3S140.7,0,94.1,0L94.1,0z"/>
			</g>
		</g>
		<g id="XMLID_71_">
			<g id="XMLID_64_">
				<path id="XMLID_399_" class="st1" d="M98.1,44.5c0.4-0.1,0.8-0.4,1.1-0.9c0.4-0.5,0.7-1,1-1.6c0.3-0.7,0.6-1.4,0.9-2.2h0.3
					c-0.3,1-0.6,1.9-1,2.8c-0.3,0.7-0.8,1.3-1.3,2s-1.2,0.9-1.9,1h0h-0.3c-0.7,0-1.3-0.1-1.9-0.4c-0.6-0.3-1.2-0.6-1.6-1
					c-0.5-0.4-0.9-0.8-1.2-1.2c-0.3-0.4-0.4-0.7-0.4-1c0-0.3,0.1-0.6,0.3-0.9c0.2-0.4,0.4-0.7,0.6-1.1s0.5-0.7,0.7-1
					c0.2-0.3,0.4-0.5,0.5-0.6c0.1-0.1,0.1-0.1,0.1-0.1C94,38.1,94.1,38,94,38c0,0-0.1,0-0.3,0c-0.1,0.1-0.2,0.1-0.2,0.1c0,0,0,0,0,0
					c-0.1,0.1-0.3,0.2-0.6,0.5s-0.5,0.6-0.7,1c-0.2,0.4-0.5,1-0.7,1.7c-0.2,0.7-0.4,1.5-0.5,2.4v0.5c0,0.4-0.2,0.8-0.5,1.1
					c-0.3,0.3-0.6,0.6-0.8,0.6c-0.1,0.1-0.2,0-0.3-0.1c-0.1-0.1-0.2-0.2-0.2-0.4c-0.1-0.1-0.2-0.3-0.2-0.5c-0.2-0.8-0.4-1.8-0.5-2.8
					c-0.1-0.9-0.2-1.9-0.2-3.1c0-1.2,0.1-2.5,0.3-4c0.4-2.9,0.9-5,1.7-6.3c0.7-1.3,1.6-1.9,2.6-1.8c0.4,0.1,0.8,0.4,1.1,1
					c0.3,0.6,0.4,1.4,0.3,2.4c-0.1,1-0.3,2.1-0.7,3.3c-0.4,1.2-1.1,2.4-2,3.7c-0.1,0.4-0.1,0.9-0.1,1.3c0,0.4-0.1,0.8-0.1,1.2
					c0.4-0.6,0.8-1.3,1.4-2c0.5-0.7,1.2-1.3,2.1-1.8c0.2-0.1,0.6-0.3,1-0.5c0.5-0.2,0.9-0.1,1.2,0.1c0.3,0.2,0.5,0.4,0.5,0.7
					c0.1,0.3,0.1,0.6,0.1,1v0.1c0,0.1-0.1,0.3-0.2,0.6c-0.1,0.3-0.2,0.6-0.5,0.9c-0.2,0.3-0.6,0.6-1,1c-0.4,0.3-1,0.6-1.8,0.9
					l-0.2,0.1c-0.1,0-0.1,0-0.2,0.1c-0.1,0-0.1,0-0.2,0.1c-0.1,0.1-0.3,0.1-0.4,0.3c-0.1,0.1-0.1,0.3-0.1,0.4
					c0.1,0.2,0.2,0.4,0.5,0.6c0.2,0.2,0.5,0.5,0.8,0.7s0.7,0.5,1,0.7c0.4,0.2,0.8,0.4,1.1,0.5c0.4,0.2,0.8,0.2,1.1,0.3h0H98.1z
					 M92,34.2c-0.1,0.4-0.2,0.8-0.2,1.3c-0.1,0.4-0.1,0.8-0.2,1.2c0.4-0.6,0.7-1.3,1-2c0.3-0.8,0.5-1.5,0.7-2.2s0.3-1.4,0.4-1.9
					c0.1-0.6,0-1,0-1.2c-0.1-0.2-0.3-0.1-0.4,0.3c-0.2,0.5-0.4,1-0.5,1.7C92.5,32.1,92.2,33,92,34.2z"/>
			</g>
			<g id="XMLID_61_">
				<path id="XMLID_395_" class="st1" d="M107.9,39.8c-0.3,1.1-0.7,2.1-1.2,2.9c-0.4,0.7-0.9,1.4-1.6,2c-0.6,0.6-1.4,0.9-2.2,0.8
					c-0.3,0-0.6-0.2-0.9-0.4c-0.3-0.2-0.5-0.5-0.6-0.8c-0.2-0.3-0.3-0.6-0.4-0.9c-0.1-0.3-0.1-0.5-0.2-0.7c-0.1-0.4-0.1-0.9-0.1-1.4
					V41v-0.4c0-0.3,0-0.5,0-0.8c0-0.2,0-0.5,0.1-0.7c0.1-0.9,0.1-1.8,0.3-2.8c0-0.1,0.1-0.2,0.1-0.3c0,0,0-0.1,0.1-0.1
					c0.1-0.1,0.2-0.1,0.3-0.1c0.1,0,0.4,0.1,0.7,0.1c0.3,0.1,0.6,0.2,0.9,0.3c0.3,0.1,0.6,0.3,0.8,0.5c0.2,0.2,0.3,0.5,0.3,0.8
					c-0.1,0.4-0.1,0.7-0.1,1c0,0.3-0.1,0.7-0.1,1c-0.1,0.2-0.1,0.4-0.1,0.6c0,0.2,0,0.4-0.1,0.6c-0.1,0.5-0.1,0.9-0.1,1.3
					c0,0.1,0,0.2,0,0.2v0.1c-0.1,0.6,0,1.1,0,1.6c0.1,0.4,0.3,0.7,0.6,0.7c0.4,0,0.9-0.3,1.3-0.8c0.4-0.5,0.8-1,1.1-1.6
					c0.4-0.7,0.7-1.5,1-2.3H107.9z M105.9,32.3c-0.3,0.2-0.6,0.4-0.9,0.5c-0.4,0.2-0.7,0.3-1,0.5c-0.3,0.2-0.6,0.4-0.8,0.6
					c-0.2,0.2-0.2,0.5-0.2,0.9c0.1,0.1,0.1,0.2,0.1,0.2c0.1,0.1,0.1,0.2,0,0.3c0,0-0.1,0-0.2,0c0,0-0.1,0-0.1,0
					c-0.3-0.2-0.5-0.4-0.7-0.7c-0.2-0.2-0.4-0.5-0.5-0.9c-0.1-0.3-0.2-0.7-0.2-1.1c0-0.4,0.2-0.8,0.5-1.1c0.3-0.3,0.6-0.6,1-0.8
					s0.7-0.3,1.1-0.4c0.4-0.1,0.6-0.1,0.8,0c0.3,0.2,0.6,0.4,0.8,0.6c0.2,0.2,0.3,0.4,0.4,0.6C106.2,31.9,106.1,32.1,105.9,32.3z"/>
			</g>
			<g id="XMLID_57_">
				<path id="XMLID_390_" class="st1" d="M110,42.3c0,0.6,0,1.1,0.1,1.6s0.3,0.7,0.6,0.7c0.4,0,0.8-0.3,1.2-0.8c0.4-0.5,0.7-1,1-1.6
					c0.3-0.7,0.7-1.5,1-2.3h0.3c-0.3,1.1-0.6,2.1-1.1,2.9c-0.4,0.7-0.9,1.4-1.5,2c-0.6,0.6-1.3,0.9-2.1,0.8c-0.4,0-0.7-0.2-0.9-0.4
					s-0.4-0.5-0.6-0.8s-0.3-0.6-0.4-0.9c-0.1-0.3-0.2-0.5-0.2-0.7c-0.1-0.2-0.1-0.5-0.1-0.7c0-0.2,0-0.5-0.1-0.7c0-0.1,0-0.1,0-0.2
					s0-0.1,0-0.2v-0.4c0-0.3,0-0.5,0-0.8c0-0.3,0-0.5,0-0.7c0-0.6,0-1.2,0.1-1.9c0-0.7,0.1-1.3,0.2-2.1c0.1-0.6,0.2-1.3,0.3-1.8
					c0.1-0.6,0.2-1.1,0.4-1.6c-0.1,0-0.3,0-0.5,0.1c-0.1,0-0.2,0.1-0.3,0.1c-0.1,0-0.2,0.1-0.3,0.1c-0.3,0.1-0.5,0.1-0.6,0.1
					c-0.1,0-0.2,0-0.3,0c-0.1,0-0.2,0-0.3,0c-0.1,0-0.2,0-0.3,0c-0.1,0-0.1-0.1-0.2-0.1c-0.1,0-0.1-0.1-0.2-0.1c0,0,0,0,0,0
					c0,0,0,0,0,0c0,0,0-0.1,0-0.1c0,0,0-0.1,0-0.1c0,0,0-0.1,0-0.1v0v0l0,0v0v0v-0.1c0-0.1,0-0.2,0-0.2c0-0.1,0.1-0.2,0.1-0.2
					c0.1-0.1,0.1-0.2,0.2-0.3l0.1-0.1c0,0,0.1,0,0.1-0.1l0.2-0.1h0.1v0.2v0.1v0.1c0,0,0,0,0,0.1s0,0,0,0.1c0,0.1,0,0.1-0.1,0.1
					c0,0,0,0-0.1,0.1c-0.1,0.1-0.1,0.2,0,0.3v0v0v0h0l0,0c0,0,0.1,0,0.1,0c0,0,0.1,0,0.1,0c0.2,0,0.3,0,0.4,0h0.1c0,0,0.1,0,0.1,0
					c0,0,0.1,0,0.1,0c0,0,0.1,0,0.1,0l0.5-0.1c0.4-0.1,0.8-0.2,1.2-0.3c0.8-2.6,1.9-3.9,3.4-3.8c0.4,0.1,0.7,0.3,1,0.8
					c0.2,0.5,0.4,1.1,0.4,1.9c0.6-0.1,1.1-0.2,1.7-0.2s1.1-0.1,1.6-0.1c0.4,0,0.7,0,1,0c0.3,0,0.6,0.1,0.9,0.2
					c0.3,0.1,0.5,0.2,0.7,0.3c0,0,0.1,0,0.1,0.1c0,0,0.1,0,0.1,0.1c0,0,0.1,0,0.1,0.1l0,0l0,0c0.1,0.1,0.2,0.3,0.2,0.4
					c0,0.2,0,0.3,0,0.4c-0.1,0.1-0.1,0.1-0.1,0.1c0,0,0,0-0.1,0c0,0,0,0-0.1,0h-0.1h-0.1v-0.2c0-0.1,0-0.1,0-0.1c0,0,0,0,0-0.1
					c0,0,0,0,0-0.1s0,0,0-0.1l0,0h0v0c0,0-0.1,0-0.1,0l0,0c0,0-0.1,0-0.1,0s-0.1,0-0.1,0l-0.4-0.1c-0.2-0.1-0.4-0.1-0.5-0.1
					c-0.1,0-0.1,0-0.2,0h-0.2c-0.8-0.1-1.6,0-2.6,0.1c-0.3,0.1-0.5,0.1-0.8,0.1c-0.3,0-0.5,0.1-0.9,0.1c-0.1,0.9-0.3,2-0.8,3.1
					c-0.4,1.2-1.1,2.3-2,3.5c-0.1,0.4-0.1,0.7-0.1,1.1c0,0.3-0.1,0.7-0.1,1c0,0.2,0,0.4-0.1,0.6c0,0.2,0,0.4-0.1,0.6
					c0,0.2,0,0.4,0,0.6s0,0.4,0,0.6v0.2V42.3z M110.9,34.2c-0.1,0.4-0.2,0.8-0.2,1.3s-0.1,0.8-0.2,1.2c0.3-0.4,0.5-0.9,0.8-1.4
					c0.2-0.5,0.4-1,0.6-1.5c0.2-0.5,0.3-1,0.4-1.5s0.2-1,0.2-1.4l-0.6,0.1c-0.1,0-0.2,0-0.3,0c-0.1,0.4-0.2,0.8-0.3,1.1
					c-0.1,0.4-0.2,0.7-0.2,1C111.1,33.5,111,33.8,110.9,34.2z M112.5,29.3c-0.1-0.2-0.1-0.2-0.2,0c-0.1,0.2-0.2,0.4-0.4,0.7
					c0.1,0,0.3,0,0.4-0.1c0.1,0,0.2,0,0.3-0.1C112.6,29.6,112.6,29.4,112.5,29.3z"/>
			</g>
		</g>
		<g id="XMLID_56_">
			<g id="XMLID_87_">
				<path id="XMLID_385_" class="st1" d="M76.5,96.9c0.2-0.2,0.4-0.5,0.6-0.9c0.2-0.3,0.3-0.7,0.4-1c0.1-0.4,0.3-0.7,0.4-1.1h0.3
					c-0.1,0.5-0.3,1-0.5,1.5c-0.2,0.4-0.4,0.8-0.6,1.2c-0.3,0.4-0.6,0.8-0.9,1c-0.3,0.3-0.7,0.4-1.1,0.5c-0.4,0.1-0.7,0.1-1.1,0.1
					c-0.4,0-0.8-0.1-1.2-0.2c-0.3-0.1-0.6-0.2-0.9-0.4c-0.3-0.2-0.5-0.4-0.7-0.7s-0.3-0.6-0.4-1.1c-0.1-0.4,0-0.9,0.1-1.5
					c0.2-1.1,0.6-1.9,1-2.4c0.5-0.5,0.9-0.8,1.4-1c0.5-0.2,1.1-0.3,1.7-0.2c0.2,0.1,0.4,0.2,0.5,0.3c0.1,0.1,0.2,0.3,0.3,0.5
					s0.1,0.5,0.1,0.9v0c0,0.1,0,0.1,0,0.3c0,0.1,0,0.2-0.1,0.3l-0.1,0.3c0,0.1-0.1,0.2-0.2,0.4c-0.2,0.3-0.4,0.6-0.7,0.8
					c-0.3,0.2-0.6,0.4-1,0.5s-0.6,0.1-0.8,0.2c0,0.1,0,0.2,0,0.3c0,0.5,0,0.8,0.1,1.1c0.1,0.3,0.3,0.5,0.5,0.6h0
					c0,0,0.1,0.1,0.1,0.1c0.4,0.2,0.8,0.3,1.2,0.2c0.4-0.1,0.6-0.2,0.9-0.4h0C76.3,97.1,76.4,97,76.5,96.9z M75,91.6
					c-0.1,0-0.3,0-0.5,0.2s-0.3,0.4-0.5,0.7c-0.2,0.3-0.3,0.7-0.4,1.1c-0.1,0.4-0.2,0.8-0.3,1.2c0.3-0.1,0.6-0.3,0.8-0.5
					c0.2-0.2,0.3-0.3,0.4-0.5c0.1-0.2,0.2-0.3,0.3-0.5c0-0.1,0.1-0.1,0.1-0.2c0-0.1,0.1-0.1,0.1-0.1c0.1-0.3,0.2-0.6,0.2-0.9
					C75.3,91.8,75.2,91.6,75,91.6z"/>
			</g>
			<g id="XMLID_85_">
				<path id="XMLID_382_" class="st1" d="M84.7,97.4c0.3,0,0.6-0.2,0.9-0.6c0.3-0.4,0.5-0.8,0.7-1.2c0.2-0.5,0.4-1,0.7-1.6h0.2
					c-0.2,0.8-0.5,1.5-0.8,2.1c-0.1,0.3-0.3,0.5-0.5,0.8c-0.2,0.3-0.4,0.5-0.6,0.7c-0.2,0.2-0.5,0.3-0.7,0.5
					c-0.3,0.1-0.5,0.2-0.9,0.1c-0.1,0-0.3,0-0.4,0c-0.1,0-0.2,0-0.3-0.1h0h0h0l0,0c0,0,0,0,0,0c0,0,0,0,0,0
					c-0.3-0.1-0.6-0.3-0.7-0.6c-0.2-0.3-0.3-0.5-0.4-0.8c-0.1-0.3-0.1-0.6-0.2-1c0-0.3,0-0.6,0-0.9c0-0.1,0-0.2,0-0.3s0-0.2,0-0.3
					c0-0.2,0.1-0.5,0.1-0.6c0-0.1,0-0.3,0-0.3c0-0.1,0-0.2,0-0.2v0v-0.1c0,0,0-0.1,0-0.1c0,0,0,0,0,0v0c0,0-0.1,0-0.1,0
					c0,0-0.1,0-0.1,0.1v0c-0.2,0.1-0.5,0.4-0.8,0.9c-0.4,0.5-0.6,1.2-0.9,2.3c0,0.1,0,0.2,0,0.3c0,0.1,0,0.3,0,0.4v0.5
					c0,0.2,0,0.4-0.1,0.5c-0.1,0.2-0.2,0.3-0.3,0.5c-0.1,0.1-0.2,0.2-0.3,0.3c-0.1,0.1-0.2,0.1-0.3,0.2c-0.1,0-0.2,0-0.2-0.1
					c-0.1-0.1-0.1-0.2-0.2-0.3c-0.1-0.1-0.1-0.2-0.2-0.4c0-0.1-0.1-0.2-0.1-0.3c0-0.1-0.1-0.2-0.1-0.4c0-0.2-0.1-0.4-0.1-0.6
					c0-0.2-0.1-0.5-0.1-0.7c0-0.2,0-0.4,0-0.6c0-0.2,0-0.4,0-0.6c0-0.2,0-0.4,0-0.6c0-0.2,0-0.4,0-0.5c0-0.3,0.1-0.7,0.1-1
					c0-0.3,0.1-0.7,0.1-1.1c0,0,0-0.1,0-0.1c0,0,0-0.1,0.1-0.1c0,0,0-0.1,0.1-0.1c0-0.1,0.1-0.1,0.2,0c0.1,0,0.3,0.1,0.5,0.1
					c0.2,0.1,0.4,0.1,0.7,0.2c0.2,0.1,0.4,0.2,0.6,0.4c0.2,0.2,0.2,0.3,0.2,0.6c0,0.2-0.1,0.5-0.1,0.7c0,0.2-0.1,0.5-0.1,0.7
					c0.2-0.4,0.6-0.8,0.9-1.2s0.8-0.8,1.4-1.1c0.2-0.1,0.4-0.2,0.8-0.3c0.3-0.1,0.6-0.1,0.9,0.1c0.2,0.1,0.3,0.2,0.3,0.4
					c0.1,0.2,0.1,0.4,0.1,0.5s0,0.4,0,0.6c0,0.2-0.1,0.3-0.1,0.5c0,0.1-0.1,0.4-0.2,0.9c-0.1,0.4-0.2,0.9-0.2,1.4
					c-0.1,0.5,0,1,0.1,1.4c0.1,0.4,0.3,0.7,0.7,0.7c0,0,0.1,0,0.1,0C84.6,97.5,84.6,97.5,84.7,97.4z"/>
			</g>
			<g id="XMLID_26_">
				<path id="XMLID_377_" class="st1" d="M88.7,95.8c0,0.4,0,0.8,0.1,1.2s0.2,0.5,0.4,0.5c0.3,0,0.6-0.2,0.9-0.6
					c0.3-0.4,0.5-0.8,0.7-1.2c0.2-0.5,0.5-1.1,0.7-1.7h0.2c-0.2,0.8-0.5,1.5-0.8,2.1c-0.3,0.5-0.6,1-1.1,1.4s-0.9,0.6-1.6,0.6
					c-0.3,0-0.5-0.1-0.7-0.3c-0.2-0.2-0.3-0.4-0.4-0.6c-0.1-0.2-0.2-0.4-0.3-0.6s-0.1-0.4-0.1-0.5c0-0.2-0.1-0.3-0.1-0.5
					s0-0.3,0-0.5c0,0,0-0.1,0-0.1c0-0.1,0-0.1,0-0.1v-0.3c0-0.2,0-0.4,0-0.6c0-0.2,0-0.4,0-0.5c0-0.4,0-0.9,0-1.4
					c0-0.5,0.1-1,0.2-1.5c0.1-0.5,0.1-0.9,0.2-1.3c0.1-0.4,0.2-0.8,0.3-1.2c-0.1,0-0.2,0-0.3,0.1c-0.1,0-0.2,0-0.2,0.1
					c-0.1,0-0.1,0-0.2,0.1c-0.2,0-0.3,0.1-0.4,0.1c-0.1,0-0.1,0-0.2,0c-0.1,0-0.2,0-0.2,0c-0.1,0-0.2,0-0.2,0c0,0-0.1,0-0.1-0.1
					c0,0-0.1-0.1-0.1-0.1c0,0,0,0,0,0s0,0,0,0c0,0,0,0,0-0.1c0,0,0,0,0-0.1c0,0,0,0,0-0.1v0v0l0,0v0v0v-0.1c0-0.1,0-0.1,0-0.2
					c0-0.1,0-0.1,0.1-0.2c0-0.1,0.1-0.1,0.2-0.2l0.1-0.1c0,0,0.1,0,0.1-0.1l0.1-0.1h0.1v0.2v0.1v0.1c0,0,0,0,0,0c0,0,0,0,0,0
					c0,0,0,0.1,0,0.1c0,0,0,0,0,0.1c0,0.1-0.1,0.2,0,0.2v0v0v0h0l0,0c0,0,0,0,0.1,0c0,0,0.1,0,0.1,0c0.1,0,0.2,0,0.3,0H86
					c0,0,0.1,0,0.1,0c0,0,0,0,0.1,0c0,0,0.1,0,0.1,0l0.4-0.1c0.3-0.1,0.6-0.2,0.9-0.2c0.6-1.9,1.4-2.8,2.5-2.7
					c0.3,0,0.5,0.2,0.7,0.6c0.2,0.3,0.3,0.8,0.3,1.4c0.4-0.1,0.8-0.1,1.2-0.2c0.4,0,0.8-0.1,1.2-0.1c0.3,0,0.5,0,0.7,0
					c0.2,0,0.4,0.1,0.6,0.1c0.2,0.1,0.4,0.1,0.5,0.2c0,0,0.1,0,0.1,0.1c0,0,0.1,0,0.1,0.1c0,0,0.1,0,0.1,0.1l0,0l0,0
					c0.1,0.1,0.2,0.2,0.2,0.3c0,0.1,0,0.2,0,0.3c0,0-0.1,0.1-0.1,0.1c0,0,0,0,0,0c0,0,0,0,0,0h-0.1h-0.1v-0.2c0,0,0-0.1,0-0.1
					c0,0,0,0,0,0c0,0,0,0,0,0c0,0,0,0,0,0l0,0h0v0c0,0,0,0-0.1,0l0,0c0,0,0,0-0.1,0c0,0,0,0-0.1,0l-0.3-0.1c-0.2,0-0.3-0.1-0.4-0.1
					c0,0-0.1,0-0.2,0h-0.2c-0.5,0-1.2,0-1.9,0.1c-0.2,0-0.4,0.1-0.6,0.1c-0.2,0-0.4,0.1-0.6,0.1c-0.1,0.7-0.2,1.5-0.6,2.3
					c-0.3,0.8-0.8,1.7-1.4,2.6c0,0.3-0.1,0.5-0.1,0.8c0,0.3,0,0.5-0.1,0.7c0,0.2,0,0.3,0,0.5c0,0.2,0,0.3,0,0.5c0,0.2,0,0.3,0,0.5
					c0,0.2,0,0.3,0,0.4V95.8L88.7,95.8z M89.3,89.9c-0.1,0.3-0.1,0.6-0.2,0.9c-0.1,0.3-0.1,0.6-0.1,0.9c0.2-0.3,0.4-0.6,0.6-1
					c0.2-0.4,0.3-0.7,0.5-1.1s0.2-0.8,0.3-1.1c0.1-0.4,0.1-0.7,0.2-1l-0.5,0.1c0,0-0.1,0-0.2,0c-0.1,0.3-0.2,0.6-0.2,0.8
					c-0.1,0.3-0.1,0.5-0.2,0.7C89.4,89.4,89.4,89.6,89.3,89.9z M90.5,86.3c0-0.1-0.1-0.1-0.2,0s-0.2,0.3-0.3,0.5c0.1,0,0.2,0,0.3,0
					s0.1,0,0.2,0C90.6,86.6,90.5,86.4,90.5,86.3z"/>
			</g>
			<g id="XMLID_15_">
				<path id="XMLID_374_" class="st1" d="M95.1,97.5c0.3,0,0.6-0.2,0.9-0.6c0.3-0.4,0.6-0.8,0.8-1.2c0.3-0.5,0.5-1.1,0.8-1.7h0.2
					c-0.2,0.8-0.5,1.5-0.9,2.1c-0.3,0.5-0.7,1-1.1,1.4c-0.4,0.4-1,0.6-1.6,0.6c-0.3,0-0.5-0.1-0.7-0.3s-0.3-0.3-0.5-0.6
					s-0.2-0.4-0.3-0.7c-0.1-0.2-0.1-0.4-0.1-0.5c0-0.2-0.1-0.3-0.1-0.5s0-0.3,0-0.5v-0.3v-0.3c0-0.2,0-0.4,0-0.6c0-0.2,0-0.4,0-0.5
					c0-0.4,0-0.7,0.1-1.1c-0.1,0-0.2,0.1-0.4,0.1c-0.1,0-0.3,0-0.4,0.1c0,0.3-0.1,0.6-0.1,0.9c-0.1,0.3-0.1,0.6-0.2,0.8h-0.3
					c0.1-0.3,0.1-0.6,0.2-0.9s0.1-0.7,0.1-1c-0.2-0.1-0.3-0.2-0.5-0.3c-0.2-0.2-0.3-0.4-0.4-0.7c-0.1-0.2-0.1-0.4,0-0.7
					c0.1-0.2,0.2-0.4,0.3-0.6c0.2-0.2,0.3-0.3,0.5-0.4c0.2-0.1,0.3-0.2,0.4-0.2c0.2,0,0.4,0.1,0.5,0.2c0.1,0.1,0.2,0.1,0.3,0.2
					c0.1,0.1,0.1,0.2,0,0.4c-0.1,0.1-0.2,0.3-0.3,0.4c-0.1,0.1-0.3,0.3-0.4,0.4c-0.1,0.1-0.2,0.3-0.3,0.4c-0.1,0.1-0.1,0.3,0,0.4
					c0,0,0,0.1,0.1,0.1c0,0,0.1,0,0.2,0c0.1-0.1,0.2-0.2,0.3-0.3c0.1-0.1,0.3-0.2,0.4-0.3c0-0.1,0.1-0.1,0.2-0.2
					c0,0,0.1-0.1,0.2-0.1c0.1,0,0.2,0,0.3,0h0.1c0.3,0.1,0.7,0.2,1,0.4s0.5,0.4,0.5,0.8c0,0.3-0.1,0.5-0.1,0.8
					c0,0.2-0.1,0.5-0.1,0.7c0,0.2-0.1,0.3-0.1,0.5c0,0.2,0,0.3,0,0.5c0,0.2-0.1,0.3-0.1,0.5c0,0.2,0,0.3,0,0.4v0.2c0,0,0,0.1,0,0.1
					c0,0.4,0,0.8,0,1.2C94.8,97.3,94.9,97.5,95.1,97.5z"/>
			</g>
			<g id="XMLID_12_">
				<path id="XMLID_370_" class="st1" d="M102.7,96.9c0.2-0.2,0.4-0.5,0.6-0.9c0.2-0.3,0.3-0.7,0.4-1c0.1-0.4,0.3-0.7,0.4-1.1h0.3
					c-0.1,0.5-0.3,1-0.5,1.5c-0.2,0.4-0.4,0.8-0.6,1.2c-0.3,0.4-0.6,0.8-0.9,1c-0.3,0.3-0.7,0.4-1.1,0.5c-0.4,0.1-0.7,0.1-1.1,0.1
					c-0.4,0-0.8-0.1-1.2-0.2c-0.3-0.1-0.6-0.2-0.9-0.4c-0.3-0.2-0.5-0.4-0.7-0.7c-0.2-0.3-0.3-0.6-0.4-1.1c-0.1-0.4,0-0.9,0.1-1.5
					c0.2-1.1,0.6-1.9,1-2.4c0.5-0.5,0.9-0.8,1.4-1c0.5-0.2,1.1-0.3,1.7-0.2c0.2,0.1,0.4,0.2,0.5,0.3c0.1,0.1,0.2,0.3,0.3,0.5
					s0.1,0.5,0.1,0.9v0c0,0.1,0,0.1,0,0.3c0,0.1,0,0.2-0.1,0.3l-0.1,0.3c0,0.1-0.1,0.2-0.2,0.4c-0.2,0.3-0.4,0.6-0.7,0.8
					c-0.3,0.2-0.6,0.4-1,0.5c-0.3,0.1-0.6,0.1-0.8,0.2c0,0.1,0,0.2,0,0.3c0,0.5,0,0.8,0.1,1.1c0.1,0.3,0.3,0.5,0.5,0.6h0
					c0,0,0.1,0.1,0.1,0.1c0.4,0.2,0.8,0.3,1.2,0.2c0.4-0.1,0.6-0.2,0.9-0.4h0C102.5,97.1,102.7,97,102.7,96.9z M101.2,91.6
					c-0.1,0-0.3,0-0.5,0.2c-0.2,0.2-0.3,0.4-0.5,0.7c-0.2,0.3-0.3,0.7-0.4,1.1c-0.1,0.4-0.2,0.8-0.3,1.2c0.3-0.1,0.6-0.3,0.8-0.5
					c0.2-0.2,0.3-0.3,0.4-0.5s0.2-0.3,0.3-0.5c0-0.1,0.1-0.1,0.1-0.2s0.1-0.1,0.1-0.1c0.1-0.3,0.2-0.6,0.2-0.9
					C101.5,91.8,101.4,91.6,101.2,91.6z"/>
			</g>
		</g>
		<g id="XMLID_322_">
			<g id="XMLID_361_">
				<g id="XMLID_25_">
					<path id="XMLID_367_" class="st2" d="M103.6,180.2c-12.1,0-12.4-11.8-12.4-11.9c0.7-10.4,9.2-11.8,11.4-12
						c1.3-10.9,10-11.5,11.7-11.5c0.2,0,0.2,0,0.2,0c5.9,0,10,4.7,11.4,6.6c4.4-6.4,10.8-6.6,11.5-6.6l0.1,0
						c10.6,0.8,11.8,9.2,11.9,11.4c3.6,0.1,6.4,1.2,8.4,3.4c3.3,3.5,3.1,8.5,3.1,8.7c-0.9,10.7-8.9,11.9-12.3,11.9
						c-1.5,0-2.5-0.2-2.5-0.2c-6.3-1.2-12.9-1.9-19.7-1.9c-12.3,0-21.1,2-21.2,2.1C104.6,180.1,104.1,180.2,103.6,180.2
						C103.6,180.2,103.6,180.2,103.6,180.2z"/>
				</g>
				<g id="XMLID_20_">
					<path id="XMLID_363_" class="st3" d="M114.3,145.3c0.1,0,0.2,0,0.2,0c6.9,0,11.4,7,11.4,7c4.2-6.8,10.7-7,11.5-7
						c0,0,0.1,0,0.1,0c11.8,0.9,11.4,11.4,11.4,11.4c12.1,0.1,11.4,11.4,11.4,11.4c-0.8,10-7.9,11.3-11.7,11.3
						c-1.4,0-2.4-0.2-2.4-0.2c-7.1-1.4-13.9-1.9-19.8-1.9c-12.5,0-21.3,2.1-21.3,2.1c-0.6,0-1.1,0.1-1.6,0.1
						c-11.7,0-11.8-11.3-11.8-11.3c0.8-11.4,11.3-11.5,11.3-11.5C104.2,145.8,112.8,145.3,114.3,145.3 M114.3,144.2
						c-1.1,0-10.6,0.3-12.2,11.5c-4.2,0.4-10.8,3.4-11.4,12.5l0,0l0,0c0,0.1,0.2,12.5,12.9,12.5c0.5,0,1.1,0,1.7-0.1l0.1,0l0.1,0
						c0.1,0,8.9-2.1,21.1-2.1c6.8,0,13.4,0.6,19.6,1.9c0,0,1.1,0.2,2.6,0.2c3.5,0,11.9-1.2,12.8-12.4c0-0.3,0.3-5.4-3.2-9.1
						c-2-2.1-4.8-3.3-8.3-3.5c-0.3-2.9-2.1-10.6-12.4-11.4l0,0l0,0l-0.1,0c-0.7,0-7,0.2-11.5,6.2c-1.8-2.1-5.8-6.1-11.4-6.2
						C114.5,144.2,114.4,144.2,114.3,144.2L114.3,144.2z"/>
				</g>
			</g>
			<g id="XMLID_348_">
				<g id="XMLID_359_">
					<path id="XMLID_77_" class="st4" d="M115,168.1c-4,0-7.3-2.7-7.3-6.1c0-0.3,0.3-0.6,0.6-0.6s0.6,0.3,0.6,0.6c0,2.7,2.8,5,6.2,5
						c3.4,0,6.2-2.2,6.2-5c0-0.3,0.3-0.6,0.6-0.6s0.6,0.3,0.6,0.6C122.3,165.3,119.1,168.1,115,168.1z"/>
				</g>
				<g id="XMLID_357_">
					<path id="XMLID_76_" class="st4" d="M106.2,164.2c-0.2,0-0.4-0.1-0.5-0.4c-0.1-0.3,0-0.6,0.3-0.7l2.1-0.8
						c0.3-0.1,0.6,0,0.7,0.3s0,0.6-0.3,0.7l-2.1,0.8C106.4,164.2,106.3,164.2,106.2,164.2z"/>
				</g>
				<g id="XMLID_355_">
					<path id="XMLID_75_" class="st4" d="M114.4,170.1c-0.3,0-0.6-0.3-0.6-0.6v-2c0-0.3,0.3-0.6,0.6-0.6s0.6,0.3,0.6,0.6v2
						C115,169.8,114.7,170.1,114.4,170.1z"/>
				</g>
				<g id="XMLID_353_">
					<path id="XMLID_74_" class="st4" d="M123.9,164.4c-0.1,0-0.1,0-0.2,0l-2.2-0.9c-0.3-0.1-0.4-0.4-0.3-0.7s0.4-0.4,0.7-0.3
						l2.2,0.9c0.3,0.1,0.4,0.4,0.3,0.7C124.3,164.2,124.1,164.4,123.9,164.4z"/>
				</g>
				<g id="XMLID_351_">
					<path id="XMLID_73_" class="st4" d="M120.4,168.5c-0.2,0-0.3-0.1-0.5-0.2l-1.2-1.6c-0.2-0.2-0.1-0.6,0.1-0.8
						c0.2-0.2,0.6-0.1,0.8,0.1l1.2,1.6c0.2,0.2,0.1,0.6-0.1,0.8C120.6,168.4,120.5,168.5,120.4,168.5z"/>
				</g>
				<g id="XMLID_349_">
					<path id="XMLID_72_" class="st4" d="M108.9,168c-0.1,0-0.2,0-0.3-0.1c-0.2-0.2-0.3-0.5-0.1-0.8l1.3-1.6
						c0.2-0.2,0.5-0.3,0.8-0.1s0.3,0.5,0.1,0.8l-1.3,1.6C109.2,167.9,109.1,168,108.9,168z"/>
				</g>
			</g>
			<g id="XMLID_335_">
				<g id="XMLID_346_">
					<path id="XMLID_70_" class="st4" d="M138.1,168.1c-4,0-7.3-2.7-7.3-6.1c0-0.3,0.3-0.6,0.6-0.6s0.6,0.3,0.6,0.6
						c0,2.7,2.8,5,6.2,5c3.4,0,6.2-2.2,6.2-5c0-0.3,0.3-0.6,0.6-0.6s0.6,0.3,0.6,0.6C145.4,165.3,142.1,168.1,138.1,168.1z"/>
				</g>
				<g id="XMLID_344_">
					<path id="XMLID_33_" class="st4" d="M129.3,164.2c-0.2,0-0.4-0.1-0.5-0.4c-0.1-0.3,0-0.6,0.3-0.7l2.1-0.8
						c0.3-0.1,0.6,0,0.7,0.3s0,0.6-0.3,0.7l-2.1,0.8C129.4,164.2,129.4,164.2,129.3,164.2z"/>
				</g>
				<g id="XMLID_342_">
					<path id="XMLID_32_" class="st4" d="M137.5,170.1c-0.3,0-0.6-0.3-0.6-0.6v-2c0-0.3,0.3-0.6,0.6-0.6s0.6,0.3,0.6,0.6v2
						C138.1,169.8,137.8,170.1,137.5,170.1z"/>
				</g>
				<g id="XMLID_340_">
					<path id="XMLID_31_" class="st4" d="M147,164.4c-0.1,0-0.1,0-0.2,0l-2.2-0.9c-0.3-0.1-0.4-0.4-0.3-0.7s0.4-0.4,0.7-0.3l2.2,0.9
						c0.3,0.1,0.4,0.4,0.3,0.7C147.4,164.2,147.2,164.4,147,164.4z"/>
				</g>
				<g id="XMLID_338_">
					<path id="XMLID_30_" class="st4" d="M143.5,168.5c-0.2,0-0.3-0.1-0.5-0.2l-1.2-1.6c-0.2-0.2-0.1-0.6,0.1-0.8s0.6-0.1,0.8,0.1
						l1.2,1.6c0.2,0.2,0.1,0.6-0.1,0.8C143.7,168.4,143.6,168.5,143.5,168.5z"/>
				</g>
				<g id="XMLID_336_">
					<path id="XMLID_29_" class="st4" d="M132,168c-0.1,0-0.2,0-0.3-0.1c-0.2-0.2-0.3-0.5-0.1-0.8l1.3-1.6c0.2-0.2,0.5-0.3,0.8-0.1
						c0.2,0.2,0.3,0.5,0.1,0.8l-1.3,1.6C132.3,167.9,132.1,168,132,168z"/>
				</g>
			</g>
			<g id="XMLID_333_">
				<circle id="XMLID_334_" class="st5" cx="110.4" cy="172" r="0.9"/>
			</g>
			<g id="XMLID_331_">
				<circle id="XMLID_332_" class="st5" cx="103.6" cy="171.3" r="0.9"/>
			</g>
			<g id="XMLID_329_">
				<circle id="XMLID_330_" class="st5" cx="106.2" cy="175" r="0.9"/>
			</g>
			<g id="XMLID_327_">
				<circle id="XMLID_328_" class="st5" cx="143.2" cy="172" r="0.9"/>
			</g>
			<g id="XMLID_325_">
				<circle id="XMLID_326_" class="st5" cx="150" cy="171.3" r="0.9"/>
			</g>
			<g id="XMLID_323_">
				<circle id="XMLID_324_" class="st5" cx="147.4" cy="175" r="0.9"/>
			</g>
		</g>
		<g id="XMLID_39_">
			<g id="XMLID_40_">
				<path id="XMLID_318_" class="st6" d="M79.5,120c0.3,0.1,0.5,0.2,0.7,0.5s0.2,0.5,0.1,0.8c0,0-0.1,0.5-0.3,1.5
					c-0.2,1-0.5,2.3-0.9,3.9c-0.4,1.6-0.9,3.4-1.5,5.4c-0.6,2-1.3,4.1-2,6.2c-0.9,2.5-1.8,4.8-2.8,6.7s-1.9,3.7-2.8,5.1
					c-2.6,3.8-5.3,5.8-8.1,5.8c-1.3,0-2.4-0.5-3.2-1.4c-0.8-1-1.3-2.3-1.6-4.2c-0.3-1.8-0.3-4.2-0.1-7.2c0.2-2.5,0.5-5.2,0.9-8.1
					s0.9-5.9,1.4-8.9c0.5-3.1,1-6.1,1.4-9.1c0.4-3,0.7-5.8,0.9-8.4c0.3-5.5-0.1-9-1.4-10.4c-0.5-0.6-1.1-0.9-1.9-0.9
					c-0.2,0-0.5,0.1-0.8,0.2c-0.3,0.1-0.7,0.4-1.2,0.8c-0.5,0.4-1,1-1.6,1.8c-0.6,0.8-1.2,1.8-1.9,3.1c-0.9,1.7-1.9,3.7-2.8,6
					c-1,2.3-2,5-3,7.9c-0.9,2.5-1.7,5-2.4,7.4c-0.7,2.4-1.3,4.6-1.9,6.5c-0.5,1.9-1,3.5-1.3,4.7c-0.3,1.2-0.5,1.8-0.5,1.8
					c-0.1,0.4-0.5,0.8-1.2,1.1c-0.7,0.3-1.5,0.4-2.4,0.4c-0.8,0-1.6-0.1-2.2-0.4c-0.6-0.3-0.9-0.8-0.8-1.5c0.1-0.7,0.2-1.5,0.4-2.4
					s0.3-1.8,0.5-2.9c0.3-1.6,0.6-3.5,1-5.5c0.4-2,0.7-4,1-6.2c0.3-2.1,0.5-4.3,0.7-6.5c0.2-2.2,0.3-4.3,0.2-6.4c0-2-0.2-4-0.5-5.8
					c-0.3-1.8-0.8-3.5-1.4-5c-0.8-1.8-1.9-3.1-3.2-3.9c-1.3-0.8-2.7-1.2-4.2-1.2c-1.5,0-2.9,0.4-4.4,1.1c-1.4,0.7-2.6,1.7-3.6,2.9
					c0.5,0.1,1,0.3,1.5,0.4c0.5,0.2,0.9,0.4,1.4,0.6c1.5,0.8,2.9,2,4.1,3.5c1,1.4,1.8,2.9,2.5,4.6c0.5,1.6,0.8,3.3,0.8,5
					c0,2.4-0.6,4.5-1.8,6.1c-1.4,1.8-3.3,2.7-5.9,2.7c-3.2,0-5.7-1.1-7.5-3.3c-1.6-1.9-2.4-4.4-2.4-7.5c0-1.6,0.2-3.2,0.7-4.8
					c0.5-1.6,1.1-3.1,1.9-4.6c-0.7-0.1-1.4-0.2-2.1-0.1c-0.7,0.1-1.3,0.3-1.9,0.6c-0.6,0.3-1.2,0.6-1.8,1c-0.6,0.4-1.2,0.8-1.7,1.3
					c0.6,2.2,0.9,4.5,0.9,6.8c0,2.8-0.5,5-1.4,6.6c-0.9,1.6-2.1,2.4-3.7,2.4c-0.9,0-1.6-0.2-2.1-0.5c-0.5-0.3-0.9-0.6-1.2-1
					c-0.7-0.9-1-2-1-3.3c0-1.6,0.5-3.4,1.4-5.4c0.9-1.9,2.1-3.7,3.7-5.4c0.3-0.3,0.6-0.6,0.9-0.9C6.2,100,6.1,99.8,6,99.5
					c-0.1-0.2-0.2-0.5-0.3-0.7c-0.2-0.5-0.5-1-0.8-1.4c-0.3-0.5-0.6-0.9-1-1.3c-0.4-0.4-0.8-0.7-1.3-1c-0.5-0.3-1-0.4-1.5-0.4
					c-0.3,0-0.5-0.1-0.8-0.3C0.1,94.2,0,94,0,93.7c0-0.3,0.1-0.5,0.3-0.8c0.2-0.2,0.5-0.3,0.8-0.3c1.4,0,2.7,0.5,3.9,1.6
					c1,0.9,1.9,2.1,2.6,3.7c0.1,0.2,0.3,0.5,0.4,0.9c1.6-1.2,3.2-2.1,4.9-2.7c1.6-0.6,3.5-0.9,5.5-1c0,0,0-0.1,0.1-0.1
					c0.8-1,1.7-1.9,2.6-2.6c0.9-0.7,2-1.4,3-1.9c2.4-1.2,5-1.8,7.7-1.8c3.9,0,7,1.3,9.2,4c1.6,2,2.8,4.7,3.4,8.2
					c0.5,2.9,0.7,6.4,0.5,10.4c-0.1,2.3-0.3,4.6-0.7,6.9l0.7-2c1.1-3,2.1-5.7,3.1-8.1c1-2.4,2-4.4,2.9-6.2c0.5-1,1.2-2.1,2-3.2
					c0.8-1.1,1.7-2,2.8-2.8s2.2-1.2,3.5-1.5c1.3-0.2,2.8,0,4.4,0.8c0.6,0.3,1.2,0.7,1.6,1.1c0.5,0.5,0.8,1,1.2,1.5
					c0.3,0.6,0.6,1.1,0.8,1.7c0.2,0.6,0.4,1.1,0.5,1.6c0.4,1.6,0.6,3.4,0.6,5.5c0,2-0.1,4.2-0.3,6.5c-0.2,2.3-0.6,4.7-1,7.2
					c-0.4,2.5-0.8,5-1.3,7.4c-0.5,3-1,5.8-1.4,8.5c-0.4,2.7-0.7,5.2-0.8,7.5c-0.1,1.7-0.1,3.2,0,4.5c0.1,1.3,0.3,2.2,0.7,2.7
					c0.4,0.5,0.9,0.7,1.5,0.4c0.6-0.3,1.4-1.2,2.4-2.6c1.9-2.8,3.7-6.6,5.4-11.3c0.7-2.1,1.4-4.1,2-6.1c0.6-2,1.1-3.8,1.5-5.3
					c0.4-1.6,0.7-2.8,0.9-3.8s0.3-1.5,0.3-1.5c0.1-0.3,0.2-0.5,0.5-0.7C78.9,120,79.2,119.9,79.5,120z M6.7,112.9
					c0.6-1.4,0.9-3.1,0.9-5.2c0-1.6-0.2-3.3-0.6-5c-1.3,1.5-2.4,3-3.2,4.7s-1.2,3.2-1.2,4.6c0,0.8,0.2,1.5,0.5,2
					c0.3,0.4,0.9,0.6,1.6,0.6S6.1,114.1,6.7,112.9z M17.9,113.6c1.1,1.4,2,2,3,2c0.9,0,1.7-0.5,2.3-1.3c0.6-0.8,1-1.9,1.3-3.2
					c0.3-1.3,0.3-2.5,0.1-3.7c-0.1-0.8-0.4-1.7-0.7-2.5c-0.3-0.9-0.7-1.7-1.3-2.4c-0.5-0.8-1.1-1.5-1.8-2.1
					c-0.7-0.6-1.5-1.2-2.3-1.6c-0.8,1.4-1.4,2.8-1.9,4.3c-0.4,1.5-0.7,3-0.7,4.4C15.9,110.1,16.6,112.1,17.9,113.6z"/>
			</g>
			<g id="XMLID_44_">
				<path id="XMLID_315_" class="st6" d="M105.7,119.9c0.3,0.1,0.5,0.2,0.7,0.5c0.2,0.3,0.2,0.5,0.2,0.8c-0.3,1.5-0.6,2.9-0.9,4.1
					c-0.3,1.2-0.6,2.6-1.1,4.1c-0.4,1.5-0.9,3.1-1.5,4.7c-1.2,3.7-2.5,6.7-3.9,8.9c-0.3,0.5-0.6,0.9-1,1.4c-0.4,0.5-0.8,0.9-1.3,1.3
					c-0.5,0.4-0.9,0.7-1.5,0.9c-0.5,0.2-1,0.4-1.6,0.4c-0.3,0-0.4,0-0.5-0.1c-1.2-0.1-2.1-0.7-2.8-1.8c-0.9-1.4-1.4-3.5-1.4-6.5
					c0-1,0-2.1,0.1-3.2c0.1-1.2,0.2-2.4,0.4-3.8c-2.7,5.8-5.6,8.7-8.7,8.7c-0.3,0-0.5,0-0.7-0.1c-0.7-0.1-1.3-0.3-1.8-0.7
					s-1-0.8-1.3-1.4c-1.3-2.2-1.4-5.8-0.4-10.9c0.2-0.9,0.4-1.8,0.6-2.8c0.2-0.9,0.4-1.8,0.6-2.5c0.2-0.8,0.3-1.4,0.5-1.9
					c0.1-0.5,0.2-0.8,0.2-0.8c0.1-0.3,0.3-0.6,0.7-0.8c0.4-0.3,0.9-0.5,1.5-0.6c0.5-0.1,1.1-0.2,1.7-0.2c0.6,0,1.1,0.1,1.6,0.2
					c0.5,0.2,0.8,0.4,1,0.8c0.2,0.4,0.2,0.8,0,1.4c-0.3,1-0.5,1.9-0.7,2.6c-0.2,0.7-0.4,1.6-0.6,2.5c-0.2,0.9-0.4,1.8-0.5,2.7
					c-0.4,2.3-0.6,4.2-0.5,5.5c0.1,1.3,0.4,2.1,0.8,2.3c0.4,0.2,1-0.1,1.8-1.1s1.6-2.5,2.6-4.6c0.5-1.1,1-2.3,1.4-3.4
					c0.4-1.1,0.7-2.1,1-3c0.3-0.9,0.6-1.9,0.9-3c0.1-0.4,0.4-0.8,0.8-1.2c0.4-0.3,0.9-0.6,1.5-0.7c0.6-0.2,1.2-0.2,1.8-0.2
					c0.6,0,1.1,0.1,1.6,0.3c0.5,0.2,0.8,0.5,1.1,0.9c0.3,0.4,0.3,0.9,0.2,1.5c-0.3,1.1-0.5,2.2-0.7,3.1c-0.2,0.9-0.4,2-0.6,3.2
					c-0.2,1.2-0.4,2.4-0.5,3.8c-0.2,1.5-0.3,3.1-0.3,4.5c0,1.5,0,2.8,0.1,3.9c0.1,1.1,0.2,1.8,0.5,2c0.3,0.2,0.5,0.2,0.9-0.2
					c0.3-0.3,0.7-0.9,1.1-1.6c0.4-0.8,0.7-1.5,1.1-2.4c0.3-0.8,0.6-1.6,0.9-2.4c0.3-0.7,0.5-1.3,0.6-1.6c0.5-1.5,1-3.1,1.4-4.6
					c0.4-1.5,0.8-2.9,1.1-4.1c0.3-1.2,0.6-2.6,0.9-4.1c0.1-0.3,0.2-0.5,0.5-0.7C105.1,119.9,105.4,119.9,105.7,119.9z"/>
			</g>
			<g id="XMLID_46_">
				<path id="XMLID_311_" class="st6" d="M135.3,120c0.3,0.1,0.5,0.2,0.6,0.5c0.1,0.3,0.2,0.6,0.1,0.8c-0.7,2.3-2.3,4.2-4.7,5.8
					c-0.6,0.4-1.3,0.8-2,1.1c-0.7,0.3-1.4,0.7-2.2,1c-0.1,2-0.3,4-0.7,5.9c-0.4,2-0.9,3.7-1.5,5.3c-0.7,1.8-1.6,3.3-2.6,4.3
					c-1.2,1.3-2.5,1.9-4,1.9c-1.1,0-2.1-0.3-3-1s-1.7-1.5-2.2-2.5c-0.7-1.2-1.1-2.6-1-4.1c0.1-1.7,0.6-3.4,1.6-5
					c0.7-1.1,1.7-2.1,2.8-2.8c1.2-0.7,2.4-1.4,3.8-1.9V129c0-0.5,0-1.3-0.1-2.2c-0.1-0.9-0.2-1.9-0.3-2.9s-0.4-2-0.6-2.9
					s-0.6-1.6-1-2.1c-0.4-0.5-0.8-0.7-1.4-0.7c-0.5,0.1-1.1,0.6-1.8,1.5c-0.6,0.8-1.2,1.8-1.8,3c-0.6,1.2-1.2,2.5-1.7,4
					c-0.5,1.3-0.9,2.5-1.2,3.7c-0.3,1.2-0.6,2.3-0.8,3.3c-0.2,1-0.4,1.8-0.5,2.4c-0.1,0.6-0.2,0.9-0.2,1c-0.1,0.4-0.5,0.7-1.2,1
					c-0.7,0.3-1.5,0.5-2.3,0.5s-1.6,0-2.2-0.3c-0.6-0.3-0.9-0.7-0.8-1.5l4.7-39.7c0-0.3,0.4-0.6,1.2-0.9c0.7-0.3,1.5-0.6,2.4-0.7
					s1.6-0.1,2.2,0.2c0.7,0.2,0.9,0.8,0.8,1.6l-3.8,28.3c2.7-7.2,6-10.9,9.7-10.9c0.4,0,0.9,0.1,1.4,0.2s1,0.4,1.5,0.7
					c0.5,0.3,1,0.8,1.5,1.4c0.5,0.6,1,1.3,1.4,2.2c0.5,1.2,0.9,2.5,1.2,3.9c0.2,1.4,0.4,2.7,0.4,3.9c1.6-0.7,3-1.5,4.2-2.4
					c1.2-0.9,2.1-2.2,2.5-3.7c0.1-0.3,0.2-0.5,0.5-0.6C134.7,120,135,119.9,135.3,120z M115.7,135.2c-0.5,0.8-0.9,1.6-1,2.3
					c-0.2,0.7-0.3,1.4-0.3,1.9c0,0.6,0.1,1.1,0.2,1.5c0.1,0.4,0.3,0.8,0.4,1.1c0.4,0.7,0.8,1,1.2,0.9c0.4-0.1,0.8-0.4,1.1-0.8
					s0.6-1.1,0.9-1.9c0.3-0.8,0.5-1.5,0.7-2.1c0.3-1,0.6-2,0.8-3.1c0.2-1.1,0.4-2.2,0.5-3.4c-1,0.4-1.9,0.9-2.7,1.5
					S116.2,134.5,115.7,135.2z"/>
			</g>
			<g id="XMLID_49_">
				<path id="XMLID_307_" class="st6" d="M154.1,120.1c0.3,0.1,0.5,0.4,0.6,0.6c0.1,0.3,0.1,0.6-0.1,0.8c-1.2,2.6-2.5,5-3.6,7.1
					c-1.2,2.1-2.4,3.9-3.5,5.4c-0.7,1-1.5,1.8-2.2,2.6c-0.7,0.8-1.4,1.4-2.2,1.9c-1.7,1.3-3.3,1.9-4.9,1.9c-0.4,0-0.8-0.1-1.3-0.2
					c-0.5-0.1-1-0.4-1.5-0.8c-0.5-0.4-1-1-1.5-1.8c-0.5-0.8-0.8-1.8-1.2-3.1c-0.4-1.8-0.6-3.8-0.6-6c0-2.2,0.3-4.4,0.7-6.6
					c0.1-0.7,0.4-1.5,0.7-2.4c0.3-0.9,0.7-1.8,1.1-2.7c0.4-0.9,1-1.8,1.6-2.5c0.6-0.8,1.4-1.4,2.2-1.8c1.1-0.6,2.1-0.9,3-0.9
					s1.8,0.2,2.5,0.7c1.3,0.8,1.9,1.9,1.8,3.5c-0.1,1.4-0.6,2.7-1.6,4c-0.3,0.3-0.6,0.7-1,1.1s-0.9,0.9-1.4,1.3
					c-0.5,0.4-1,0.7-1.6,1c-0.5,0.3-1,0.5-1.5,0.5c-0.1,0.5-0.1,1.1-0.2,1.6c-0.1,0.6-0.1,1.1-0.2,1.7c-0.2,2.6,0,5,0.5,7
					c0.1,0.5,0.3,1.1,0.5,1.6c0.2,0.5,0.4,1,0.6,1.3c0.3,0.3,0.5,0.5,0.9,0.6s0.7-0.1,1.2-0.5c0.6-0.5,1.3-1,1.9-1.7
					c0.6-0.7,1.3-1.5,2-2.3c2.2-3,4.5-7,7-12.1c0.1-0.3,0.4-0.5,0.6-0.6C153.5,119.9,153.8,119.9,154.1,120.1z M143.5,115.6
					c0.1-0.5,0-0.8-0.2-0.8c-0.2,0-0.5,0.1-0.8,0.4c-0.3,0.3-0.6,0.6-1,1s-0.6,0.7-0.7,1c-0.6,1.1-1.2,2.3-1.6,3.8
					c1.5-0.9,2.6-1.9,3.2-2.8C143.1,117.1,143.4,116.3,143.5,115.6z"/>
			</g>
			<g id="XMLID_52_">
				<path id="XMLID_302_" class="st6" d="M177.2,120c0.7,0.3,0.9,0.7,0.7,1.4c-0.4,1.2-1,2.3-1.7,3.3c-0.7,1-1.5,2-2.4,2.9
					c-0.9,0.9-1.9,1.8-2.9,2.7c-1,0.9-2.1,1.7-3.2,2.5c0.2,0.2,0.3,0.4,0.5,0.7c0.1,0.2,0.3,0.4,0.4,0.7c1.8,3.1,2.6,6.4,2.3,9.9
					c-0.2,2.8-1.2,5.3-2.8,7.4c-1.4,1.9-3.2,3.4-5.4,4.4c-1.8,0.8-3.5,1.3-5.2,1.3c-0.8,0-1.5-0.1-2.2-0.3c-0.7-0.2-1.3-0.5-1.9-0.9
					c-0.9-0.6-1.6-1.4-2-2.4c-0.4-1.1-0.6-2.2-0.5-3.6c0.1-1.6,0.5-3.1,1.2-4.5c0.6-1.4,1.4-2.7,2.3-3.9c0.9-1.2,2-2.4,3.2-3.5
					c1.2-1.1,2.4-2.1,3.8-3.2c-1.7-1.9-3.4-3.7-5.2-5.5c-1.8-1.8-3.4-3.6-4.8-5.7c-1.4-2-2.5-4.3-3.3-6.9s-1.1-5.6-0.8-9.2
					c0.2-1.8,0.8-3.5,1.8-5.3c1-1.7,2.4-3,4.1-3.8c2.2-0.9,4.1-0.7,5.9,0.7c2.3,1.5,3,4.6,2.1,9.2c-0.4,2-1,4.1-1.8,6.2
					s-1.6,3.9-2.4,5.4c0.7,1,1.4,1.9,2.1,2.8c0.8,0.9,1.6,1.8,2.4,2.7c0.8,0.9,1.7,1.8,2.5,2.7c0.8,0.9,1.7,1.8,2.5,2.8
					c2.1-1.6,4-3.2,5.7-4.9c1.7-1.6,2.9-3.5,3.7-5.6c0.1-0.3,0.2-0.5,0.5-0.6C176.7,119.9,176.9,119.9,177.2,120z M153.2,150.2
					c-0.1,1.1,0.1,2,0.4,2.8c0.4,0.8,1,1.3,2,1.5c1,0.1,2-0.1,3-0.6c1-0.5,1.9-1.3,2.7-2.3c0.8-1,1.5-2.1,2-3.5
					c0.5-1.3,0.8-2.7,1-4.2c0.1-1.4,0-2.7-0.3-3.9c-0.3-1.2-0.8-2.2-1.4-3.3c-1.2,1-2.4,1.9-3.5,2.9c-1.1,1-2.1,2-2.9,3.1
					s-1.5,2.2-2.1,3.5C153.7,147.5,153.3,148.8,153.2,150.2z M159,108.1c0.3-1.4,0.3-2.5,0.2-3.5c-0.1-1-0.3-1.7-0.7-2.2
					c-0.3-0.5-0.8-0.8-1.2-0.9c-0.5-0.1-0.9,0.1-1.4,0.5s-0.9,1.1-1.3,2.1c-0.4,1-0.6,2.2-0.8,3.8c-0.2,2-0.1,3.8,0.2,5.3
					c0.3,1.6,0.8,3.1,1.5,4.5c0.7-1.4,1.3-2.9,1.9-4.6C158.2,111.4,158.7,109.7,159,108.1z"/>
			</g>
		</g>
		<g id="XMLID_269_">
			<g id="XMLID_1_">
				<g id="XMLID_2_">
					<path id="XMLID_296_" class="st7" d="M63,51.4c0.7,0.4,1.1,1,1,1.7c0,0.2-0.1,0.4-0.2,0.5c-0.2,0.2-0.3,0.2-0.6,0.2
						c-0.2,0-0.4-0.1-0.6-0.3c-0.2-0.2-0.2-0.3-0.2-0.6c0-0.1-0.1-0.2-0.3-0.3c-0.4-0.3-1-0.4-1.8-0.5c-0.8-0.1-1.6,0-2.5,0.2
						c0.1,0.4,0.2,0.7,0.2,1.1s0.1,0.8,0.1,1.2c0,1-0.1,1.9-0.5,2.7c-0.4,0.8-0.9,1.4-1.5,1.8c-1,0.6-1.9,0.6-2.8,0.1
						c-1-0.6-1.5-1.6-1.4-3.1c0-1,0.3-1.9,0.9-2.7c0.5-0.7,1.2-1.3,2.1-1.7c0.2-0.1,0.3-0.2,0.5-0.3c0.2-0.1,0.3-0.1,0.5-0.2
						c-0.3-1-0.9-1.8-1.6-2.4c-0.8-0.6-1.6-1-2.5-1.1c-0.9-0.2-1.8-0.1-2.8,0.2c-0.9,0.3-1.7,0.8-2.4,1.5c-1.4,1.6-2.1,3.8-2.2,6.5
						c0,1.2,0.1,2.2,0.5,3c0.4,0.8,0.9,1.6,1.6,2.2c0.7,0.6,1.5,1.2,2.4,1.8c0.9,0.5,1.9,1,2.9,1.6c1.1,0.6,2.3,1.2,3.4,1.9
						c1.2,0.7,2.2,1.5,3.1,2.4c0.9,0.9,1.6,2.1,2.2,3.4c0.5,1.3,0.8,2.9,0.7,4.7c0,2.1-0.8,4.1-2.2,6c-1.2,1.6-2.9,2.9-5,4
						c-1.1,0.6-2.4,1.1-3.9,1.5c-1.5,0.4-2.9,0.7-4.5,0.8c-1.5,0.1-3,0-4.5-0.3c-1.5-0.3-2.8-0.8-4-1.6c-2.3-1.5-3.4-3.8-3.3-6.7
						c0.2-2.9,1.1-5.1,2.8-6.7c0.7-0.7,1.5-1.2,2.5-1.5c0.9-0.3,1.9-0.5,2.8-0.5c0.3,0,0.6,0.1,0.8,0.1c0.3,0,0.5,0.1,0.8,0.2
						c0,0,0.1,0,0.1-0.1c0.9-0.7,2.1-1.1,3.4-1.3c0.5-0.1,1-0.1,1.5-0.1c0.5,0,1,0.1,1.4,0.2c0.2,0.1,0.4,0.2,0.5,0.4
						c0.1,0.2,0.1,0.4,0.1,0.6c-0.1,0.2-0.2,0.4-0.4,0.5c-0.2,0.1-0.4,0.1-0.6,0.1c-0.5-0.1-1.2-0.2-2-0.2c-0.8,0-1.6,0.2-2.4,0.6
						c0.2,0.1,0.3,0.2,0.5,0.4c0.1,0.1,0.3,0.2,0.4,0.4c1.2,1.2,1.7,2.8,1.7,4.7c-0.1,0.8-0.2,1.5-0.5,2s-0.7,1-1.3,1.3
						c-0.5,0.3-0.9,0.4-1.4,0.3c-0.5,0-1-0.2-1.5-0.5c-0.6-0.4-1.1-1-1.4-1.7c-0.3-0.7-0.4-1.6-0.4-2.6c0-1.2,0.3-2.2,0.7-3.2
						l0.3-0.6c-0.2,0-0.3,0-0.4,0c-0.7,0-1.4,0.1-2.2,0.3c-0.7,0.3-1.4,0.7-2,1.3s-1.1,1.3-1.5,2.2c-0.4,0.9-0.7,2-0.8,3.3
						c-0.1,2.3,0.7,4.1,2.6,5.3c1.1,0.7,2.3,1.2,3.6,1.4c1.3,0.2,2.7,0.2,4,0c1.4-0.2,2.7-0.6,4-1.2c1.3-0.6,2.4-1.3,3.4-2.2
						c1-0.9,1.8-1.9,2.5-3.1c0.6-1.2,1-2.4,1-3.8c0-1.2-0.2-2.3-0.6-3.2c-0.5-0.9-1.1-1.7-1.8-2.5c-0.8-0.7-1.6-1.4-2.6-2
						s-2-1.2-3-1.8c-1-0.6-2-1.2-3-1.8c-1-0.6-1.8-1.3-2.5-2c-2.3-2.3-3.4-4.9-3.2-7.8c0-1.7,0.4-3.2,1.1-4.6
						c0.7-1.4,1.6-2.6,2.9-3.6c0.8-0.6,1.8-1.2,2.8-1.6c1.1-0.4,2.2-0.6,3.3-0.7c1.1-0.1,2.2,0.1,3.3,0.5c1.1,0.4,2,1,2.8,1.9
						c0.7,0.7,1.2,1.6,1.6,2.7c1.1-0.2,2.1-0.3,3.1-0.2C61.6,50.8,62.4,51,63,51.4z M42.8,77.7c0,0.7,0,1.3,0.2,1.8
						c0.2,0.5,0.5,0.9,0.8,1.1c0.5,0.2,0.9,0.3,1.3,0.1c0.6-0.4,0.9-1,1-2c0-1.1-0.1-2-0.6-2.7c-0.4-0.7-1-1.2-1.7-1.6
						C43.2,75.2,42.9,76.3,42.8,77.7z M56.6,54.8c0-0.7-0.1-1.4-0.2-1.9c-0.3,0.1-0.5,0.2-0.6,0.3c-1.4,0.8-2.2,1.8-2.2,3
						c0,0.8,0.2,1.4,0.6,1.7c0.4,0.2,0.8,0.2,1.2-0.1c0.4-0.3,0.7-0.7,1-1.2C56.6,56.1,56.6,55.5,56.6,54.8z"/>
				</g>
				<g id="XMLID_6_">
					<path id="XMLID_293_" class="st7" d="M83.8,65.9c0.2,0,0.4,0.1,0.6,0.3c0.2,0.2,0.2,0.4,0.2,0.6c-0.1,1.1-0.2,2.1-0.3,3.1
						c-0.1,0.9-0.3,1.9-0.5,3.1c-0.2,1.1-0.4,2.3-0.7,3.5c-0.6,2.8-1.3,5-2.1,6.7c-0.2,0.4-0.4,0.7-0.6,1.1c-0.2,0.4-0.5,0.7-0.8,1
						c-0.3,0.3-0.6,0.6-1,0.8c-0.4,0.2-0.7,0.3-1.1,0.4c-0.2,0-0.3,0-0.4,0c-0.9,0-1.6-0.4-2.2-1.1c-0.8-0.9-1.3-2.5-1.5-4.6
						c-0.1-0.7-0.2-1.5-0.2-2.3c0-0.8,0-1.8,0-2.7c-1.5,4.4-3.4,6.7-5.6,7c-0.2,0-0.4,0-0.5,0c-0.5,0-1-0.1-1.4-0.3
						c-0.4-0.2-0.8-0.5-1.1-0.9c-1.1-1.5-1.5-4.1-1.1-7.8c0.1-0.7,0.1-1.4,0.2-2c0.1-0.7,0.2-1.3,0.3-1.9c0.1-0.6,0.1-1,0.2-1.4
						c0.1-0.4,0.1-0.6,0.1-0.6c0-0.2,0.2-0.4,0.5-0.6c0.3-0.2,0.6-0.4,1-0.5c0.4-0.1,0.8-0.2,1.2-0.3c0.4-0.1,0.8,0,1.1,0
						c0.3,0.1,0.6,0.2,0.8,0.5c0.2,0.2,0.2,0.6,0.1,1c-0.1,0.7-0.2,1.4-0.3,1.9c-0.1,0.6-0.2,1.2-0.3,1.9s-0.2,1.4-0.2,2
						c-0.1,1.7-0.1,3.1,0.1,4c0.2,0.9,0.4,1.5,0.7,1.6c0.3,0.1,0.7-0.2,1.2-0.9c0.5-0.7,1-1.9,1.6-3.5c0.3-0.9,0.5-1.7,0.7-2.6
						c0.2-0.8,0.4-1.6,0.5-2.3c0.1-0.7,0.3-1.4,0.4-2.2c0-0.3,0.2-0.6,0.5-0.9c0.3-0.3,0.6-0.5,1-0.6c0.4-0.2,0.8-0.3,1.3-0.3
						c0.4,0,0.8,0,1.2,0.1c0.4,0.1,0.6,0.3,0.9,0.6c0.2,0.3,0.3,0.6,0.2,1.1c-0.1,0.8-0.2,1.6-0.2,2.3c-0.1,0.7-0.1,1.4-0.2,2.3
						C78,72.9,78,73.8,78,74.8c0,1.1,0,2.2,0.1,3.3c0.1,1.1,0.2,2,0.3,2.8c0.1,0.8,0.3,1.3,0.5,1.4c0.2,0.1,0.4,0.1,0.6-0.2
						c0.2-0.3,0.4-0.7,0.6-1.3c0.2-0.6,0.4-1.2,0.6-1.8c0.2-0.6,0.3-1.2,0.5-1.8c0.1-0.6,0.2-1,0.3-1.2c0.3-1.1,0.5-2.3,0.7-3.4
						c0.2-1.1,0.3-2.1,0.5-3c0.1-0.9,0.2-1.9,0.3-3c0-0.2,0.1-0.4,0.3-0.5C83.4,65.9,83.6,65.9,83.8,65.9z"/>
				</g>
				<g id="XMLID_9_">
					<path id="XMLID_289_" class="st7" d="M97.6,64.5c0.2,0.1,0.4,0.2,0.5,0.4s0.1,0.4,0,0.6c-0.7,2-1.4,3.8-2.1,5.4
						c-0.7,1.6-1.4,3-2.1,4.2c-0.5,0.7-0.9,1.4-1.4,2c-0.5,0.6-0.9,1.1-1.4,1.5c-1.1,1.1-2.2,1.6-3.4,1.8c-0.3,0-0.6,0-1,0
						c-0.4-0.1-0.8-0.2-1.2-0.5c-0.4-0.3-0.8-0.7-1.2-1.2s-0.7-1.2-1.1-2.1c-0.5-1.3-0.8-2.7-0.9-4.3c-0.2-1.6-0.1-3.2,0-4.8
						c0.1-0.5,0.2-1.1,0.3-1.8c0.1-0.7,0.3-1.4,0.6-2.1c0.2-0.7,0.6-1.3,1-2c0.4-0.6,0.9-1.1,1.4-1.5c0.7-0.5,1.4-0.8,2.1-0.9
						c0.7-0.1,1.3,0,1.9,0.3c1,0.5,1.5,1.3,1.5,2.4c0,1-0.2,2-0.9,3c-0.2,0.2-0.4,0.5-0.7,0.9c-0.3,0.3-0.6,0.7-0.9,1
						c-0.3,0.3-0.7,0.6-1.1,0.9c-0.4,0.3-0.7,0.4-1,0.5c0,0.4,0,0.8,0,1.2c0,0.4,0,0.8,0,1.3c0.1,1.9,0.4,3.6,0.9,5
						c0.1,0.4,0.3,0.8,0.5,1.1c0.2,0.4,0.3,0.7,0.6,0.9c0.2,0.2,0.4,0.3,0.7,0.4c0.2,0,0.5-0.1,0.8-0.5c0.4-0.4,0.8-0.9,1.2-1.4
						c0.4-0.5,0.8-1.1,1.3-1.8c1.4-2.3,2.7-5.4,4.1-9.3c0.1-0.2,0.2-0.4,0.4-0.5C97.2,64.5,97.4,64.5,97.6,64.5z M89.7,62.1
						c0-0.4-0.1-0.6-0.2-0.6c-0.1,0-0.3,0.1-0.5,0.3c-0.2,0.2-0.4,0.5-0.6,0.8c-0.2,0.3-0.4,0.6-0.4,0.7c-0.4,0.8-0.7,1.8-0.9,2.9
						c1-0.8,1.7-1.6,2.1-2.3C89.5,63.2,89.7,62.6,89.7,62.1z"/>
				</g>
				<g id="XMLID_18_">
					<path id="XMLID_286_" class="st7" d="M120.2,62.2c0.5,0.1,0.8,0.4,0.7,0.9c0,0,0,0.4-0.1,1c-0.1,0.7-0.2,1.5-0.3,2.6
						c-0.2,1.1-0.3,2.3-0.6,3.7c-0.2,1.4-0.5,2.8-0.8,4.2c-0.8,3.4-1.6,6.2-2.5,8.1c-0.2,0.4-0.4,0.9-0.7,1.4
						c-0.2,0.5-0.5,0.9-0.9,1.4c-0.3,0.4-0.7,0.8-1.2,1.1c-0.4,0.3-0.9,0.5-1.5,0.5c-0.9,0.1-1.6-0.2-2.2-0.7
						c-0.6-0.5-1-1.2-1.3-2.1c-0.3-0.9-0.5-2-0.7-3.2c-0.1-1.2-0.2-2.5-0.2-4c0-1.4,0-2.9,0-4.4c0-1.3,0-2.5,0-3.7
						c0-1.2-0.1-2.3-0.1-3.2c-0.1-1.3-0.3-2.2-0.5-2.7c-0.2-0.5-0.4-0.9-0.5-1c-0.1-0.1-0.3-0.2-0.5-0.1c-0.1,0-0.3,0.1-0.5,0.4
						c-0.3,0.2-0.6,0.8-1,1.8c-0.3,0.6-0.5,1.4-0.8,2.3c-0.3,0.9-0.5,1.9-0.7,3c-0.5,2.4-0.9,4.3-1,5.5c-0.1,1.2-0.2,2-0.3,2.3
						c-0.1,0.4-0.3,0.7-0.8,0.9s-1,0.4-1.6,0.4c-0.6,0-1.1,0-1.6-0.2c-0.5-0.2-0.7-0.5-0.7-0.9l-1-11.9c0-0.4,0.2-0.7,0.7-1
						c0.5-0.3,1-0.5,1.6-0.6c0.6-0.1,1.1-0.1,1.7,0.1c0.5,0.2,0.8,0.5,0.9,1.1l0.4,5.1l0.2-1.2c0.3-1.1,0.5-2.2,0.8-3.1
						c0.3-0.9,0.5-1.7,0.8-2.4c0.2-0.5,0.5-1,0.8-1.5c0.3-0.5,0.7-1,1.2-1.3c0.5-0.4,1-0.7,1.5-0.9c0.6-0.2,1.2-0.2,1.8-0.2
						c0.2,0,0.5,0.1,0.8,0.2c0.3,0.1,0.6,0.3,0.9,0.5c0.3,0.2,0.6,0.6,0.9,1s0.6,0.9,0.8,1.6c0.3,0.8,0.5,2,0.5,3.6
						c0.1,1.6,0.1,3.4,0.1,5.4c0,1.5,0,3,0,4.5s0.1,2.9,0.3,4.1c0.1,0.9,0.2,1.7,0.3,2.3s0.2,1,0.4,1.1c0.2,0.2,0.3,0.1,0.6-0.1
						c0.2-0.3,0.5-0.8,0.9-1.5c0.8-1.9,1.6-4.5,2.4-7.8c0.3-1.4,0.6-2.8,0.8-4.2c0.2-1.4,0.4-2.6,0.6-3.6c0.2-1.1,0.3-2.2,0.5-3.6
						c0-0.2,0.1-0.4,0.3-0.5C119.8,62.2,120,62.2,120.2,62.2z"/>
				</g>
				<g id="XMLID_23_">
					<path id="XMLID_281_" class="st7" d="M139.5,60.4c0.2,0.1,0.3,0.3,0.3,0.5c0,0.2,0,0.4-0.1,0.6c-0.6,0.8-1.3,1.4-2.3,1.9
						c-1,0.5-2.1,0.8-3.4,0.9c-0.2,0-0.5,0-0.7,0.1c-0.2,0-0.5,0-0.7,0c0,1-0.1,2-0.3,3.2c-0.2,1.1-0.5,2.2-1,3.3
						c-0.8,2-2.1,3.3-3.8,3.9l0,0c-0.6,0.2-1.1,0.3-1.6,0.4c-0.8,0.1-1.6,0.1-2.2-0.1c-0.6-0.1-1.2-0.3-1.7-0.6
						c-0.5-0.3-0.9-0.6-1.2-1c-0.3-0.4-0.6-0.7-0.8-1.1c-0.6-1-0.9-2-1-3.1c-0.1-1.1-0.2-2.1-0.1-2.9c0.1-0.9,0.2-1.8,0.4-2.6
						c0.2-0.8,0.4-1.4,0.7-1.8c0.2-0.3,0.5-0.5,0.8-0.6c0.3-0.2,0.7-0.3,1-0.3c0.3-0.1,0.6-0.1,1,0c0.3,0,0.6,0.1,0.8,0.2
						c-0.7-0.6-1.3-1.3-1.8-2.1c-0.5-0.8-0.8-1.5-1-2.3c-0.4-1.4-0.4-2.8,0.1-4.2c0.3-0.9,0.9-1.7,1.6-2.3c0.8-0.6,1.6-0.9,2.6-0.9
						c1.1,0,2.2,0.4,3.1,1.3c0.9,0.7,1.6,1.8,2.3,3.1c0.6,1.2,1.1,2.6,1.5,4.1s0.6,3.1,0.7,4.8c0.2,0,0.4,0,0.7,0
						c0.2,0,0.4,0,0.7-0.1c1.1-0.1,2-0.4,2.8-0.7c0.8-0.4,1.4-0.9,1.8-1.4c0.1-0.2,0.3-0.3,0.5-0.3
						C139.1,60.2,139.3,60.3,139.5,60.4z M130.9,62.7c-0.1-1.5-0.3-2.9-0.7-4.3c-0.3-1.4-0.8-2.6-1.4-3.8c-0.2-0.3-0.4-0.7-0.6-1.1
						c-0.3-0.4-0.6-0.8-0.9-1.1c-0.3-0.4-0.7-0.6-1.1-0.9c-0.4-0.2-0.8-0.4-1.3-0.4l-0.2,0c-0.5,0.1-1,0.3-1.5,0.6
						c-0.4,0.4-0.8,0.9-1,1.5c-0.2,0.4-0.3,0.9-0.3,1.4c0,0.5,0,1.1,0.2,1.7c0.2,0.6,0.5,1.2,0.9,1.8c0.4,0.6,0.9,1.2,1.6,1.8
						c0.8,0.7,1.7,1.3,2.8,1.7C128.5,62.3,129.7,62.6,130.9,62.7z M129.9,70.2c0.3-0.8,0.6-1.7,0.8-2.7c0.2-1,0.3-2.1,0.3-3.2
						c-1.2-0.1-2.3-0.4-3.4-0.8s-2.1-0.9-3-1.5c-0.2,0.3-0.3,0.7-0.5,1.2s-0.3,1.4-0.4,2.5c-0.2,1.9,0,3.6,0.6,4.9
						c0.4,0.8,0.8,1.4,1.3,1.8c0.5,0.4,1.1,0.5,1.6,0.5s1.1-0.3,1.6-0.8C129.2,71.7,129.6,71.1,129.9,70.2z"/>
				</g>
				<g id="XMLID_35_">
					<path id="XMLID_276_" class="st7" d="M155.2,58.5c0.5,0.1,0.7,0.5,0.6,1c-0.2,0.9-0.6,1.7-1,2.5s-0.9,1.6-1.5,2.3
						c-0.6,0.7-1.2,1.5-1.9,2.2c-0.7,0.7-1.4,1.4-2.1,2.1c0.1,0.1,0.3,0.3,0.4,0.4c0.1,0.1,0.2,0.3,0.3,0.4c1.5,2.1,2.3,4.4,2.4,7
						c0.1,2-0.4,3.9-1.5,5.6c-0.9,1.5-2,2.7-3.5,3.6c-1.2,0.7-2.4,1.2-3.6,1.3c-0.6,0.1-1.1,0-1.6-0.1c-0.5-0.1-1-0.3-1.4-0.5
						c-0.7-0.4-1.2-0.9-1.6-1.6c-0.4-0.7-0.6-1.6-0.6-2.5c0-1.2,0.1-2.3,0.5-3.3c0.3-1,0.8-2.1,1.4-3c0.6-1,1.3-1.9,2-2.7
						c0.8-0.9,1.6-1.7,2.5-2.6c-1.4-1.2-2.8-2.4-4.2-3.6c-1.4-1.1-2.7-2.4-3.9-3.7c-1.2-1.4-2.2-2.9-2.9-4.7c-0.8-1.8-1.2-4-1.2-6.6
						c0-1.3,0.3-2.6,0.9-3.9s1.5-2.3,2.7-3c1.5-0.8,2.9-0.8,4.3,0c1.8,0.9,2.5,3.1,2.2,6.5c-0.1,1.5-0.4,3-0.9,4.6
						c-0.4,1.6-0.9,2.9-1.3,4.1c0.5,0.7,1.1,1.3,1.8,1.9c0.6,0.6,1.3,1.2,1.9,1.8c0.7,0.6,1.3,1.2,2,1.7c0.7,0.6,1.3,1.2,2,1.9
						c1.4-1.3,2.7-2.6,3.8-4c1.1-1.3,1.9-2.8,2.3-4.3c0-0.2,0.1-0.4,0.3-0.5C154.8,58.5,155,58.5,155.2,58.5z M141.1,51.3
						c0.1-1,0.1-1.8-0.1-2.5c-0.1-0.7-0.4-1.2-0.6-1.6s-0.6-0.5-1-0.6s-0.7,0.1-1,0.5s-0.5,0.9-0.8,1.6c-0.2,0.7-0.3,1.7-0.3,2.8
						c0,1.4,0.2,2.7,0.6,3.8c0.4,1.1,0.8,2.2,1.4,3.1c0.4-1.1,0.7-2.2,1.1-3.5C140.8,53.7,141,52.5,141.1,51.3z M140.1,82.1
						c0,0.8,0.2,1.4,0.5,2c0.3,0.6,0.9,0.9,1.6,0.9c0.7,0,1.5-0.2,2.1-0.7c0.7-0.5,1.3-1.1,1.8-1.8c0.5-0.8,0.9-1.7,1.2-2.7
						c0.3-1,0.4-2,0.4-3.1c0-1-0.2-2-0.5-2.8c-0.3-0.8-0.7-1.6-1.3-2.3c-0.8,0.8-1.6,1.6-2.3,2.4c-0.7,0.8-1.3,1.6-1.9,2.5
						c-0.5,0.9-0.9,1.7-1.2,2.7C140.2,80.1,140.1,81.1,140.1,82.1z"/>
				</g>
			</g>
			<g id="XMLID_270_">
				<g id="XMLID_17_">
					<path id="XMLID_272_" class="st7" d="M103.4,56.8c0.3,0,0.6,0.1,1.1,0.3c0.4,0.2,0.9,0.3,1.5,0.6c0.6,0.2,1.1,0.4,1.7,0.4
						c0.4,0,0.8,0,1.3-0.1c0.4-0.1,0.8-0.3,1.2-0.6c0.4-0.3,0.7-0.7,1-1.3c0.3-0.6,0.5-1.3,0.7-2.3c0-0.2,0-0.3-0.1-0.4
						c-0.1-0.1-0.3-0.1-0.4-0.1c-0.2,0-0.3,0.1-0.5,0.1c-0.2,0.1-0.3,0.2-0.3,0.4c-0.1,0.5-0.3,0.7-0.7,0.7c-0.4,0-0.9-0.2-1.4-0.4
						c-0.6-0.2-1.2-0.4-1.9-0.7c-0.7-0.2-1.3-0.3-2-0.2c-0.6,0.1-1.2,0.4-1.7,1c-0.5,0.6-0.9,1.6-1.2,3c-0.1,0.2,0,0.4,0.1,0.5
						c0.1,0.1,0.3,0.2,0.5,0.1c0.2,0,0.4-0.1,0.5-0.2c0.2-0.1,0.3-0.3,0.3-0.5C102.9,57,103.1,56.8,103.4,56.8z"/>
				</g>
			</g>
		</g>
	</g>
	<g id="XMLID_79_">
		<path id="XMLID_267_" class="st8" d="M66.6,30.7c0,0,1.9-7.8,3-8.2c1.1-0.4,6,5.3,6,5.3s7.7-3.5,8.6-1.7c0.9,1.8-3,9.4-3,9.4
			s4.8,6.2,4.1,7.6c-0.7,1.5-9.9-0.9-9.9-0.9s-6.1,6.8-7.9,7c-1.8,0.2-1.7-9.7-1.7-9.7s-7.1-4.5-7.1-5.6
			C58.5,32.6,66.6,30.7,66.6,30.7z"/>
		<path id="XMLID_266_" class="st2" d="M69,45.8c-0.2,0.1,0,0.4,0.2,0.3C69.3,46,69.1,45.7,69,45.8z"/>
		<path id="XMLID_265_" class="st2" d="M69.8,46.5c-0.2,0.1,0,0.5,0.2,0.3C70.3,46.7,70,46.4,69.8,46.5z"/>
		<path id="XMLID_264_" class="st2" d="M68.6,42.8c-0.1,0-0.2,0-0.3,0.1c-0.2,0.2,0,0.5,0.3,0.5c0,0,0,0,0.1,0
			c0.1-0.1,0.2-0.2,0.2-0.3C68.9,43,68.8,42.9,68.6,42.8z"/>
		<path id="XMLID_263_" class="st2" d="M68.8,43.9c-0.2,0.1,0,0.5,0.2,0.3C69.2,44.1,69,43.8,68.8,43.9z"/>
		<path id="XMLID_262_" class="st2" d="M70.9,43.6c-0.2,0.1,0,0.5,0.2,0.3C71.4,43.8,71.2,43.5,70.9,43.6z"/>
		<path id="XMLID_261_" class="st2" d="M69.6,44.6C69.6,44.6,69.6,44.6,69.6,44.6c-0.1,0.1,0,0.1,0,0.1c0,0,0,0,0.1,0.1
			c0.1,0.1,0.2-0.1,0.2-0.2l0,0C69.8,44.4,69.7,44.5,69.6,44.6z"/>
		<path id="XMLID_260_" class="st2" d="M70.6,45.2c-0.2,0.1,0,0.4,0.2,0.2C71,45.3,70.8,45.1,70.6,45.2z"/>
		<path id="XMLID_259_" class="st9" d="M68.1,47.4C68,47.4,68.1,47.5,68.1,47.4C68.2,47.4,68.1,47.4,68.1,47.4z"/>
		<path id="XMLID_258_" class="st9" d="M67.7,46.1c-0.1,0.1-0.1,0.2,0,0.3c0.1,0.2,0.4,0.1,0.4-0.1C68.2,46.2,67.9,45.9,67.7,46.1z"
			/>
		<path id="XMLID_257_" class="st9" d="M68.2,47.2c-0.1,0-0.3,0.2-0.2,0.3c0.1,0.1,0.2,0.2,0.3,0.1c0.2,0,0.3-0.2,0.2-0.3
			C68.5,47.2,68.3,47.1,68.2,47.2z"/>
		<path id="XMLID_256_" class="st9" d="M67,45.3c-0.3,0.2,0,0.6,0.3,0.4C67.5,45.6,67.3,45.2,67,45.3z"/>
		<path id="XMLID_255_" class="st9" d="M67.6,44c0,0-0.1-0.1-0.1-0.1c0,0,0,0,0,0c0,0,0,0-0.1,0c-0.4-0.1-0.5,0.5-0.1,0.6
			c0.1,0,0.2,0,0.3,0C67.7,44.4,67.7,44.1,67.6,44z"/>
		<path id="XMLID_254_" class="st9" d="M68.4,44.8c-0.3,0.2,0,0.6,0.3,0.4C68.9,45,68.7,44.6,68.4,44.8z"/>
		<path id="XMLID_253_" class="st9" d="M69.6,44.8c-0.4,0.3,0,0.8,0.4,0.6C70.4,45.2,70,44.6,69.6,44.8z"/>
		<path id="XMLID_252_" class="st9" d="M69.3,43.9C69.3,43.9,69.3,43.9,69.3,43.9c0-0.1,0-0.1,0-0.1c0-0.1-0.1-0.2-0.2-0.2
			c-0.1,0-0.1,0-0.2,0c-0.1,0.1-0.1,0.2-0.1,0.3c0,0,0,0,0,0c0.1,0.1,0.2,0.1,0.4,0.1h0C69.3,44.1,69.3,44,69.3,43.9
			C69.3,44,69.3,44,69.3,43.9C69.3,44,69.3,44,69.3,43.9C69.3,44,69.3,44,69.3,43.9C69.3,44,69.3,44,69.3,43.9
			C69.3,43.9,69.3,43.9,69.3,43.9z"/>
		<path id="XMLID_251_" class="st10" d="M71.8,44.8C71.8,44.8,71.8,44.7,71.8,44.8c0-0.1,0-0.1,0-0.1c0-0.1-0.1-0.2-0.2-0.2
			c-0.1,0-0.1,0-0.2,0c-0.1,0.1-0.1,0.2-0.1,0.3c0,0,0,0,0,0c0.1,0.1,0.2,0.1,0.4,0.1c0,0,0,0,0,0C71.7,44.9,71.7,44.9,71.8,44.8
			C71.8,44.9,71.8,44.9,71.8,44.8L71.8,44.8C71.8,44.9,71.8,44.9,71.8,44.8C71.8,44.8,71.8,44.8,71.8,44.8
			C71.8,44.8,71.8,44.8,71.8,44.8z"/>
		<path id="XMLID_250_" class="st10" d="M69,46.6C69,46.6,69,46.6,69,46.6C69,46.6,69,46.6,69,46.6c0-0.1-0.1-0.2-0.1-0.2
			c0,0-0.1,0-0.1,0c-0.1,0.1-0.1,0.1,0,0.2c0,0,0,0,0,0c0,0.1,0.2,0.1,0.2,0c0,0,0,0,0,0C68.9,46.7,68.9,46.7,69,46.6L69,46.6
			C68.9,46.7,68.9,46.7,69,46.6C68.9,46.7,68.9,46.7,69,46.6C69,46.7,69,46.6,69,46.6C69,46.6,69,46.6,69,46.6z"/>
		<path id="XMLID_249_" class="st2" d="M67.6,43.5C67.6,43.5,67.6,43.5,67.6,43.5C67.6,43.5,67.5,43.5,67.6,43.5
			c-0.1,0-0.1,0-0.1,0.1c-0.3,0.2,0,0.6,0.3,0.4c0,0,0,0,0.1-0.1c0,0,0,0,0,0c0,0,0,0,0,0c0.1-0.1,0.1-0.2,0-0.3
			C67.8,43.5,67.7,43.4,67.6,43.5z"/>
		<path id="XMLID_248_" class="st2" d="M67,44.3C67,44.3,67,44.3,67,44.3c-0.2-0.2-0.6,0-0.5,0.3c0,0,0,0,0,0
			C66.7,45.1,67.4,44.7,67,44.3z"/>
		<path id="XMLID_247_" class="st2" d="M67.5,45c-0.3,0.2,0,0.7,0.3,0.5C68.1,45.2,67.8,44.8,67.5,45z"/>
		<path id="XMLID_246_" class="st2" d="M66.9,46c-0.4,0.2,0,0.8,0.4,0.6C67.6,46.3,67.2,45.8,66.9,46z"/>
		<path id="XMLID_245_" class="st2" d="M67.1,42.3c-0.4,0.2,0,0.8,0.4,0.6C67.9,42.6,67.5,42.1,67.1,42.3z"/>
		<path id="XMLID_244_" class="st11" d="M67.5,43.4c-0.3,0.2,0,0.7,0.3,0.5C68.1,43.7,67.8,43.2,67.5,43.4z"/>
		<path id="XMLID_243_" class="st11" d="M68.1,44.4C68.1,44.4,68.1,44.4,68.1,44.4c-0.3,0.2,0,0.6,0.2,0.4c0,0,0,0,0.1,0
			C68.7,44.6,68.4,44.3,68.1,44.4z"/>
		<path id="XMLID_242_" class="st11" d="M71,44.4C71,44.4,70.9,44.4,71,44.4c-0.3,0.2,0,0.6,0.2,0.4c0,0,0,0,0,0
			C71.5,44.6,71.2,44.2,71,44.4z"/>
		<path id="XMLID_241_" class="st11" d="M69.7,43.6C69.7,43.6,69.7,43.6,69.7,43.6c-0.2,0.1,0,0.4,0.1,0.2c0,0,0,0,0,0
			C70,43.7,69.9,43.5,69.7,43.6z"/>
		<path id="XMLID_240_" class="st11" d="M67.6,47.2C67.6,47.2,67.6,47.2,67.6,47.2c-0.2,0.1,0,0.4,0.1,0.2c0,0,0,0,0,0
			C67.9,47.3,67.7,47.1,67.6,47.2z"/>
		<path id="XMLID_239_" class="st11" d="M66.5,42.3C66.5,42.3,66.5,42.3,66.5,42.3c-0.2,0.1,0,0.4,0.1,0.2c0,0,0,0,0,0
			C66.8,42.4,66.7,42.2,66.5,42.3z"/>
		<path id="XMLID_238_" class="st11" d="M66.5,42.9C66.5,42.9,66.5,43,66.5,42.9c-0.3,0.2,0,0.6,0.2,0.4c0,0,0,0,0.1,0
			C67,43.1,66.8,42.8,66.5,42.9z"/>
		<path id="XMLID_237_" class="st11" d="M69.5,45.7c-0.1,0.1,0,0.3,0.2,0.2C69.7,45.8,69.6,45.6,69.5,45.7z"/>
		<path id="XMLID_236_" class="st11" d="M70.3,43.9c-0.1,0.1,0,0.3,0.2,0.2C70.6,44,70.5,43.8,70.3,43.9z"/>
		<path id="XMLID_235_" class="st2" d="M81.2,27.7c0.2,0,0.2-0.3,0-0.3C81.1,27.4,81,27.7,81.2,27.7z"/>
		<path id="XMLID_234_" class="st2" d="M81,26.6c0.2,0,0.3-0.3,0-0.4C80.8,26.2,80.8,26.6,81,26.6z"/>
		<path id="XMLID_233_" class="st2" d="M79.5,30.2c0.1,0.1,0.2,0.1,0.3,0.1c0.3,0,0.3-0.4,0.1-0.5c0,0,0,0-0.1,0
			c-0.1,0-0.3,0-0.3,0.1C79.4,29.9,79.5,30.1,79.5,30.2z"/>
		<path id="XMLID_232_" class="st2" d="M80.1,29.3c0.3,0,0.3-0.4,0-0.4C79.9,28.8,79.8,29.2,80.1,29.3z"/>
		<path id="XMLID_231_" class="st2" d="M78.3,28.1c0.3,0,0.3-0.4,0-0.4C78.1,27.6,78,28,78.3,28.1z"/>
		<path id="XMLID_230_" class="st2" d="M79.9,28.2C79.9,28.2,79.9,28.2,79.9,28.2c0.1,0,0.1-0.1,0.1-0.1c0,0,0-0.1,0-0.1
			c-0.1-0.1-0.2-0.1-0.3,0l0,0C79.6,28.2,79.8,28.3,79.9,28.2z"/>
		<path id="XMLID_229_" class="st2" d="M79.5,27.1c0.2,0,0.2-0.3,0-0.3C79.4,26.8,79.3,27.1,79.5,27.1z"/>
		<path id="XMLID_228_" class="st9" d="M82.9,27.1C83,27.1,83,27,82.9,27.1C82.9,27,82.8,27.1,82.9,27.1z"/>
		<path id="XMLID_227_" class="st9" d="M82.4,28.3c0.1,0,0.2-0.1,0.2-0.2c0-0.2-0.2-0.3-0.3-0.2C82.1,27.9,82.1,28.3,82.4,28.3z"/>
		<path id="XMLID_226_" class="st9" d="M82.7,27.2c0.1,0.1,0.3,0,0.4-0.2c0-0.1,0-0.2-0.1-0.3c-0.1-0.1-0.3-0.1-0.4,0.1
			C82.5,27,82.6,27.2,82.7,27.2z"/>
		<path id="XMLID_225_" class="st9" d="M82.4,29.3c0.3,0,0.4-0.4,0.1-0.5C82.2,28.8,82.1,29.3,82.4,29.3z"/>
		<path id="XMLID_224_" class="st9" d="M81.1,30c0,0,0,0.1,0.1,0.1c0,0,0,0,0,0c0,0,0,0,0,0.1c0.2,0.3,0.7-0.1,0.5-0.4
			c-0.1-0.1-0.1-0.1-0.3-0.2C81.2,29.6,81.1,29.8,81.1,30z"/>
		<path id="XMLID_223_" class="st9" d="M81,28.9c0.3,0,0.4-0.5,0.1-0.5C80.7,28.3,80.7,28.8,81,28.9z"/>
		<path id="XMLID_222_" class="st9" d="M80.1,28c0.5,0.1,0.5-0.6,0.1-0.7C79.7,27.2,79.6,27.9,80.1,28z"/>
		<path id="XMLID_221_" class="st9" d="M79.7,28.9C79.7,28.9,79.7,28.9,79.7,28.9C79.7,28.9,79.6,29,79.7,28.9
			c-0.1,0.2-0.1,0.3,0,0.3c0,0.1,0.1,0.1,0.2,0.1c0.1,0,0.2-0.1,0.3-0.2c0,0,0,0,0,0c0-0.1-0.1-0.3-0.2-0.3c0,0,0,0,0,0
			C79.9,28.8,79.8,28.8,79.7,28.9C79.8,28.9,79.8,28.9,79.7,28.9C79.8,28.9,79.8,28.9,79.7,28.9C79.8,28.9,79.8,28.9,79.7,28.9
			C79.7,28.9,79.7,28.9,79.7,28.9C79.7,28.9,79.7,28.9,79.7,28.9z"/>
		<path id="XMLID_220_" class="st10" d="M78.4,26.7C78.4,26.7,78.4,26.7,78.4,26.7C78.4,26.7,78.4,26.7,78.4,26.7
			c-0.1,0.2-0.1,0.3,0,0.3c0,0.1,0.1,0.1,0.2,0.1c0.1,0,0.2-0.1,0.3-0.2c0,0,0,0,0,0c0-0.1-0.1-0.3-0.2-0.3h0
			C78.6,26.6,78.5,26.6,78.4,26.7C78.5,26.6,78.5,26.6,78.4,26.7C78.5,26.6,78.5,26.6,78.4,26.7C78.5,26.6,78.5,26.6,78.4,26.7
			C78.5,26.6,78.4,26.6,78.4,26.7C78.4,26.6,78.4,26.7,78.4,26.7z"/>
		<path id="XMLID_219_" class="st10" d="M81.7,27.1C81.7,27.1,81.7,27.1,81.7,27.1C81.7,27.1,81.7,27.1,81.7,27.1
			c-0.1,0.1-0.1,0.2,0,0.2c0,0,0.1,0.1,0.1,0.1c0.1,0,0.2-0.1,0.2-0.1c0,0,0,0,0,0c0-0.1-0.1-0.2-0.1-0.2c0,0,0,0,0,0
			C81.8,27.1,81.8,27.1,81.7,27.1L81.7,27.1C81.8,27.1,81.8,27.1,81.7,27.1C81.8,27.1,81.8,27.1,81.7,27.1
			C81.8,27.1,81.8,27.1,81.7,27.1C81.7,27.1,81.7,27.1,81.7,27.1z"/>
		<path id="XMLID_218_" class="st2" d="M80.8,30.4C80.8,30.4,80.8,30.4,80.8,30.4C80.8,30.4,80.8,30.4,80.8,30.4c0.1,0,0.1,0,0.1,0
			c0.3,0.1,0.4-0.5,0.1-0.5c0,0-0.1,0-0.1,0c0,0,0,0,0,0c0,0,0,0,0,0c-0.1,0-0.2,0.1-0.2,0.2C80.6,30.2,80.6,30.3,80.8,30.4z"/>
		<path id="XMLID_217_" class="st2" d="M81.7,30.1C81.7,30.1,81.7,30.1,81.7,30.1c0,0.3,0.5,0.4,0.6,0.1c0,0,0,0,0,0
			C82.5,29.7,81.7,29.6,81.7,30.1z"/>
		<path id="XMLID_216_" class="st2" d="M81.8,29.3c0.4,0,0.4-0.5,0.1-0.6C81.5,28.7,81.4,29.3,81.8,29.3z"/>
		<path id="XMLID_215_" class="st2" d="M82.9,28.9c0.4,0.1,0.5-0.6,0.1-0.7C82.6,28.2,82.5,28.9,82.9,28.9z"/>
		<path id="XMLID_214_" class="st2" d="M80.3,31.6c0.4,0.1,0.5-0.6,0.1-0.7C80,30.8,79.9,31.5,80.3,31.6z"/>
		<path id="XMLID_213_" class="st11" d="M80.8,30.5c0.4,0,0.4-0.5,0.1-0.6C80.5,29.9,80.4,30.4,80.8,30.5z"/>
		<path id="XMLID_212_" class="st11" d="M80.9,29.3C80.9,29.3,81,29.3,80.9,29.3c0.4,0.1,0.4-0.5,0.1-0.5c0,0,0,0-0.1,0
			C80.7,28.8,80.6,29.2,80.9,29.3z"/>
		<path id="XMLID_211_" class="st11" d="M78.8,27.5C78.8,27.5,78.8,27.5,78.8,27.5c0.4,0.1,0.5-0.5,0.1-0.5c0,0,0,0-0.1,0
			C78.5,27,78.4,27.4,78.8,27.5z"/>
		<path id="XMLID_210_" class="st11" d="M79.2,28.9C79.2,28.9,79.2,28.9,79.2,28.9c0.2,0,0.2-0.3,0.1-0.3c0,0,0,0,0,0
			C79,28.6,79,28.9,79.2,28.9z"/>
		<path id="XMLID_209_" class="st11" d="M83.1,27.6C83.2,27.6,83.2,27.6,83.1,27.6c0.2,0,0.2-0.3,0.1-0.3c0,0,0,0,0,0
			C83,27.3,83,27.5,83.1,27.6z"/>
		<path id="XMLID_208_" class="st11" d="M80.7,31.9C80.8,32,80.8,32,80.7,31.9c0.2,0,0.2-0.3,0.1-0.3c0,0,0,0,0,0
			C80.6,31.7,80.6,31.9,80.7,31.9z"/>
		<path id="XMLID_207_" class="st11" d="M81.2,31.5C81.2,31.5,81.2,31.5,81.2,31.5c0.4,0.1,0.4-0.5,0.1-0.5c0,0,0,0-0.1,0
			C81,31,80.9,31.4,81.2,31.5z"/>
		<path id="XMLID_206_" class="st11" d="M80.8,27.5c0.2,0,0.2-0.2,0-0.3C80.6,27.2,80.6,27.4,80.8,27.5z"/>
		<path id="XMLID_205_" class="st11" d="M78.9,28.3c0.2,0,0.2-0.2,0-0.3C78.8,28,78.7,28.3,78.9,28.3z"/>
		<path id="XMLID_204_" class="st2" d="M69.4,29.7c-0.2,0.1-0.1,0.3,0.1,0.3C69.7,30,69.6,29.7,69.4,29.7z"/>
		<path id="XMLID_203_" class="st2" d="M69,28.2c0,0-0.1-0.1-0.2,0c0,0-0.1,0.1-0.1,0.1C68.8,28.5,69.2,28.4,69,28.2z"/>
		<path id="XMLID_202_" class="st2" d="M68.4,27.2c-0.2,0.1-0.1,0.4,0.1,0.4C68.8,27.5,68.6,27.2,68.4,27.2z"/>
		<path id="XMLID_201_" class="st2" d="M69.7,26.9C69.7,27,69.7,27,69.7,26.9c0,0.1,0,0.1,0,0.1c0,0,0,0,0,0c0.1,0,0.2,0,0.2-0.1
			C69.9,26.9,69.8,26.8,69.7,26.9z"/>
		<path id="XMLID_200_" class="st2" d="M69.9,25.1c-0.2,0.1-0.1,0.4,0.1,0.4C70.3,25.4,70.1,25.1,69.9,25.1z"/>
		<path id="XMLID_199_" class="st2" d="M69.3,25.9c-0.1-0.2-0.4-0.1-0.4,0.1c0,0,0,0,0,0.1c0,0.2,0.2,0.3,0.3,0.2
			C69.4,26.2,69.4,26.1,69.3,25.9C69.4,25.9,69.4,25.9,69.3,25.9z"/>
		<path id="XMLID_198_" class="st2" d="M69.9,28.5c-0.1-0.1-0.2,0-0.2,0.1c0,0,0,0.1,0,0.1c0.1,0.2,0.3,0.1,0.3-0.1
			C69.9,28.5,69.9,28.5,69.9,28.5z"/>
		<path id="XMLID_197_" class="st2" d="M70.6,28.7c-0.2,0.1-0.1,0.3,0.1,0.2C70.8,28.9,70.7,28.7,70.6,28.7z"/>
		<path id="XMLID_196_" class="st2" d="M70.3,27.4c-0.2,0.1-0.1,0.5,0.1,0.4C70.7,27.7,70.6,27.3,70.3,27.4z"/>
		<path id="XMLID_195_" class="st2" d="M73.3,27.5c-0.2,0.1-0.1,0.5,0.1,0.4C73.6,27.8,73.5,27.5,73.3,27.5z"/>
		<path id="XMLID_194_" class="st2" d="M71.1,27.2c-0.1,0-0.1,0-0.1,0.1c-0.1,0.1,0,0.2,0.1,0.2c0.1,0,0.1,0,0.2,0
			C71.4,27.5,71.3,27.2,71.1,27.2z"/>
		<path id="XMLID_193_" class="st2" d="M71.2,26.1C71.2,26.1,71.2,26.1,71.2,26.1c-0.1,0.1,0,0.2,0.1,0.2c0,0,0,0,0,0
			c0.1,0,0.2-0.1,0.2-0.2C71.4,26,71.3,26,71.2,26.1z"/>
		<path id="XMLID_192_" class="st2" d="M71.2,24.7c-0.2,0.1-0.1,0.3,0.1,0.3C71.4,24.9,71.3,24.6,71.2,24.7z"/>
		<path id="XMLID_191_" class="st2" d="M70,26.3L70,26.3c0.1,0.3,0.5,0.2,0.4-0.1l0-0.1C70.4,25.9,69.9,26,70,26.3z"/>
		<path id="XMLID_190_" class="st2" d="M68.4,24.9c-0.1,0,0,0.1,0,0.1C68.5,25,68.5,24.9,68.4,24.9z"/>
		<path id="XMLID_189_" class="st9" d="M69.3,26.7c-0.4,0.1-0.2,0.7,0.2,0.6C69.9,27.2,69.7,26.6,69.3,26.7z"/>
		<path id="XMLID_188_" class="st9" d="M70.6,23.8c-0.2,0.1-0.1,0.3,0.1,0.3C70.9,24,70.8,23.7,70.6,23.8z"/>
		<path id="XMLID_187_" class="st9" d="M69.5,24.5c-0.1,0.1-0.1,0.3,0,0.4c0.1,0.1,0.2,0.2,0.4,0.1c0.1-0.1,0.2-0.2,0.2-0.3
			C70,24.4,69.6,24.4,69.5,24.5z"/>
		<path id="XMLID_186_" class="st9" d="M70.2,25.4c0,0.1,0.1,0.1,0.1,0.2c0.1,0.1,0.4,0,0.4-0.1c0-0.1,0-0.1,0-0.2
			C70.7,24.9,70.1,25.1,70.2,25.4z"/>
		<path id="XMLID_185_" class="st2" d="M71.1,26.3c-0.1-0.2-0.4-0.2-0.5,0c-0.2,0.2-0.1,0.5,0.2,0.5c0.1,0,0.1,0,0.2,0
			c0.1-0.1,0.2-0.2,0.2-0.3C71.2,26.4,71.1,26.4,71.1,26.3z"/>
		<path id="XMLID_184_" class="st2" d="M71.1,25.1C71.1,25.1,71.1,25.1,71.1,25.1C71.1,25.1,71.1,25.1,71.1,25.1
			c-0.1,0-0.1,0.1-0.2,0.1c-0.1,0.1,0,0.4,0.1,0.4c0.1,0,0.1,0,0.2,0c0,0,0,0,0,0c0,0,0,0,0,0c0.2,0,0.2-0.2,0.2-0.3
			C71.4,25.1,71.3,25,71.1,25.1z"/>
		<path id="XMLID_183_" class="st2" d="M69.3,24.4C69.3,24.4,69.3,24.4,69.3,24.4C69.3,24.4,69.3,24.4,69.3,24.4
			c-0.1,0-0.1,0.1-0.2,0.1c-0.1,0.1,0,0.4,0.1,0.4c0.1,0,0.1,0,0.2,0c0,0,0,0,0,0c0,0,0,0,0,0c0.2,0,0.2-0.2,0.2-0.3
			C69.6,24.5,69.4,24.4,69.3,24.4z"/>
		<path id="XMLID_182_" class="st2" d="M70.1,24.5c-0.2,0.1-0.1,0.3,0.1,0.3C70.3,24.7,70.2,24.4,70.1,24.5z"/>
		<path id="XMLID_181_" class="st2" d="M71.5,24.5c-0.2,0.1-0.1,0.3,0.1,0.3C71.8,24.8,71.7,24.5,71.5,24.5z"/>
		<path id="XMLID_180_" class="st2" d="M72.2,26c-0.2,0.1-0.1,0.3,0.1,0.3C72.4,26.3,72.3,26,72.2,26z"/>
		<path id="XMLID_179_" class="st2" d="M73.1,26.6c-0.2,0.1-0.1,0.3,0.1,0.3C73.3,26.8,73.2,26.5,73.1,26.6z"/>
		<path id="XMLID_178_" class="st11" d="M69.7,23.6c-0.3,0.1-0.2,0.6,0.2,0.5C70.2,24,70.1,23.5,69.7,23.6z"/>
		<path id="XMLID_177_" class="st11" d="M70.7,23.8c-0.3,0.1-0.1,0.5,0.1,0.4C71.1,24.1,70.9,23.7,70.7,23.8z"/>
		<path id="XMLID_176_" class="st11" d="M70.2,23.2c-0.3,0.1-0.1,0.5,0.1,0.4C70.6,23.5,70.5,23.1,70.2,23.2z"/>
		<path id="XMLID_175_" class="st11" d="M72,24.9c-0.3,0.1-0.1,0.5,0.1,0.4C72.4,25.2,72.3,24.8,72,24.9z"/>
		<path id="XMLID_174_" class="st11" d="M70.4,25.3c-0.3,0.1-0.2,0.6,0.2,0.5C70.9,25.7,70.8,25.2,70.4,25.3z"/>
		<path id="XMLID_173_" class="st11" d="M71.8,27.5c-0.3,0.1-0.2,0.6,0.2,0.5C72.3,27.9,72.1,27.3,71.8,27.5z"/>
		<path id="XMLID_172_" class="st11" d="M72.4,26.6c-0.4,0.1-0.2,0.7,0.2,0.6C73,27,72.8,26.5,72.4,26.6z"/>
		<path id="XMLID_171_" class="st11" d="M69.2,26.8C69.2,26.9,69.2,26.9,69.2,26.8c-0.3,0.2-0.2,0.5,0.1,0.5c0,0,0.1,0,0.1,0
			c0.2,0,0.3-0.2,0.2-0.3C69.6,26.8,69.4,26.8,69.2,26.8z"/>
		<path id="XMLID_170_" class="st11" d="M71.7,25.5C71.7,25.5,71.6,25.5,71.7,25.5c-0.3,0.2-0.2,0.5,0.1,0.5c0,0,0.1,0,0.1,0
			c0.2,0,0.3-0.2,0.2-0.3C72,25.5,71.8,25.4,71.7,25.5z"/>
		<path id="XMLID_169_" class="st11" d="M69.7,29.2c-0.2,0.1-0.1,0.3,0.1,0.3C69.9,29.4,69.9,29.1,69.7,29.2z"/>
		<path id="XMLID_168_" class="st11" d="M69.6,26.2C69.5,26.3,69.5,26.3,69.6,26.2C69.7,26.3,69.6,26.2,69.6,26.2z"/>
		<path id="XMLID_167_" class="st2" d="M79.4,38.1c0-0.2-0.2-0.2-0.3-0.1C79.1,38.2,79.4,38.3,79.4,38.1z"/>
		<path id="XMLID_166_" class="st2" d="M80.9,38.7c0.1,0,0.1,0,0.1-0.1c0-0.1,0-0.1-0.1-0.1C80.8,38.3,80.7,38.7,80.9,38.7z"/>
		<path id="XMLID_165_" class="st2" d="M82.1,38.7c0.1-0.2-0.3-0.3-0.4-0.1C81.7,38.8,82,38.9,82.1,38.7z"/>
		<path id="XMLID_164_" class="st2" d="M81.6,39.9C81.6,39.9,81.6,39.9,81.6,39.9c0-0.1-0.1-0.1-0.1-0.1c0,0,0,0,0,0
			c-0.1,0.1-0.1,0.2,0,0.2C81.6,40.1,81.7,40,81.6,39.9z"/>
		<path id="XMLID_163_" class="st2" d="M83,41.1c0.1-0.2-0.3-0.3-0.4-0.1C82.6,41.2,83,41.3,83,41.1z"/>
		<path id="XMLID_162_" class="st2" d="M82.7,40.2c0.2,0,0.3-0.3,0.1-0.4c0,0,0,0-0.1,0c-0.1-0.1-0.3,0-0.4,0.1
			C82.4,40.1,82.5,40.2,82.7,40.2C82.7,40.2,82.7,40.2,82.7,40.2z"/>
		<path id="XMLID_161_" class="st2" d="M80.3,39.2c0.1,0,0.1-0.2,0-0.3c0,0,0,0-0.1,0c-0.2,0-0.3,0.2-0.1,0.3
			C80.2,39.2,80.2,39.2,80.3,39.2z"/>
		<path id="XMLID_160_" class="st2" d="M79.7,39.7c0-0.2-0.2-0.2-0.3-0.1C79.4,39.8,79.6,39.8,79.7,39.7z"/>
		<path id="XMLID_159_" class="st2" d="M80.9,40.2c0.1-0.3-0.3-0.4-0.4-0.1C80.5,40.4,80.9,40.5,80.9,40.2z"/>
		<path id="XMLID_158_" class="st2" d="M79.2,42.6c0.1-0.3-0.3-0.4-0.4-0.1C78.7,42.7,79.1,42.8,79.2,42.6z"/>
		<path id="XMLID_157_" class="st2" d="M80.6,40.9c0-0.1,0-0.1,0-0.2c0-0.1-0.1-0.1-0.2-0.1c0,0-0.1,0.1-0.1,0.1
			C80.3,41,80.6,41.1,80.6,40.9z"/>
		<path id="XMLID_156_" class="st2" d="M81.5,41.7C81.5,41.7,81.5,41.7,81.5,41.7c0-0.1-0.2-0.2-0.2-0.1c0,0,0,0,0,0
			c-0.1,0.1,0,0.2,0.1,0.3C81.4,41.9,81.6,41.8,81.5,41.7z"/>
		<path id="XMLID_155_" class="st2" d="M82.7,42.4c0-0.2-0.2-0.2-0.3-0.1C82.4,42.5,82.7,42.6,82.7,42.4z"/>
		<path id="XMLID_154_" class="st2" d="M82,40.5L82,40.5c-0.3-0.1-0.5,0.3-0.2,0.4l0.1,0C82.1,41.1,82.3,40.6,82,40.5z"/>
		<path id="XMLID_153_" class="st2" d="M84.1,40c0-0.1-0.1-0.1-0.1,0C83.9,40,84.1,40,84.1,40z"/>
		<path id="XMLID_152_" class="st9" d="M82,39.7c0.1-0.4-0.5-0.5-0.6-0.2C81.4,39.9,81.9,40.1,82,39.7z"/>
		<path id="XMLID_151_" class="st9" d="M83.8,42.4c0.1-0.2-0.2-0.3-0.3-0.1C83.5,42.5,83.8,42.6,83.8,42.4z"/>
		<path id="XMLID_150_" class="st9" d="M83.8,41.1c0-0.1-0.2-0.3-0.3-0.2c-0.1,0-0.2,0.1-0.3,0.3c0,0.1,0.1,0.2,0.2,0.3
			C83.6,41.5,83.8,41.3,83.8,41.1z"/>
		<path id="XMLID_149_" class="st9" d="M82.6,41.2c-0.1,0-0.1,0-0.2,0c-0.2,0-0.3,0.3-0.1,0.4c0.1,0,0.1,0.1,0.2,0.1
			C82.8,41.9,83,41.3,82.6,41.2z"/>
		<path id="XMLID_148_" class="st2" d="M81.4,41.4c0.2,0,0.4-0.2,0.3-0.4c-0.1-0.2-0.4-0.3-0.6-0.2c-0.1,0.1-0.1,0.1-0.1,0.2
			c0,0.1,0,0.3,0.1,0.3C81.3,41.4,81.3,41.4,81.4,41.4z"/>
		<path id="XMLID_147_" class="st2" d="M82.4,42.1C82.4,42.1,82.4,42.1,82.4,42.1L82.4,42.1c0-0.1,0-0.1,0-0.2
			c0-0.2-0.3-0.3-0.4-0.1c0,0.1-0.1,0.1-0.1,0.2c0,0,0,0,0,0c0,0,0,0,0,0c-0.1,0.2,0.1,0.3,0.2,0.3C82.2,42.3,82.4,42.3,82.4,42.1z"
			/>
		<path id="XMLID_146_" class="st2" d="M84,41C84,41,84,40.9,84,41L84,41c0-0.1,0-0.1,0-0.2c0-0.2-0.3-0.3-0.4-0.1
			c0,0.1-0.1,0.1-0.1,0.2v0c0,0,0,0,0,0c-0.1,0.2,0.1,0.3,0.2,0.3C83.8,41.2,83.9,41.1,84,41z"/>
		<path id="XMLID_145_" class="st2" d="M83.5,41.6c0-0.2-0.2-0.2-0.3-0.1C83.2,41.7,83.4,41.8,83.5,41.6z"/>
		<path id="XMLID_144_" class="st2" d="M82.6,42.7c0-0.2-0.2-0.2-0.3-0.1C82.3,42.8,82.6,42.9,82.6,42.7z"/>
		<path id="XMLID_143_" class="st2" d="M81,42.5c0-0.2-0.2-0.2-0.3-0.1C80.7,42.6,81,42.6,81,42.5z"/>
		<path id="XMLID_142_" class="st2" d="M80.1,42.9c0-0.2-0.2-0.2-0.3-0.1C79.8,43,80.1,43.1,80.1,42.9z"/>
		<path id="XMLID_141_" class="st11" d="M84.4,41.8c0.1-0.3-0.4-0.5-0.5-0.1C83.8,42,84.3,42.1,84.4,41.8z"/>
		<path id="XMLID_140_" class="st11" d="M83.7,42.5c0.1-0.3-0.3-0.4-0.4-0.1C83.2,42.6,83.6,42.7,83.7,42.5z"/>
		<path id="XMLID_139_" class="st11" d="M84.5,42.4c0.1-0.3-0.3-0.4-0.4-0.1C84,42.6,84.4,42.7,84.5,42.4z"/>
		<path id="XMLID_138_" class="st11" d="M82.1,43c0.1-0.3-0.3-0.4-0.4-0.1C81.6,43.1,82,43.2,82.1,43z"/>
		<path id="XMLID_137_" class="st11" d="M82.6,41.4c0.1-0.3-0.4-0.5-0.5-0.1C82,41.6,82.5,41.8,82.6,41.4z"/>
		<path id="XMLID_136_" class="st11" d="M80.1,41.4c0.1-0.3-0.4-0.5-0.5-0.1C79.5,41.6,80,41.7,80.1,41.4z"/>
		<path id="XMLID_135_" class="st11" d="M80.4,42.4c0.1-0.4-0.5-0.5-0.6-0.2C79.8,42.6,80.3,42.8,80.4,42.4z"/>
		<path id="XMLID_134_" class="st11" d="M82,39.6C82,39.6,82,39.5,82,39.6c0-0.3-0.3-0.4-0.4-0.2c0,0,0,0,0,0.1
			c-0.1,0.1,0,0.3,0.2,0.4C81.8,39.9,82,39.8,82,39.6z"/>
		<path id="XMLID_133_" class="st11" d="M81.8,42.4C81.8,42.3,81.8,42.3,81.8,42.4c0-0.3-0.3-0.4-0.4-0.2c0,0,0,0,0,0.1
			c-0.1,0.1,0,0.3,0.2,0.4C81.6,42.7,81.8,42.5,81.8,42.4z"/>
		<path id="XMLID_132_" class="st11" d="M79.8,38.7c0-0.2-0.2-0.2-0.3-0.1C79.5,38.8,79.7,38.9,79.8,38.7z"/>
		<path id="XMLID_131_" class="st11" d="M82.3,40.2C82.3,40.1,82.2,40.1,82.3,40.2C82.2,40.2,82.3,40.3,82.3,40.2z"/>
		<path id="XMLID_130_" class="st2" d="M65.6,36.3c0,0.2,0.3,0.2,0.3,0C65.9,36.1,65.6,36.1,65.6,36.3z"/>
		<path id="XMLID_129_" class="st2" d="M64.1,36.2c-0.1,0-0.1,0.1-0.1,0.1c0,0,0,0.1,0.1,0.1C64.3,36.5,64.3,36.1,64.1,36.2z"/>
		<path id="XMLID_128_" class="st2" d="M62.9,36.5c0,0.2,0.4,0.2,0.4,0C63.3,36.2,62.9,36.2,62.9,36.5z"/>
		<path id="XMLID_127_" class="st2" d="M63.1,35.1C63.1,35.1,63.1,35.2,63.1,35.1c0.1,0.1,0.1,0.1,0.1,0c0,0,0,0,0,0
			c0.1-0.1,0-0.2-0.1-0.2C63,34.9,63,35.1,63.1,35.1z"/>
		<path id="XMLID_126_" class="st2" d="M61.4,34.4c0,0.2,0.4,0.3,0.4,0C61.8,34.2,61.4,34.2,61.4,34.4z"/>
		<path id="XMLID_125_" class="st2" d="M61.9,35.1c-0.2,0-0.2,0.4,0,0.4c0,0,0,0,0.1,0c0.2,0,0.3-0.1,0.3-0.2
			C62.3,35.2,62.1,35.1,61.9,35.1C62,35.1,61.9,35.1,61.9,35.1z"/>
		<path id="XMLID_124_" class="st2" d="M64.6,35.5c-0.1,0.1-0.1,0.2,0,0.3c0,0,0.1,0,0.1,0c0.2,0,0.2-0.3,0-0.3
			C64.6,35.4,64.6,35.4,64.6,35.5z"/>
		<path id="XMLID_123_" class="st2" d="M65,34.9c0,0.2,0.3,0.2,0.3,0C65.3,34.7,65,34.7,65,34.9z"/>
		<path id="XMLID_122_" class="st2" d="M63.6,34.7c0,0.3,0.4,0.3,0.4,0C64.1,34.4,63.6,34.4,63.6,34.7z"/>
		<path id="XMLID_121_" class="st2" d="M64.7,31.9c0,0.3,0.4,0.3,0.4,0C65.1,31.7,64.7,31.7,64.7,31.9z"/>
		<path id="XMLID_120_" class="st2" d="M63.8,33.9c0,0.1,0,0.1,0,0.2c0.1,0.1,0.2,0.1,0.2,0c0,0,0-0.1,0.1-0.2
			C64.1,33.7,63.8,33.7,63.8,33.9z"/>
		<path id="XMLID_119_" class="st2" d="M62.7,33.4C62.7,33.4,62.7,33.4,62.7,33.4c0.1,0.1,0.2,0.1,0.2,0c0,0,0,0,0,0
			c0.1-0.1,0-0.2-0.1-0.2C62.7,33.2,62.6,33.3,62.7,33.4z"/>
		<path id="XMLID_118_" class="st2" d="M61.3,33.1c0,0.2,0.3,0.2,0.3,0C61.6,32.9,61.3,32.9,61.3,33.1z"/>
		<path id="XMLID_117_" class="st2" d="M62.6,34.6L62.6,34.6c0.3,0,0.3-0.4,0.1-0.5h-0.1C62.3,34.2,62.3,34.6,62.6,34.6z"/>
		<path id="XMLID_116_" class="st2" d="M60.7,35.7c0,0.1,0.1,0.1,0.1,0C60.8,35.7,60.7,35.7,60.7,35.7z"/>
		<path id="XMLID_115_" class="st9" d="M62.7,35.4c0,0.4,0.6,0.4,0.6,0C63.3,35.1,62.7,35,62.7,35.4z"/>
		<path id="XMLID_114_" class="st9" d="M60.3,33.3c0,0.2,0.3,0.2,0.3,0C60.6,33.1,60.3,33.1,60.3,33.3z"/>
		<path id="XMLID_113_" class="st9" d="M60.7,34.6c0.1,0.1,0.2,0.2,0.4,0.1c0.1-0.1,0.2-0.2,0.2-0.3c0-0.1-0.1-0.2-0.2-0.2
			C60.7,34.1,60.6,34.4,60.7,34.6z"/>
		<path id="XMLID_112_" class="st9" d="M61.7,34.2c0.1,0,0.1,0,0.2,0c0.2-0.1,0.2-0.4,0-0.4c-0.1,0-0.1,0-0.2-0.1
			C61.4,33.6,61.4,34.2,61.7,34.2z"/>
		<path id="XMLID_111_" class="st2" d="M62.9,33.6c-0.2,0.1-0.3,0.3-0.2,0.5c0.1,0.2,0.4,0.2,0.6,0c0-0.1,0.1-0.1,0.1-0.2
			c0-0.1-0.1-0.2-0.2-0.3C63,33.6,62.9,33.6,62.9,33.6z"/>
		<path id="XMLID_110_" class="st2" d="M61.7,33.2C61.7,33.2,61.7,33.2,61.7,33.2L61.7,33.2c0,0.1,0,0.1,0,0.2
			c0.1,0.2,0.4,0.2,0.4,0c0-0.1,0-0.1,0-0.2l0,0c0,0,0,0,0,0c0-0.2-0.1-0.3-0.3-0.3C61.9,33,61.7,33.1,61.7,33.2z"/>
		<path id="XMLID_109_" class="st2" d="M60.5,34.8L60.5,34.8C60.5,34.8,60.5,34.8,60.5,34.8c0,0.1,0,0.1,0,0.2
			c0.1,0.2,0.4,0.2,0.4,0c0-0.1,0-0.1,0-0.2l0,0c0,0,0,0,0,0c0-0.2-0.1-0.3-0.3-0.3C60.6,34.5,60.5,34.6,60.5,34.8z"/>
		<path id="XMLID_108_" class="st2" d="M60.8,34c0,0.2,0.3,0.2,0.3,0C61.1,33.8,60.8,33.8,60.8,34z"/>
		<path id="XMLID_107_" class="st2" d="M61.3,32.7c0,0.2,0.3,0.2,0.3,0C61.6,32.5,61.3,32.5,61.3,32.7z"/>
		<path id="XMLID_106_" class="st2" d="M63,32.5c0,0.2,0.3,0.2,0.3,0C63.2,32.3,63,32.3,63,32.5z"/>
		<path id="XMLID_105_" class="st2" d="M63.7,31.8c0,0.2,0.3,0.2,0.3,0C64,31.7,63.7,31.7,63.7,31.8z"/>
		<path id="XMLID_104_" class="st11" d="M59.9,34.1c0,0.3,0.5,0.3,0.5,0C60.4,33.7,59.9,33.7,59.9,34.1z"/>
		<path id="XMLID_103_" class="st11" d="M60.4,33.2c0,0.3,0.4,0.3,0.4,0C60.8,33,60.4,33,60.4,33.2z"/>
		<path id="XMLID_102_" class="st11" d="M59.6,33.5c0,0.3,0.4,0.3,0.4,0C60,33.2,59.6,33.2,59.6,33.5z"/>
		<path id="XMLID_101_" class="st11" d="M61.8,32.3c0,0.3,0.4,0.3,0.4,0C62.2,32,61.8,32,61.8,32.3z"/>
		<path id="XMLID_100_" class="st11" d="M61.7,33.9c0,0.3,0.5,0.3,0.5,0C62.2,33.6,61.7,33.6,61.7,33.9z"/>
		<path id="XMLID_99_" class="st11" d="M64.2,33.3c0,0.3,0.5,0.3,0.5,0C64.7,33,64.2,33,64.2,33.3z"/>
		<path id="XMLID_98_" class="st11" d="M63.6,32.4c0,0.4,0.6,0.4,0.6,0C64.2,32.1,63.6,32.1,63.6,32.4z"/>
		<path id="XMLID_97_" class="st11" d="M62.8,35.6C62.8,35.6,62.8,35.6,62.8,35.6c0.1,0.3,0.4,0.3,0.5,0.1c0,0,0-0.1,0-0.1
			c0-0.2-0.1-0.3-0.2-0.3C62.9,35.2,62.8,35.4,62.8,35.6z"/>
		<path id="XMLID_96_" class="st11" d="M62.3,32.8C62.3,32.8,62.3,32.9,62.3,32.8c0.1,0.3,0.4,0.3,0.5,0.1c0,0,0-0.1,0-0.1
			c0-0.2-0.1-0.3-0.2-0.3C62.4,32.5,62.2,32.7,62.3,32.8z"/>
		<path id="XMLID_95_" class="st11" d="M65.2,35.8c0,0.2,0.3,0.2,0.3,0C65.4,35.7,65.2,35.7,65.2,35.8z"/>
		<path id="XMLID_94_" class="st11" d="M62.3,35.1C62.3,35.1,62.4,35.1,62.3,35.1C62.4,35,62.3,35,62.3,35.1z"/>
		<path id="XMLID_93_" class="st12" d="M70.3,37.9c-0.4-1.1-1.5-1.7-2.7-1.4c-1.1,0.4-1.7,1.5-1.4,2.7c0.4,1.1,1.5,1.7,2.7,1.4
			C70,40.2,70.6,39,70.3,37.9z"/>
		<circle id="XMLID_92_" class="st12" cx="78.4" cy="35.8" r="2.1"/>
		<path id="XMLID_91_" class="st13" d="M70.8,34.2c0,0,0,0,0.1,0.1c0.1,0.1,0.2,0.2,0.3,0.2c0.1,0,0.2,0.1,0.2,0.1
			c0.1,0,0.2,0.1,0.3,0.1c0.1,0,0.2,0,0.3,0c0.1,0,0.1,0,0.2,0l0.1,0l0.2-0.1c0,0,0.1,0,0.1-0.1c0,0,0.1-0.1,0.1-0.1
			c0,0,0.1-0.1,0.1-0.1c0.1-0.1,0.1-0.1,0.2-0.2c0-0.1,0.1-0.2,0.1-0.2c0.1-0.3,0.2-0.6,0.2-0.5c0-0.1,0.1-0.1,0.1-0.1
			c0.1,0,0.1,0.1,0.1,0.1c0,0,0,0.1,0,0.2c0,0.1,0,0.3-0.1,0.5c-0.1,0.2-0.2,0.4-0.3,0.7c0,0-0.1,0.1-0.2,0.1
			c-0.1,0-0.1,0.1-0.2,0.1c-0.1,0-0.1,0.1-0.2,0.1l-0.2,0.1c-0.2,0-0.3,0.1-0.4,0.1c-0.1,0-0.3,0-0.4,0c-0.1,0-0.3-0.1-0.4-0.1
			c-0.1-0.1-0.2-0.1-0.3-0.2c-0.2-0.1-0.3-0.3-0.3-0.4c0,0-0.1-0.1-0.1-0.1c0,0,0,0,0,0l0,0c0-0.1,0-0.1,0.1-0.2
			C70.7,34.1,70.8,34.1,70.8,34.2C70.8,34.2,70.8,34.2,70.8,34.2z"/>
		<g id="XMLID_80_">
			<path id="XMLID_90_" class="st13" d="M69.4,32.8c-0.1,0-0.1,0-0.1,0.1l0,0c0,0,0,0,0,0c0,0,0,0.1,0,0.1c0,0.1,0,0.3-0.1,0.5
				c0,0.1-0.1,0.2-0.1,0.3C69,33.9,69,34,69,34c0,0-0.1,0.1-0.1,0.1c-0.1,0.1-0.2,0.2-0.3,0.2c0,0-0.1,0.1-0.2,0.1l-0.1,0
				c0,0,0,0-0.1,0c-0.1,0-0.1,0-0.2,0l-0.1,0l-0.1,0c-0.1,0-0.2-0.1-0.3-0.1c-0.1-0.1-0.2-0.1-0.3-0.2c-0.1-0.1-0.2-0.2-0.2-0.2
				c-0.1-0.2-0.2-0.3-0.3-0.4c0-0.1-0.1-0.1-0.1-0.1c0,0,0,0,0,0c0,0-0.1-0.1-0.1-0.1c-0.1,0-0.1,0.1-0.1,0.2c0,0,0.1,0.3,0.3,0.7
				c0,0,0.1,0.1,0.1,0.1l-0.4,0.9c0,0.1,0,0.2,0.1,0.3c0,0,0.1,0,0.1,0c0,0,0.1,0,0.1-0.1l0.4-0.8c0,0,0,0,0,0
				c0.1,0,0.1,0.1,0.2,0.1c0.1,0.1,0.3,0.2,0.5,0.2l0.1,0h0l0.1,0.7c0,0.1,0.1,0.2,0.2,0.2c0,0,0,0,0,0c0.1,0,0.1-0.1,0.1-0.2
				L68.4,35c0,0,0.1,0,0.1,0l0.1,0c0.1,0,0.1-0.1,0.2-0.1c0.1-0.1,0.2-0.2,0.3-0.3l0.6,0.5c0.1,0,0.1,0.1,0.2,0c0,0,0.1,0,0.1-0.1
				c0.1-0.1,0.1-0.2,0-0.3l-0.6-0.5c0,0,0-0.1,0.1-0.1c0.1-0.1,0.1-0.3,0.1-0.4c0-0.2,0-0.4,0-0.6c0-0.1,0-0.1,0-0.2
				c0,0,0-0.1,0-0.1C69.5,32.8,69.5,32.8,69.4,32.8z"/>
			<path id="XMLID_81_" class="st13" d="M78,32.8l-0.7-0.6c0-0.1,0-0.2,0-0.3c0-0.3,0-0.5-0.1-0.6c0-0.1,0-0.1-0.1-0.2
				c0,0,0-0.1,0-0.1c0-0.1-0.1-0.1-0.2-0.1c-0.1,0-0.1,0.1-0.1,0.2c0,0,0,0.1,0,0.2c0,0.1,0,0.3,0,0.5c0,0.1,0,0.2-0.1,0.3
				c0,0.1-0.1,0.2-0.2,0.3c0,0-0.1,0.1-0.1,0.1l-0.1,0.1c0,0,0,0-0.1,0c0,0,0,0-0.1,0l-0.1,0l-0.1,0l0,0l0,0l0,0l0,0
				c-0.1,0-0.1,0-0.2,0c-0.1,0-0.1,0-0.2,0c0,0-0.1,0-0.1,0c0,0-0.1,0-0.1,0c-0.1,0-0.1,0-0.2-0.1c-0.1-0.1-0.2-0.1-0.3-0.2
				c-0.1-0.1-0.1-0.2-0.2-0.3c-0.1-0.2-0.2-0.3-0.3-0.4c0-0.1,0-0.1-0.1-0.1c0,0,0,0,0,0l0,0c0-0.1-0.1-0.1-0.1-0.1
				c-0.1,0-0.1,0.1-0.1,0.2c0,0,0,0,0,0.1c0,0,0,0.1,0,0.2c0,0.1,0.1,0.3,0.2,0.5c0,0.1,0.1,0.1,0.1,0.2c0,0.1,0.1,0.1,0.1,0.2
				c0.1,0.1,0.2,0.2,0.3,0.3l-0.3,0.8c0,0.1,0,0.2,0.1,0.2c0,0,0.1,0,0.1,0c0.1,0,0.1-0.1,0.1-0.1l0.3-0.7c0.1,0,0.2,0.1,0.2,0.1
				c0.1,0,0.2,0,0.3,0c0.1,0,0.2,0,0.2,0l0.3,0.6c0,0.1,0.1,0.1,0.2,0.1c0,0,0,0,0,0c0.1,0,0.1-0.2,0.1-0.3l-0.2-0.5l0,0
				c0,0,0.1,0,0.1-0.1c0,0,0.1-0.1,0.1-0.1c0,0,0.1-0.1,0.1-0.1c0.1-0.1,0.1-0.1,0.2-0.2c0,0,0.1-0.1,0.1-0.1l0.7,0.5
				c0.1,0,0.1,0.1,0.2,0c0,0,0.1,0,0.1-0.1C78.1,32.9,78,32.8,78,32.8z"/>
		</g>
	</g>
</g>
</svg>
