<?xml version="1.0" encoding="utf-8"?>
<!-- Generator: Adobe Illustrator 19.0.0, SVG Export Plug-In . SVG Version: 6.00 Build 0)  -->
<svg version="1.1" id="Capa_1" xmlns="http://www.w3.org/2000/svg" xmlns:xlink="http://www.w3.org/1999/xlink" x="0px" y="0px"
	 viewBox="-611.7 324.6 159.1 159.1" style="enable-background:new -611.7 324.6 159.1 159.1;" xml:space="preserve">
<style type="text/css">
	.st0{fill:#FFFFFF;}
	.st1{fill:#CFD692;}
	.st2{fill:#A0C089;}
	.st3{fill:#F4B638;}
	.st4{fill:#CAE5D8;}
	.st5{fill:#06A9BA;}
	.st6{fill:#CFC9E2;}
	.st7{fill:#F4D9D3;}
	.st8{fill:#EC967B;}
</style>
<g>
	<circle class="st0" cx="-532.2" cy="404.1" r="79.5"/>
	<g>
		<g>
			<path d="M-570.6,434c0.4,0,0.7,0.1,1,0.2s0.5,0.3,0.7,0.5c0.2,0.2,0.3,0.5,0.4,0.8c0.1,0.3,0.1,0.7,0.1,1v0.8h-0.6v-0.9
				c0-0.3,0-0.5-0.1-0.8c-0.1-0.2-0.1-0.4-0.3-0.6s-0.3-0.3-0.5-0.4c-0.2-0.1-0.4-0.1-0.7-0.1c-0.3,0-0.5,0-0.7,0.1
				s-0.4,0.2-0.5,0.4s-0.2,0.4-0.3,0.6c-0.1,0.2-0.1,0.5-0.1,0.8v5.3c0,0.3,0,0.5,0.1,0.8c0.1,0.2,0.1,0.4,0.3,0.6
				c0.1,0.2,0.3,0.3,0.5,0.4s0.4,0.1,0.7,0.1c0.3,0,0.5,0,0.7-0.1c0.2-0.1,0.4-0.2,0.5-0.4c0.1-0.2,0.2-0.4,0.3-0.6s0.1-0.5,0.1-0.8
				v-1.2h0.6v1.2c0,0.4,0,0.7-0.1,1c-0.1,0.3-0.2,0.6-0.4,0.8c-0.2,0.2-0.4,0.4-0.7,0.5s-0.6,0.2-1,0.2c-0.4,0-0.7-0.1-1-0.2
				s-0.5-0.3-0.7-0.5c-0.2-0.2-0.3-0.5-0.4-0.8c-0.1-0.3-0.1-0.7-0.1-1v-5.2c0-0.4,0-0.7,0.1-1c0.1-0.3,0.2-0.6,0.4-0.8
				c0.2-0.2,0.4-0.4,0.7-0.5S-571,434-570.6,434z"/>
			<path d="M-564.4,436.6c0-0.4,0-0.7,0.1-1c0.1-0.3,0.2-0.6,0.4-0.8c0.2-0.2,0.4-0.4,0.7-0.5c0.3-0.1,0.6-0.2,1-0.2s0.7,0.1,1,0.2
				s0.5,0.3,0.7,0.5c0.2,0.2,0.3,0.5,0.4,0.8c0.1,0.3,0.1,0.7,0.1,1v5.2c0,0.4,0,0.7-0.1,1s-0.2,0.6-0.4,0.8
				c-0.2,0.2-0.4,0.4-0.7,0.5s-0.6,0.2-1,0.2s-0.7-0.1-1-0.2c-0.3-0.1-0.5-0.3-0.7-0.5c-0.2-0.2-0.3-0.5-0.4-0.8s-0.1-0.7-0.1-1
				V436.6z M-563.8,441.8c0,0.6,0.1,1,0.4,1.4c0.2,0.4,0.6,0.5,1.2,0.5s1-0.2,1.2-0.5c0.2-0.4,0.4-0.8,0.4-1.4v-5.3
				c0-0.6-0.1-1-0.4-1.4c-0.2-0.4-0.7-0.5-1.2-0.5s-1,0.2-1.2,0.5c-0.2,0.4-0.4,0.8-0.4,1.4V441.8z"/>
			<path d="M-553.8,434.1c0.8,0,1.3,0.2,1.7,0.6c0.3,0.4,0.5,1,0.5,1.7v0.9c0,1.2-0.5,1.9-1.5,2.1c0.5,0.1,0.9,0.4,1.1,0.7
				c0.2,0.4,0.3,0.8,0.3,1.4v1.6c0,0.2,0,0.4,0,0.6c0,0.2,0.1,0.4,0.2,0.6h-0.7c-0.1-0.2-0.1-0.3-0.2-0.5c0-0.2,0-0.4,0-0.7v-1.6
				c0-0.3,0-0.6-0.1-0.8c-0.1-0.2-0.2-0.4-0.4-0.5s-0.4-0.2-0.6-0.3c-0.2-0.1-0.5-0.1-0.8-0.1h-1.1v4.6h-0.7v-10.2H-553.8z
				 M-554.2,439.1c0.3,0,0.6,0,0.8-0.1c0.2,0,0.4-0.1,0.6-0.3s0.3-0.3,0.4-0.5c0.1-0.2,0.1-0.5,0.1-0.8v-1c0-0.6-0.1-1-0.3-1.3
				c-0.2-0.3-0.6-0.5-1.2-0.5h-1.4v4.4H-554.2z"/>
			<path d="M-546.4,442l-0.5,2.3h-0.6l2.2-10.2h1l2.3,10.2h-0.7l-0.5-2.3H-546.4z M-546.3,441.4h3l-1.5-6.6L-546.3,441.4z"/>
			<path d="M-533.7,444.3h-4.6v-0.6l3.9-9h-3.8v-0.6h4.5v0.6l-3.9,8.9h3.9V444.3z"/>
			<path d="M-529.6,436.6c0-0.4,0-0.7,0.1-1c0.1-0.3,0.2-0.6,0.4-0.8c0.2-0.2,0.4-0.4,0.7-0.5s0.6-0.2,1-0.2s0.7,0.1,1,0.2
				s0.5,0.3,0.7,0.5c0.2,0.2,0.3,0.5,0.4,0.8c0.1,0.3,0.1,0.7,0.1,1v5.2c0,0.4,0,0.7-0.1,1c-0.1,0.3-0.2,0.6-0.4,0.8
				c-0.2,0.2-0.4,0.4-0.7,0.5s-0.6,0.2-1,0.2s-0.7-0.1-1-0.2s-0.5-0.3-0.7-0.5c-0.2-0.2-0.3-0.5-0.4-0.8c-0.1-0.3-0.1-0.7-0.1-1
				V436.6z M-529,441.8c0,0.6,0.1,1,0.4,1.4c0.2,0.4,0.6,0.5,1.2,0.5s1-0.2,1.2-0.5c0.2-0.4,0.4-0.8,0.4-1.4v-5.3
				c0-0.6-0.1-1-0.4-1.4c-0.2-0.4-0.7-0.5-1.2-0.5s-1,0.2-1.2,0.5c-0.2,0.4-0.4,0.8-0.4,1.4V441.8z"/>
			<path d="M-521.1,434.1h1.6v8.7h2.6v1.5h-4.2V434.1z"/>
			<path d="M-508.1,444.3h-1.6l-0.3-1.8h-2l-0.3,1.8h-1.5l1.6-10.2h2.3L-508.1,444.3z M-511.8,441h1.5l-0.8-5.1L-511.8,441z"/>
			<path d="M-503.1,436.9v7.4h-1.4v-10.2h2l1.6,6.1v-6.1h1.4v10.2h-1.6L-503.1,436.9z"/>
			<path d="M-490.2,444.3h-1.6l-0.3-1.8h-2l-0.3,1.8h-1.5l1.6-10.2h2.3L-490.2,444.3z M-493.8,441h1.5l-0.8-5.1L-493.8,441z"/>
		</g>
		<g>
			<g>
				<g>
					<path class="st1" d="M-488.2,438.4c0,0,0.1-6.9,7.8-7.5C-480.4,430.9-482,437.5-488.2,438.4z"/>
					<path class="st2" d="M-486.4,443.2c0,0,4.3-5.4,10.7-1.1C-475.7,442-481,446.2-486.4,443.2z"/>
				</g>
				<g>
					<path class="st2" d="M-576.2,438.4c0,0-0.1-6.9-7.8-7.5C-584,430.9-582.4,437.5-576.2,438.4z"/>
					<path class="st1" d="M-577.9,443.2c0,0-4.3-5.4-10.7-1.1C-588.7,442-583.4,446.2-577.9,443.2z"/>
				</g>
			</g>
		</g>
		<g>
			<g>
				<path class="st1" d="M-557.5,363.1l45.2,45.2c0.8-0.8,1.6-1.5,2.3-2.3l-44.1-44.1C-555.2,362.2-556.4,362.6-557.5,363.1z"/>
				<path class="st3" d="M-563.4,367.4l45.8,45.8c0.8-0.7,1.7-1.4,2.5-2.2l-45.8-45.8C-561.9,365.9-562.7,366.6-563.4,367.4z"/>
				<path class="st3" d="M-566.9,373.1l31.2,31.6l12.3,12.3l-0.1,0.1l0.4,0.4c0.8-0.5,1.6-1.1,2.4-1.7l-44.8-45.4
					C-566.1,371.2-566.5,372.1-566.9,373.1z"/>
				<path class="st1" d="M-540.4,370.9v-6.8c-0.9-0.6-1.9-1-2.9-1.4v5.6l2.7,2.7H-540.4z"/>
				<path class="st4" d="M-533.5,370.6c-0.8-0.5-1.3-1.2-1.3-1.2c-0.5-0.7-1-1.4-1.6-2v7.8l2.9,2.9V370.6z"/>
				<path class="st4" d="M-526.9,366.8c-0.8,0.8-1.5,1.6-2.1,2.5c0,0-0.3,0.4-0.8,0.9v11.5l2.9,2.9V366.8z"/>
				<path class="st5" d="M-519.7,362.3c-1,0.3-2,0.7-2.9,1.2V383l2.9-2.9V362.3z"/>
				<path class="st5" d="M-513,361.4c-0.3,0-0.7,0-1,0c-0.6,0-1.3,0-1.9,0.1v14.8l2.9-2.9V361.4z"/>
				<path class="st6" d="M-506.3,363.2c-0.7-0.3-1.5-0.6-2.3-0.9h-0.6v7.4l2.9-2.9V363.2z"/>
				<path class="st6" d="M-496.7,373.9c-0.3-1-0.8-2-1.3-2.9h-8.4l-2.9,2.9H-496.7z"/>
				<path class="st5" d="M-495.7,380.7c0-0.3,0-0.6,0-1c0-0.7,0-1.3-0.1-1.9h-17.4l-2.2,2.2v0.7H-495.7z"/>
				<path class="st5" d="M-497.5,387.8c0.2-0.5,0.3-0.9,0.5-1.3c0.2-0.5,0.4-1,0.5-1.6h-23.9l-2.9,2.9H-497.5z"/>
				<path class="st4" d="M-501.4,395.3c0.6-1,1.2-1.9,1.8-2.9h-19.5l2.9,2.9H-501.4z"/>
				<polygon points="-520.5,395.3 -520.4,395.3 -520.5,395.1 				"/>
				<path class="st4" d="M-506.4,402.1c0.8-1,1.6-1.9,2.3-2.9h-8.3l2.9,2.9H-506.4z"/>
				<path class="st7" d="M-567.4,383.2c0.1,1,0.3,2,0.6,2.9h7.4v-0.3l-2.6-2.6H-567.4z"/>
				<path class="st7" d="M-568,377.1c-0.1,0.8-0.2,1.7-0.2,2.6c0,0.1,0,0.2,0,0.3h3.7l-2.9-2.9H-568z"/>
				<path class="st7" d="M-565.7,389.1c0.4,1,0.8,1.9,1.3,2.9h11v-0.3l-2.6-2.6H-565.7z"/>
				<path class="st7" d="M-550.7,395.1h-11.9c0.6,1,1.3,2,2,2.9h7.6l2.3-2.3V395.1z"/>
				<path class="st7" d="M-557,401h-1.4c0.3,0.4,0.7,0.8,1.1,1.3l0.3-0.3V401z"/>
				<path class="st8" d="M-555.3,404.5c0.6,0.7,1.2,1.3,1.8,2l7.7-7.7l-1.9-1.9L-555.3,404.5z"/>
				<path class="st8" d="M-550.8,409.1c0.7,0.7,1.4,1.3,2.1,2l7.6-7.6l-2.1-2.1L-550.8,409.1z"/>
				<path class="st8" d="M-545.4,413.9c0.8,0.6,1.6,1.2,2.3,1.8l7.1-7.1l-2.1-2.1L-545.4,413.9z"/>
				<path class="st8" d="M-539.3,418.4c0.9,0.6,1.8,1.1,2.6,1.5l6.1-6.1l-2.1-2.1L-539.3,418.4z"/>
				<path class="st8" d="M-532.5,421.6c0.2,0,0.4,0.1,0.6,0.1c1.5-0.1,3.7-1.1,6.4-2.8l-2-2L-532.5,421.6z"/>
				<g>
					<path class="st6" d="M-501.5,366.5l-1.5,1.5h3C-500.5,367-501,367-501.5,366.5z"/>
				</g>
			</g>
			<path class="st1" d="M-547.9,361.5c-0.7-0.1-1.5-0.1-2.3-0.1c-0.1,0-0.2,0-0.2,0l2.5,2.5V361.5z"/>
		</g>
	</g>
</g>
</svg>
