<?xml version="1.0" encoding="utf-8"?>
<!-- Generator: Adobe Illustrator 19.0.0, SVG Export Plug-In . SVG Version: 6.00 Build 0)  -->
<svg version="1.1" id="Capa_1" xmlns="http://www.w3.org/2000/svg" xmlns:xlink="http://www.w3.org/1999/xlink" x="0px" y="0px"
	 viewBox="404.9 -113.8 45.5 38" style="enable-background:new 404.9 -113.8 45.5 38;" xml:space="preserve">
<style type="text/css">
	.st0{fill:#78C8D7;}
</style>
<g>
	<g id="XMLID_220_">
		<g id="XMLID_221_">
			<g id="XMLID_223_">
				<path id="XMLID_250_" class="st0" d="M411.6-112.7L440-84.3c0.5-0.5,1-1,1.5-1.5l-27.7-27.7C413-113.3,412.3-113,411.6-112.7z"
					/>
				<path id="XMLID_249_" class="st0" d="M407.9-110l28.8,28.8c0.5-0.4,1-0.9,1.6-1.4l-28.8-28.8C408.9-111,408.4-110.5,407.9-110z"
					/>
				<path id="XMLID_248_" class="st0" d="M405.7-106.4l19.6,19.9l7.7,7.7l0,0l0.2,0.2c0.5-0.3,1-0.7,1.5-1.1l-28.2-28.5
					C406.2-107.6,405.9-107,405.7-106.4z"/>
				<path id="XMLID_247_" class="st0" d="M422.4-107.8v-4.3c-0.6-0.4-1.2-0.7-1.8-0.9v3.5L422.4-107.8L422.4-107.8L422.4-107.8z"/>
				<path id="XMLID_246_" class="st0" d="M426.7-108c-0.5-0.3-0.8-0.8-0.8-0.8c-0.3-0.4-0.6-0.8-1-1.2v4.9l1.8,1.8V-108z"/>
				<path id="XMLID_245_" class="st0" d="M430.8-110.4c-0.5,0.5-0.9,1-1.3,1.6c0,0-0.2,0.3-0.5,0.5v7.2l1.8,1.8V-110.4z"/>
				<path id="XMLID_244_" class="st0" d="M435.4-113.2c-0.6,0.2-1.3,0.5-1.8,0.8v12.2l1.8-1.8V-113.2z"/>
				<path id="XMLID_243_" class="st0" d="M439.6-113.7c-0.2,0-0.4,0-0.6,0c-0.4,0-0.8,0-1.2,0.1v9.3l1.8-1.8L439.6-113.7
					L439.6-113.7z"/>
				<path id="XMLID_242_" class="st0" d="M443.8-112.6c-0.5-0.2-0.9-0.4-1.4-0.6H442v4.7l1.8-1.8V-112.6z"/>
				<path id="XMLID_241_" class="st0" d="M449.8-105.9c-0.2-0.6-0.5-1.3-0.8-1.8h-5.3l-1.8,1.8H449.8z"/>
				<path id="XMLID_240_" class="st0" d="M450.4-101.6c0-0.2,0-0.4,0-0.6c0-0.4,0-0.8-0.1-1.2h-10.9L438-102v0.4L450.4-101.6
					L450.4-101.6z"/>
				<path id="XMLID_239_" class="st0" d="M449.3-97.2c0.1-0.3,0.2-0.6,0.3-0.8c0.1-0.3,0.2-0.7,0.3-1h-15l-1.8,1.8H449.3z"/>
				<path id="XMLID_238_" class="st0" d="M446.9-92.4c0.4-0.6,0.8-1.2,1.1-1.8h-12.3l1.8,1.8H446.9z"/>
				<polygon id="XMLID_237_" class="st0" points="434.8,-92.4 435,-92.4 434.8,-92.6 				"/>
				<path id="XMLID_236_" class="st0" d="M443.7-88.2c0.5-0.6,1-1.2,1.5-1.8H440l1.8,1.8H443.7z"/>
				<path id="XMLID_235_" class="st0" d="M405.4-100.1c0.1,0.6,0.2,1.2,0.4,1.8h4.7v-0.2l-1.7-1.7h-3.4V-100.1z"/>
				<path id="XMLID_234_" class="st0" d="M405-103.9c-0.1,0.5-0.1,1.1-0.1,1.6c0,0.1,0,0.1,0,0.2h2.3l-1.8-1.8L405-103.9L405-103.9z
					"/>
				<path id="XMLID_233_" class="st0" d="M406.4-96.3c0.2,0.6,0.5,1.2,0.8,1.8h6.9v-0.2l-1.7-1.7h-6V-96.3z"/>
				<path id="XMLID_232_" class="st0" d="M415.9-92.6h-7.5c0.4,0.6,0.8,1.2,1.3,1.8h4.8l1.4-1.4L415.9-92.6L415.9-92.6z"/>
				<path id="XMLID_231_" class="st0" d="M412-88.9h-0.9c0.2,0.3,0.4,0.5,0.7,0.8l0.2-0.2L412-88.9L412-88.9z"/>
				<path id="XMLID_230_" class="st0" d="M413-86.7c0.4,0.4,0.8,0.8,1.2,1.2l4.9-4.9l-1.2-1.2L413-86.7z"/>
				<path id="XMLID_229_" class="st0" d="M415.8-83.8c0.4,0.4,0.9,0.8,1.3,1.2l4.8-4.8l-1.3-1.3L415.8-83.8z"/>
				<path id="XMLID_228_" class="st0" d="M419.2-80.8c0.5,0.4,1,0.8,1.5,1.1l4.5-4.5l-1.3-1.3L419.2-80.8z"/>
				<path id="XMLID_227_" class="st0" d="M423.1-78c0.6,0.4,1.1,0.7,1.6,1l3.8-3.8l-1.3-1.3L423.1-78z"/>
				<path id="XMLID_226_" class="st0" d="M427.3-75.9c0.1,0,0.3,0,0.4,0.1c0.9-0.1,2.4-0.7,4-1.7l-1.3-1.3L427.3-75.9z"/>
				<g id="XMLID_224_">
					<path id="XMLID_225_" class="st0" d="M446.8-111.2l-1,1h1.9C447.4-110.2,447.1-110.9,446.8-111.2z"/>
				</g>
			</g>
			<path id="XMLID_222_" class="st0" d="M417.6-113.7c-0.5-0.1-0.9-0.1-1.4-0.1c-0.1,0-0.1,0-0.1,0l1.6,1.6v-1.5H417.6z"/>
		</g>
	</g>
</g>
</svg>
