<?xml version="1.0" encoding="utf-8"?>
<!-- Generator: Adobe Illustrator 24.0.3, SVG Export Plug-In . SVG Version: 6.00 Build 0)  -->
<svg version="1.1" id="Capa_1" xmlns="http://www.w3.org/2000/svg" xmlns:xlink="http://www.w3.org/1999/xlink" x="0px" y="0px"
	 viewBox="0 0 182.55 37.68" style="enable-background:new 0 0 182.55 37.68;" xml:space="preserve">
<style type="text/css">
	.st0{fill-rule:evenodd;clip-rule:evenodd;fill:#F1F2F2;}
	.st1{fill:#19821C;}
</style>
<g>
	<g>
		<path class="st0" d="M27.64,22.53c-0.46-0.25-2.72-1.47-3.14-1.65c-0.42-0.17-0.73-0.26-1.06,0.2c-0.33,0.46-1.27,1.48-1.55,1.78
			c-0.29,0.3-0.56,0.33-1.02,0.08c-0.46-0.25-1.95-0.8-3.68-2.47c-1.35-1.29-2.23-2.86-2.48-3.34c-0.26-0.48,0-0.72,0.24-0.95
			c0.22-0.2,0.49-0.53,0.73-0.8c0.24-0.26,0.33-0.46,0.5-0.76c0.17-0.31,0.1-0.58-0.01-0.82c-0.11-0.24-0.96-2.58-1.31-3.53
			c-0.36-0.95-0.75-0.81-1.02-0.82c-0.27-0.01-0.59-0.06-0.9-0.07c-0.31-0.01-0.83,0.09-1.27,0.54c-0.45,0.45-1.7,1.54-1.79,3.85
			c-0.09,2.31,1.51,4.6,1.73,4.92c0.22,0.32,3.05,5.32,7.74,7.37c4.69,2.06,4.72,1.43,5.58,1.38c0.86-0.04,2.81-1.03,3.25-2.11
			c0.43-1.08,0.46-2.02,0.36-2.22C28.41,22.91,28.1,22.78,27.64,22.53L27.64,22.53z M19.03,33.64c-3.1,0-5.99-0.93-8.4-2.53
			l-5.87,1.88l1.91-5.67c-1.83-2.52-2.91-5.61-2.91-8.96c0-8.43,6.85-15.28,15.28-15.28c8.43,0,15.28,6.85,15.28,15.28
			C34.31,26.78,27.46,33.64,19.03,33.64L19.03,33.64z M19.03,0C8.9,0,0.68,8.22,0.68,18.36c0,3.47,0.96,6.71,2.63,9.48L0,37.68
			l10.16-3.25c2.63,1.45,5.65,2.28,8.87,2.28c10.14,0,18.36-8.22,18.36-18.36C37.39,8.22,29.17,0,19.03,0L19.03,0z"/>
	</g>
	<g>
		<path class="st1" d="M56.47,22.58l0.39,2.62l0.09,0.01l0.56-2.63l3.84-13.7h2.5l3.87,13.7l0.58,2.69h0.09l0.42-2.69l3.12-13.7
			h2.83l-5.05,20.95h-2.53L63.04,15.3l-0.37-1.89h-0.09l-0.36,1.89l-4.2,14.54h-2.53L50.45,8.88h2.82L56.47,22.58z"/>
		<path class="st1" d="M80.6,16.35c0.54-0.75,1.2-1.33,1.98-1.75c0.78-0.42,1.65-0.63,2.6-0.63c1.66,0,2.95,0.5,3.88,1.5
			c0.93,1,1.39,2.53,1.39,4.6v9.76h-2.83v-9.79c0-1.29-0.28-2.24-0.83-2.85c-0.55-0.61-1.38-0.92-2.47-0.92
			c-0.79,0-1.5,0.18-2.14,0.55c-0.64,0.37-1.16,0.87-1.58,1.5v11.5h-2.83V7.39h2.83V16.35z"/>
		<path class="st1" d="M104.09,29.84c-0.1-0.47-0.17-0.89-0.22-1.24c-0.05-0.36-0.08-0.72-0.09-1.09c-0.53,0.75-1.22,1.37-2.07,1.88
			c-0.85,0.5-1.76,0.76-2.74,0.76c-1.62,0-2.86-0.42-3.71-1.24c-0.85-0.83-1.27-1.97-1.27-3.43c0-1.49,0.6-2.65,1.81-3.49
			c1.2-0.84,2.84-1.26,4.9-1.26h3.08v-1.54c0-0.91-0.28-1.63-0.83-2.17c-0.56-0.53-1.34-0.8-2.36-0.8c-0.91,0-1.65,0.23-2.22,0.7
			c-0.57,0.47-0.86,1.02-0.86,1.68h-2.71l-0.03-0.09c-0.06-1.13,0.48-2.17,1.6-3.11c1.13-0.94,2.58-1.41,4.37-1.41
			c1.77,0,3.19,0.45,4.26,1.35c1.08,0.9,1.61,2.19,1.61,3.88v7.5c0,0.56,0.03,1.09,0.09,1.61c0.06,0.52,0.16,1.03,0.32,1.53H104.09z
			 M99.38,27.75c1.03,0,1.95-0.26,2.78-0.79c0.83-0.53,1.36-1.13,1.61-1.81v-2.53h-3.18c-1.14,0-2.06,0.29-2.74,0.86
			c-0.69,0.57-1.03,1.25-1.03,2.02c0,0.69,0.22,1.23,0.65,1.64C97.9,27.55,98.54,27.75,99.38,27.75z"/>
		<path class="st1" d="M114.46,10.51v3.76h2.95v2.1h-2.95v9.46c0,0.73,0.15,1.24,0.45,1.54c0.3,0.3,0.7,0.45,1.2,0.45
			c0.16,0,0.34-0.02,0.54-0.06c0.2-0.04,0.37-0.09,0.53-0.14l0.37,1.94c-0.21,0.17-0.52,0.31-0.93,0.42
			c-0.41,0.11-0.82,0.17-1.23,0.17c-1.15,0-2.07-0.35-2.75-1.04c-0.68-0.7-1.02-1.79-1.02-3.27v-9.46h-2.48v-2.1h2.48v-3.76H114.46z
			"/>
		<path class="st1" d="M129.96,25.69c0-0.62-0.24-1.14-0.71-1.54c-0.47-0.4-1.37-0.75-2.7-1.05c-1.89-0.41-3.31-0.97-4.27-1.67
			c-0.96-0.7-1.43-1.66-1.43-2.88c0-1.26,0.54-2.34,1.61-3.23c1.07-0.89,2.48-1.34,4.2-1.34c1.81,0,3.25,0.47,4.32,1.4
			c1.07,0.93,1.58,2.06,1.53,3.4l-0.03,0.09h-2.71c0-0.68-0.29-1.29-0.86-1.83c-0.57-0.54-1.33-0.81-2.27-0.81
			c-1.01,0-1.76,0.22-2.25,0.66c-0.49,0.44-0.73,0.97-0.73,1.6c0,0.61,0.22,1.1,0.65,1.45c0.43,0.35,1.31,0.67,2.63,0.95
			c1.97,0.42,3.43,1,4.39,1.72c0.96,0.72,1.44,1.7,1.44,2.91c0,1.38-0.56,2.5-1.68,3.35c-1.12,0.85-2.58,1.28-4.38,1.28
			c-1.99,0-3.55-0.5-4.69-1.51c-1.14-1.01-1.68-2.18-1.63-3.53l0.03-0.09h2.71c0.05,1,0.42,1.73,1.12,2.2
			c0.7,0.46,1.52,0.69,2.46,0.69c1.01,0,1.8-0.2,2.37-0.61C129.68,26.89,129.96,26.35,129.96,25.69z"/>
		<path class="st1" d="M145.89,29.84c-0.1-0.47-0.17-0.89-0.22-1.24c-0.05-0.36-0.08-0.72-0.09-1.09c-0.53,0.75-1.22,1.37-2.07,1.88
			c-0.85,0.5-1.76,0.76-2.74,0.76c-1.62,0-2.86-0.42-3.71-1.24c-0.85-0.83-1.27-1.97-1.27-3.43c0-1.49,0.6-2.65,1.81-3.49
			c1.2-0.84,2.84-1.26,4.9-1.26h3.08v-1.54c0-0.91-0.28-1.63-0.83-2.17c-0.56-0.53-1.34-0.8-2.36-0.8c-0.91,0-1.65,0.23-2.22,0.7
			c-0.57,0.47-0.86,1.02-0.86,1.68h-2.71l-0.03-0.09c-0.06-1.13,0.48-2.17,1.6-3.11c1.13-0.94,2.58-1.41,4.37-1.41
			c1.77,0,3.19,0.45,4.26,1.35c1.08,0.9,1.61,2.19,1.61,3.88v7.5c0,0.56,0.03,1.09,0.09,1.61c0.06,0.52,0.16,1.03,0.32,1.53H145.89z
			 M141.19,27.75c1.03,0,1.95-0.26,2.78-0.79c0.83-0.53,1.36-1.13,1.61-1.81v-2.53h-3.18c-1.14,0-2.06,0.29-2.74,0.86
			c-0.69,0.57-1.03,1.25-1.03,2.02c0,0.69,0.22,1.23,0.65,1.64C139.71,27.55,140.34,27.75,141.19,27.75z"/>
		<path class="st1" d="M165.8,22.64c0,2.24-0.54,4.06-1.61,5.43c-1.08,1.38-2.56,2.07-4.45,2.07c-0.96,0-1.8-0.16-2.53-0.48
			c-0.72-0.32-1.34-0.8-1.85-1.45v7.61h-2.83V14.26h2.17l0.45,2.01c0.51-0.75,1.14-1.32,1.9-1.71c0.76-0.39,1.64-0.59,2.65-0.59
			c1.93,0,3.43,0.77,4.5,2.3c1.07,1.53,1.6,3.55,1.6,6.07V22.64z M162.96,22.33c0-1.76-0.35-3.21-1.04-4.35
			c-0.7-1.14-1.72-1.7-3.07-1.7c-0.82,0-1.51,0.18-2.09,0.55c-0.58,0.37-1.04,0.87-1.4,1.52v7.52c0.36,0.64,0.82,1.14,1.4,1.5
			c0.58,0.36,1.28,0.54,2.12,0.54c1.34,0,2.36-0.49,3.05-1.47c0.69-0.98,1.04-2.25,1.04-3.8V22.33z"/>
		<path class="st1" d="M182.55,22.64c0,2.24-0.54,4.06-1.61,5.43c-1.08,1.38-2.56,2.07-4.45,2.07c-0.96,0-1.8-0.16-2.53-0.48
			c-0.72-0.32-1.34-0.8-1.85-1.45v7.61h-2.84V14.26h2.17l0.45,2.01c0.51-0.75,1.14-1.32,1.9-1.71c0.76-0.39,1.64-0.59,2.65-0.59
			c1.93,0,3.43,0.77,4.5,2.3c1.07,1.53,1.6,3.55,1.6,6.07V22.64z M179.71,22.33c0-1.76-0.35-3.21-1.04-4.35
			c-0.7-1.14-1.72-1.7-3.07-1.7c-0.82,0-1.51,0.18-2.09,0.55c-0.58,0.37-1.04,0.87-1.4,1.52v7.52c0.36,0.64,0.82,1.14,1.4,1.5
			c0.58,0.36,1.28,0.54,2.12,0.54c1.34,0,2.36-0.49,3.05-1.47c0.69-0.98,1.04-2.25,1.04-3.8V22.33z"/>
	</g>
</g>
</svg>
