<?xml version="1.0" encoding="utf-8"?>
<!-- Generator: Adobe Illustrator 24.0.3, SVG Export Plug-In . SVG Version: 6.00 Build 0)  -->
<svg version="1.1" id="Capa_1" xmlns="http://www.w3.org/2000/svg" xmlns:xlink="http://www.w3.org/1999/xlink" x="0px" y="0px"
	 viewBox="0 0 628.96 524.06" style="enable-background:new 0 0 628.96 524.06;" xml:space="preserve">
<style type="text/css">
	.st0{fill:#86E74F;}
	.st1{fill:#FFEA40;}
	.st2{fill:#62DBFF;}
	.st3{fill:#2776FF;}
	.st4{fill:#986EFF;}
	.st5{fill:#FFBB40;}
	.st6{fill:#FF6E65;}
</style>
<g>
	<g>
		<path class="st0" d="M92.52,14.91l392.74,392.76c6.78-6.59,13.49-13.4,20.13-20.33L122.65,4.62
			C112.16,7.05,102.09,10.52,92.52,14.91z"/>
		<path class="st1" d="M41.06,52.67l397.35,397.36c7.2-6.02,14.41-12.26,21.67-18.76l-397.97-398
			C54.53,39.09,47.47,45.57,41.06,52.67z"/>
		<path class="st1" d="M10.86,101.51L282.05,376l106.42,106.43l-0.65,0.67l3.18,3.19c6.73-4.65,13.69-9.68,20.77-15.08L22.69,77.37
			C18.07,85,14.13,93.09,10.86,101.51z"/>
		<path class="st0" d="M240.85,82.84V23.37c-8.02-4.85-16.5-9.04-25.38-12.43v48.42l23.47,23.48H240.85z"/>
		<path class="st2" d="M301.17,79.84c-7.38-4.29-11.67-10.7-11.67-10.7c-4.17-6.02-8.76-11.73-13.72-17.14v67.68l25.38,25.38V79.84z
			"/>
		<path class="st2" d="M357.86,47.12c-6.78,6.76-12.94,14.13-18.4,22.02c0,0-2.52,3.78-7.01,7.45v99.76l25.41,25.4V47.12z"/>
		<path class="st3" d="M420.89,8.3c-8.8,2.88-17.29,6.5-25.36,10.84v168.71l25.36-25.37V8.3z"/>
		<path class="st3" d="M479.06,0.7c-2.93-0.16-5.86-0.24-8.8-0.24c-5.6,0-11.14,0.3-16.58,0.88v128.38l25.38-25.38V0.7z"/>
		<path class="st4" d="M536.97,15.98c-6.41-2.97-13.05-5.58-19.9-7.68h-5.49v64.29l25.39-25.37V15.98z"/>
		<path class="st4" d="M620.59,109.14c-2.97-8.83-6.71-17.34-11.14-25.38h-73.13l-25.38,25.38H620.59z"/>
		<path class="st3" d="M628.73,167.74c0.14-2.83,0.24-5.64,0.24-8.5c0-5.71-0.33-11.34-0.9-16.89H476.94l-19.37,19.36v6.03H628.73z"
			/>
		<path class="st3" d="M613.56,229.48c1.47-3.92,2.88-7.83,4.1-11.7c1.8-4.47,3.39-9.04,4.78-13.69H415.2l-25.39,25.39H613.56z"/>
		<path class="st2" d="M579.62,294.78c5.47-8.44,10.56-16.92,15.24-25.4H425.5l25.38,25.4H579.62z"/>
		<polygon points="413.37,294.78 414.99,294.78 413.37,293.14 		"/>
		<path class="st2" d="M535.85,353.42c7.03-8.33,13.85-16.82,20.35-25.4h-72.05l25.39,25.4H535.85z"/>
		<path class="st5" d="M6.17,189.44c1.03,8.7,2.76,17.16,5.16,25.37h64.62v-2.54l-22.82-22.84H6.17z"/>
		<path class="st5" d="M1.61,136.88C0.58,144.17,0,151.66,0,159.24c0,1.03,0.07,2.01,0.07,3h32.32L7.01,136.88H1.61z"/>
		<path class="st5" d="M21.01,241.06c3.14,8.4,6.83,16.86,10.97,25.37h95.29v-2.56l-22.83-22.81H21.01z"/>
		<path class="st5" d="M151.38,292.68H48c5.44,8.51,11.23,16.99,17.36,25.38h66.01l20.01-20.01V292.68z"/>
		<path class="st5" d="M97.25,343.91H85.26c3.02,3.71,6.11,7.39,9.22,11.04l2.77-2.73V343.91z"/>
		<path class="st6" d="M111.24,374.09c5.26,5.77,10.58,11.45,15.98,17.04l67.02-67.04l-16.5-16.47L111.24,374.09z"/>
		<path class="st6" d="M150.85,414.57c6.2,5.9,12.43,11.65,18.65,17.23l66.21-66.22l-17.93-17.96L150.85,414.57z"/>
		<path class="st6" d="M197.44,455.7c6.78,5.55,13.49,10.81,20.11,15.81l62.04-62.05l-17.93-17.96L197.44,455.7z"/>
		<path class="st6" d="M250.68,494.8c7.84,5.07,15.35,9.59,22.43,13.44l52.64-52.63l-17.94-17.95L250.68,494.8z"/>
		<path class="st6" d="M309.4,523.23c1.77,0.41,3.48,0.67,5.1,0.83c12.98-1.27,32.53-9.94,55.61-24.09l-17.73-17.75L309.4,523.23z"
			/>
		<g>
			<path class="st4" d="M577.75,43.24l-13.34,13.33h25.98C586.6,52.57,582.4,47.58,577.75,43.24z"/>
		</g>
	</g>
	<path class="st0" d="M175.69,1.23C169.21,0.41,162.61,0,155.92,0c-0.69,0-1.38,0.04-2.05,0.04l21.82,21.83V1.23z"/>
</g>
</svg>
