<?xml version="1.0" encoding="utf-8"?>
<!-- Generator: Adobe Illustrator 24.0.3, SVG Export Plug-In . SVG Version: 6.00 Build 0)  -->
<svg version="1.1" id="Capa_1" xmlns="http://www.w3.org/2000/svg" xmlns:xlink="http://www.w3.org/1999/xlink" x="0px" y="0px"
	 viewBox="0 0 37.39 37.68" style="enable-background:new 0 0 37.39 37.68;" xml:space="preserve">
<style type="text/css">
	.st0{fill-rule:evenodd;clip-rule:evenodd;fill:#F1F2F2;}
</style>
<g>
	<path class="st0" d="M27.64,22.53c-0.46-0.25-2.72-1.47-3.14-1.65c-0.42-0.17-0.73-0.26-1.06,0.2c-0.33,0.46-1.27,1.48-1.55,1.78
		c-0.29,0.3-0.56,0.33-1.02,0.08c-0.46-0.25-1.95-0.8-3.68-2.47c-1.35-1.29-2.23-2.86-2.48-3.34c-0.26-0.48,0-0.72,0.24-0.95
		c0.22-0.2,0.49-0.53,0.73-0.8c0.24-0.26,0.33-0.46,0.5-0.76c0.17-0.31,0.1-0.58-0.01-0.82c-0.11-0.24-0.96-2.58-1.31-3.53
		c-0.36-0.95-0.75-0.81-1.02-0.82c-0.27-0.01-0.59-0.06-0.9-0.07c-0.31-0.01-0.83,0.09-1.27,0.54c-0.45,0.45-1.7,1.54-1.79,3.85
		c-0.09,2.31,1.51,4.6,1.73,4.92c0.22,0.32,3.05,5.32,7.74,7.37c4.69,2.06,4.72,1.43,5.58,1.38c0.86-0.04,2.81-1.03,3.25-2.11
		c0.43-1.08,0.46-2.02,0.36-2.22C28.41,22.91,28.1,22.78,27.64,22.53L27.64,22.53z M19.03,33.64c-3.1,0-5.99-0.93-8.4-2.53
		l-5.87,1.88l1.91-5.67c-1.83-2.52-2.91-5.61-2.91-8.96c0-8.43,6.85-15.28,15.28-15.28c8.43,0,15.28,6.85,15.28,15.28
		C34.31,26.78,27.46,33.64,19.03,33.64L19.03,33.64z M19.03,0C8.9,0,0.68,8.22,0.68,18.36c0,3.47,0.96,6.71,2.63,9.48L0,37.68
		l10.16-3.25c2.63,1.45,5.65,2.28,8.87,2.28c10.14,0,18.36-8.22,18.36-18.36C37.39,8.22,29.17,0,19.03,0L19.03,0z"/>
</g>
</svg>
