<?xml version="1.0" encoding="utf-8"?>
<!-- Generator: Adobe Illustrator 24.0.3, SVG Export Plug-In . SVG Version: 6.00 Build 0)  -->
<svg version="1.1" id="Capa_1" xmlns="http://www.w3.org/2000/svg" xmlns:xlink="http://www.w3.org/1999/xlink" x="0px" y="0px"
	 viewBox="0 0 171 126.15" style="enable-background:new 0 0 171 126.15;" xml:space="preserve">
<style type="text/css">
	.st0{fill:#1D1D1B;}
	.st1{fill:#70E122;}
	.st2{fill:#F8DC14;}
	.st3{fill:#2ED6F8;}
	.st4{fill:#0069F8;}
	.st5{fill:#6B39F8;}
	.st6{fill:#F8A314;}
	.st7{fill:#F83831;}
</style>
<g>
	<g>
		<g>
			<path d="M27.39,110.47c0.59,0,1.09,0.1,1.51,0.3c0.42,0.2,0.76,0.47,1.03,0.81c0.27,0.35,0.47,0.76,0.59,1.23
				c0.12,0.48,0.19,0.99,0.19,1.55v1.28h-0.97v-1.34c0-0.41-0.04-0.79-0.12-1.15c-0.08-0.35-0.22-0.66-0.41-0.92
				c-0.19-0.26-0.43-0.47-0.73-0.62c-0.29-0.15-0.65-0.22-1.08-0.22s-0.79,0.07-1.08,0.22c-0.29,0.15-0.54,0.35-0.73,0.62
				c-0.19,0.26-0.33,0.57-0.41,0.92c-0.08,0.35-0.12,0.73-0.12,1.15v8.01c0,0.41,0.04,0.79,0.12,1.14c0.08,0.35,0.22,0.66,0.41,0.91
				c0.19,0.26,0.43,0.46,0.73,0.61c0.29,0.15,0.65,0.22,1.08,0.22s0.79-0.07,1.08-0.22c0.29-0.15,0.54-0.35,0.73-0.61
				c0.19-0.26,0.33-0.56,0.41-0.91c0.08-0.35,0.12-0.73,0.12-1.14v-1.83h0.97v1.76c0,0.56-0.06,1.08-0.19,1.55
				c-0.12,0.48-0.32,0.89-0.59,1.23c-0.27,0.35-0.62,0.62-1.03,0.81c-0.42,0.2-0.92,0.3-1.51,0.3c-0.59,0-1.09-0.1-1.51-0.3
				c-0.42-0.2-0.76-0.47-1.03-0.81c-0.27-0.34-0.47-0.76-0.59-1.23c-0.12-0.48-0.19-0.99-0.19-1.55v-7.88
				c0-0.56,0.06-1.08,0.19-1.55c0.12-0.48,0.32-0.89,0.59-1.23c0.27-0.34,0.62-0.62,1.03-0.81C26.3,110.57,26.8,110.47,27.39,110.47
				z"/>
			<path d="M36.7,114.37c0-0.56,0.07-1.08,0.2-1.55c0.13-0.48,0.33-0.89,0.61-1.23c0.27-0.34,0.62-0.62,1.05-0.81
				c0.43-0.2,0.93-0.3,1.52-0.3c0.59,0,1.1,0.1,1.53,0.3c0.43,0.2,0.79,0.47,1.07,0.81c0.28,0.35,0.48,0.76,0.62,1.23
				c0.13,0.48,0.2,0.99,0.2,1.55v7.88c0,0.56-0.07,1.08-0.2,1.55c-0.13,0.48-0.34,0.89-0.62,1.23c-0.28,0.35-0.63,0.62-1.07,0.81
				c-0.43,0.2-0.94,0.3-1.53,0.3c-0.59,0-1.09-0.1-1.52-0.3c-0.43-0.2-0.77-0.47-1.05-0.81c-0.27-0.34-0.47-0.76-0.61-1.23
				c-0.13-0.48-0.2-0.99-0.2-1.55V114.37z M37.71,122.32c0,0.84,0.18,1.53,0.54,2.08c0.36,0.55,0.97,0.83,1.82,0.83
				c0.85,0,1.46-0.28,1.84-0.83c0.37-0.55,0.56-1.24,0.56-2.08v-8.01c0-0.84-0.19-1.53-0.56-2.08c-0.37-0.55-0.99-0.83-1.84-0.83
				c-0.85,0-1.46,0.28-1.82,0.83c-0.36,0.55-0.54,1.24-0.54,2.08V122.32z"/>
			<path d="M52.77,110.6c1.17,0,2.02,0.31,2.53,0.92c0.51,0.62,0.77,1.47,0.77,2.55v1.34c0,1.79-0.74,2.86-2.22,3.19
				c0.79,0.18,1.36,0.54,1.71,1.08c0.34,0.54,0.52,1.23,0.52,2.07v2.4c0,0.32,0.02,0.65,0.07,0.98c0.04,0.33,0.15,0.62,0.31,0.87
				h-1.06c-0.13-0.23-0.22-0.5-0.26-0.78c-0.04-0.29-0.07-0.64-0.07-1.07v-2.42c0-0.51-0.07-0.94-0.2-1.28
				c-0.13-0.34-0.33-0.61-0.58-0.8c-0.26-0.2-0.56-0.34-0.91-0.42c-0.35-0.08-0.75-0.12-1.19-0.12h-1.61v6.89h-1.01V110.6H52.77z
				 M52.2,118.2c0.45,0,0.86-0.04,1.21-0.11c0.35-0.07,0.65-0.21,0.89-0.4c0.24-0.19,0.43-0.45,0.56-0.79
				c0.13-0.34,0.2-0.76,0.2-1.28v-1.45c0-0.84-0.18-1.49-0.53-1.95c-0.35-0.46-0.95-0.69-1.78-0.69h-2.18v6.67H52.2z"/>
			<path d="M63.93,122.6l-0.77,3.41h-0.92l3.37-15.43h1.48l3.43,15.43H69.5l-0.77-3.41H63.93z M64.09,121.72h4.49l-2.27-9.97
				L64.09,121.72z"/>
			<path d="M83.26,126.01h-6.94v-0.92l5.97-13.56h-5.68v-0.92h6.74v0.95l-5.97,13.54h5.88V126.01z"/>
			<path d="M89.34,114.37c0-0.56,0.07-1.08,0.2-1.55c0.13-0.48,0.33-0.89,0.61-1.23c0.27-0.34,0.62-0.62,1.05-0.81
				c0.43-0.2,0.93-0.3,1.52-0.3c0.59,0,1.1,0.1,1.53,0.3c0.43,0.2,0.79,0.47,1.07,0.81c0.28,0.35,0.48,0.76,0.62,1.23
				c0.13,0.48,0.2,0.99,0.2,1.55v7.88c0,0.56-0.07,1.08-0.2,1.55c-0.13,0.48-0.34,0.89-0.62,1.23c-0.28,0.35-0.63,0.62-1.07,0.81
				c-0.43,0.2-0.94,0.3-1.53,0.3c-0.59,0-1.09-0.1-1.52-0.3c-0.43-0.2-0.77-0.47-1.05-0.81c-0.27-0.34-0.47-0.76-0.61-1.23
				c-0.13-0.48-0.2-0.99-0.2-1.55V114.37z M90.35,122.32c0,0.84,0.18,1.53,0.54,2.08c0.36,0.55,0.96,0.83,1.82,0.83
				c0.85,0,1.46-0.28,1.84-0.83c0.38-0.55,0.56-1.24,0.56-2.08v-8.01c0-0.84-0.19-1.53-0.56-2.08c-0.37-0.55-0.99-0.83-1.84-0.83
				c-0.85,0-1.46,0.28-1.82,0.83c-0.36,0.55-0.54,1.24-0.54,2.08V122.32z"/>
			<path d="M102.2,110.6h2.42v13.21h3.99v2.2h-6.41V110.6z"/>
			<path d="M121.9,126.01h-2.44l-0.42-2.8h-2.97l-0.42,2.8h-2.22l2.47-15.41h3.54L121.9,126.01z M116.38,121.13h2.33l-1.17-7.79
				L116.38,121.13z"/>
			<path d="M129.59,114.85v11.16h-2.18V110.6h3.04l2.49,9.23v-9.23h2.16v15.41h-2.49L129.59,114.85z"/>
			<path d="M149.07,126.01h-2.44l-0.42-2.8h-2.97l-0.42,2.8h-2.22l2.47-15.41h3.54L149.07,126.01z M143.55,121.13h2.33l-1.17-7.79
				L143.55,121.13z"/>
		</g>
		<g>
			<g>
				<g>
					<path class="st0" d="M152.08,117.09c0,0,0.22-10.46,11.8-11.31C163.89,105.78,161.44,115.69,152.08,117.09z"/>
					<path class="st0" d="M154.75,124.33c0,0,6.57-8.14,16.25-1.72C171,122.61,163.01,128.94,154.75,124.33z"/>
				</g>
				<g>
					<path class="st0" d="M18.92,117.09c0,0-0.22-10.46-11.8-11.31C7.12,105.78,9.57,115.69,18.92,117.09z"/>
					<path class="st0" d="M16.25,124.33c0,0-6.57-8.14-16.25-1.72C0,122.61,8,128.94,16.25,124.33z"/>
				</g>
			</g>
		</g>
	</g>
	<g>
		<g>
			<path class="st1" d="M46.76,2.61l68.84,68.84c1.19-1.16,2.36-2.35,3.53-3.56L52.04,0.81C50.21,1.24,48.44,1.84,46.76,2.61z"/>
			<path class="st2" d="M37.74,9.23l69.65,69.65c1.26-1.05,2.53-2.15,3.8-3.29L41.43,5.83C40.1,6.85,38.87,7.99,37.74,9.23z"/>
			<path class="st2" d="M32.45,17.79l47.54,48.11l18.65,18.66l-0.11,0.12l0.56,0.56c1.18-0.82,2.4-1.7,3.64-2.64l-68.2-69.03
				C33.71,14.9,33.02,16.32,32.45,17.79z"/>
			<path class="st1" d="M72.76,14.52V4.1c-1.41-0.85-2.89-1.58-4.45-2.18v8.49l4.11,4.12H72.76z"/>
			<path class="st3" d="M83.33,13.99c-1.29-0.75-2.05-1.88-2.05-1.88c-0.73-1.05-1.53-2.06-2.4-3v11.86l4.45,4.45V13.99z"/>
			<path class="st3" d="M93.27,8.26c-1.19,1.18-2.27,2.48-3.22,3.86c0,0-0.44,0.66-1.23,1.31v17.49l4.45,4.45V8.26z"/>
			<path class="st4" d="M104.32,1.45c-1.54,0.51-3.03,1.14-4.44,1.9v29.57l4.44-4.45V1.45z"/>
			<path class="st4" d="M114.52,0.12c-0.51-0.03-1.03-0.04-1.54-0.04c-0.98,0-1.95,0.05-2.91,0.15v22.5l4.45-4.45V0.12z"/>
			<path class="st5" d="M124.67,2.8c-1.12-0.52-2.29-0.98-3.49-1.35h-0.96v11.27l4.45-4.45V2.8z"/>
			<path class="st5" d="M139.32,19.13c-0.52-1.55-1.18-3.04-1.95-4.45h-12.82l-4.45,4.45H139.32z"/>
			<path class="st4" d="M140.75,29.4c0.02-0.5,0.04-0.99,0.04-1.49c0-1-0.06-1.99-0.16-2.96h-26.49l-3.39,3.39v1.06H140.75z"/>
			<path class="st4" d="M138.09,40.22c0.26-0.69,0.51-1.37,0.72-2.05c0.32-0.78,0.59-1.58,0.84-2.4h-36.33l-4.45,4.45H138.09z"/>
			<path class="st3" d="M132.14,51.67c0.96-1.48,1.85-2.97,2.67-4.45h-29.69l4.45,4.45H132.14z"/>
			<polygon points="103,51.67 103.29,51.67 103,51.38 			"/>
			<path class="st3" d="M124.47,61.95c1.23-1.46,2.43-2.95,3.57-4.45h-12.63l4.45,4.45H124.47z"/>
			<path class="st6" d="M31.63,33.21c0.18,1.53,0.48,3.01,0.9,4.45h11.33v-0.44l-4-4H31.63z"/>
			<path class="st6" d="M30.83,23.99c-0.18,1.28-0.28,2.59-0.28,3.92c0,0.18,0.01,0.35,0.01,0.53h5.67l-4.45-4.45H30.83z"/>
			<path class="st6" d="M34.23,42.25c0.55,1.47,1.2,2.96,1.92,4.45h16.7v-0.45l-4-4H34.23z"/>
			<path class="st6" d="M57.08,51.3H38.96c0.95,1.49,1.97,2.98,3.04,4.45h11.57l3.51-3.51V51.3z"/>
			<path class="st6" d="M47.59,60.28h-2.1c0.53,0.65,1.07,1.29,1.62,1.94l0.48-0.48V60.28z"/>
			<path class="st7" d="M50.04,65.57c0.92,1.01,1.86,2.01,2.8,2.99l11.75-11.75l-2.89-2.89L50.04,65.57z"/>
			<path class="st7" d="M56.99,72.67c1.09,1.03,2.18,2.04,3.27,3.02l11.61-11.61l-3.14-3.15L56.99,72.67z"/>
			<path class="st7" d="M65.15,79.88c1.19,0.97,2.36,1.89,3.52,2.77l10.87-10.88l-3.14-3.15L65.15,79.88z"/>
			<path class="st7" d="M74.48,86.73c1.37,0.89,2.69,1.68,3.93,2.36l9.23-9.22l-3.14-3.15L74.48,86.73z"/>
			<path class="st7" d="M84.78,91.71c0.31,0.07,0.61,0.12,0.89,0.15c2.28-0.22,5.7-1.74,9.75-4.22l-3.11-3.11L84.78,91.71z"/>
			<g>
				<path class="st5" d="M131.82,7.76l-2.34,2.34h4.55C133.37,9.1,132.63,8.52,131.82,7.76z"/>
			</g>
		</g>
		<path class="st1" d="M61.34,0.22C60.21,0.07,59.05,0,57.88,0c-0.12,0-0.24,0.01-0.36,0.01l3.83,3.83V0.22z"/>
	</g>
</g>
</svg>
