<?xml version="1.0" encoding="utf-8"?>
<!-- Generator: Adobe Illustrator 24.0.3, SVG Export Plug-In . SVG Version: 6.00 Build 0)  -->
<svg version="1.1" id="Capa_1" xmlns="http://www.w3.org/2000/svg" xmlns:xlink="http://www.w3.org/1999/xlink" x="0px" y="0px"
	 viewBox="0 0 171 20.36" style="enable-background:new 0 0 171 20.36;" xml:space="preserve">
<style type="text/css">
	.st0{fill:#1D1D1B;}
</style>
<g>
	<g>
		<path d="M27.39,4.69c0.59,0,1.09,0.1,1.51,0.3c0.42,0.2,0.76,0.47,1.03,0.81c0.27,0.35,0.47,0.76,0.59,1.23
			c0.12,0.48,0.19,0.99,0.19,1.55v1.28h-0.97V8.52c0-0.41-0.04-0.79-0.12-1.15c-0.08-0.35-0.22-0.66-0.41-0.92
			c-0.19-0.26-0.43-0.47-0.73-0.62c-0.29-0.15-0.65-0.22-1.08-0.22s-0.79,0.07-1.08,0.22c-0.29,0.15-0.54,0.35-0.73,0.62
			c-0.19,0.26-0.33,0.57-0.41,0.92s-0.12,0.73-0.12,1.15v8.01c0,0.41,0.04,0.79,0.12,1.14s0.22,0.66,0.41,0.91
			c0.19,0.26,0.43,0.46,0.73,0.61c0.29,0.15,0.65,0.22,1.08,0.22s0.79-0.07,1.08-0.22c0.29-0.15,0.54-0.35,0.73-0.61
			c0.19-0.26,0.33-0.56,0.41-0.91c0.08-0.35,0.12-0.73,0.12-1.14V14.7h0.97v1.76c0,0.56-0.06,1.08-0.19,1.55
			c-0.12,0.48-0.32,0.89-0.59,1.23c-0.27,0.35-0.62,0.62-1.03,0.81c-0.42,0.2-0.92,0.3-1.51,0.3s-1.09-0.1-1.51-0.3
			c-0.42-0.2-0.76-0.47-1.03-0.81s-0.47-0.76-0.59-1.23c-0.12-0.48-0.19-0.99-0.19-1.55V8.58c0-0.56,0.06-1.08,0.19-1.55
			c0.12-0.48,0.32-0.89,0.59-1.23c0.27-0.34,0.62-0.62,1.03-0.81C26.3,4.79,26.8,4.69,27.39,4.69z"/>
		<path d="M36.7,8.59c0-0.56,0.07-1.08,0.2-1.55c0.13-0.48,0.33-0.89,0.61-1.23c0.27-0.34,0.62-0.62,1.05-0.81
			c0.43-0.2,0.93-0.3,1.52-0.3s1.1,0.1,1.53,0.3c0.43,0.2,0.79,0.47,1.07,0.81c0.28,0.35,0.48,0.76,0.62,1.23
			c0.13,0.48,0.2,0.99,0.2,1.55v7.88c0,0.56-0.07,1.08-0.2,1.55c-0.13,0.48-0.34,0.89-0.62,1.23c-0.28,0.35-0.63,0.62-1.07,0.81
			c-0.43,0.2-0.94,0.3-1.53,0.3s-1.09-0.1-1.52-0.3c-0.43-0.2-0.77-0.47-1.05-0.81c-0.27-0.34-0.47-0.76-0.61-1.23
			c-0.13-0.48-0.2-0.99-0.2-1.55V8.59z M37.71,16.54c0,0.84,0.18,1.53,0.54,2.08s0.97,0.83,1.82,0.83s1.46-0.28,1.84-0.83
			c0.37-0.55,0.56-1.24,0.56-2.08V8.53c0-0.84-0.19-1.53-0.56-2.08c-0.37-0.55-0.99-0.83-1.84-0.83s-1.46,0.28-1.82,0.83
			s-0.54,1.24-0.54,2.08V16.54z"/>
		<path d="M52.77,4.82c1.17,0,2.02,0.31,2.53,0.92c0.51,0.62,0.77,1.47,0.77,2.55v1.34c0,1.79-0.74,2.86-2.22,3.19
			c0.79,0.18,1.36,0.54,1.71,1.08c0.34,0.54,0.52,1.23,0.52,2.07v2.4c0,0.32,0.02,0.65,0.07,0.98c0.04,0.33,0.15,0.62,0.31,0.87
			H55.4c-0.13-0.23-0.22-0.5-0.26-0.78c-0.04-0.29-0.07-0.64-0.07-1.07v-2.42c0-0.51-0.07-0.94-0.2-1.28s-0.33-0.61-0.58-0.8
			c-0.26-0.2-0.56-0.34-0.91-0.42s-0.75-0.12-1.19-0.12h-1.61v6.89h-1.01V4.82H52.77z M52.2,12.42c0.45,0,0.86-0.04,1.21-0.11
			s0.65-0.21,0.89-0.4c0.24-0.19,0.43-0.45,0.56-0.79c0.13-0.34,0.2-0.76,0.2-1.28V8.39c0-0.84-0.18-1.49-0.53-1.95
			s-0.95-0.69-1.78-0.69h-2.18v6.67H52.2z"/>
		<path d="M63.93,16.82l-0.77,3.41h-0.92L65.61,4.8h1.48l3.43,15.43H69.5l-0.77-3.41H63.93z M64.09,15.94h4.49l-2.27-9.97
			L64.09,15.94z"/>
		<path d="M83.26,20.23h-6.94v-0.92l5.97-13.56h-5.68V4.83h6.74v0.95l-5.97,13.54h5.88C83.26,19.32,83.26,20.23,83.26,20.23z"/>
		<path d="M89.34,8.59c0-0.56,0.07-1.08,0.2-1.55c0.13-0.48,0.33-0.89,0.61-1.23C90.42,5.47,90.77,5.19,91.2,5
			c0.43-0.2,0.93-0.3,1.52-0.3s1.1,0.1,1.53,0.3c0.43,0.2,0.79,0.47,1.07,0.81c0.28,0.35,0.48,0.76,0.62,1.23
			c0.13,0.48,0.2,0.99,0.2,1.55v7.88c0,0.56-0.07,1.08-0.2,1.55c-0.13,0.48-0.34,0.89-0.62,1.23c-0.28,0.35-0.63,0.62-1.07,0.81
			c-0.43,0.2-0.94,0.3-1.53,0.3s-1.09-0.1-1.52-0.3c-0.43-0.2-0.77-0.47-1.05-0.81c-0.27-0.34-0.47-0.76-0.61-1.23
			c-0.13-0.48-0.2-0.99-0.2-1.55V8.59z M90.35,16.54c0,0.84,0.18,1.53,0.54,2.08s0.96,0.83,1.82,0.83c0.85,0,1.46-0.28,1.84-0.83
			s0.56-1.24,0.56-2.08V8.53c0-0.84-0.19-1.53-0.56-2.08c-0.37-0.55-0.99-0.83-1.84-0.83s-1.46,0.28-1.82,0.83s-0.54,1.24-0.54,2.08
			V16.54z"/>
		<path d="M102.2,4.82h2.42v13.21h3.99v2.2h-6.41V4.82z"/>
		<path d="M121.9,20.23h-2.44l-0.42-2.8h-2.97l-0.42,2.8h-2.22l2.47-15.41h3.54L121.9,20.23z M116.38,15.35h2.33l-1.17-7.79
			L116.38,15.35z"/>
		<path d="M129.59,9.07v11.16h-2.18V4.82h3.04l2.49,9.23V4.82h2.16v15.41h-2.49L129.59,9.07z"/>
		<path d="M149.07,20.23h-2.44l-0.42-2.8h-2.97l-0.42,2.8h-2.22l2.47-15.41h3.54L149.07,20.23z M143.55,15.35h2.33l-1.17-7.79
			L143.55,15.35z"/>
	</g>
	<g>
		<g>
			<g>
				<path class="st0" d="M152.08,11.31c0,0,0.22-10.46,11.8-11.31C163.89,0,161.44,9.91,152.08,11.31z"/>
				<path class="st0" d="M154.75,18.55c0,0,6.57-8.14,16.25-1.72C171,16.83,163.01,23.16,154.75,18.55z"/>
			</g>
			<g>
				<path class="st0" d="M18.92,11.31c0,0-0.22-10.46-11.8-11.31C7.12,0,9.57,9.91,18.92,11.31z"/>
				<path class="st0" d="M16.25,18.55c0,0-6.57-8.14-16.25-1.72C0,16.83,8,23.16,16.25,18.55z"/>
			</g>
		</g>
	</g>
</g>
</svg>
